<svg width="50" height="50" viewBox="0 0 50 50" fill="none" xmlns="http://www.w3.org/2000/svg">
<g filter="url(#filter0_i)">
<path d="M44.3654 25.1392C44.3652 30.2202 42.355 35.0947 38.7738 38.6984C35.1926 42.3021 30.3313 44.3423 25.2513 44.3734C20.1713 44.4046 15.2853 42.4242 11.6602 38.8647C8.03509 35.3051 5.96531 30.4556 5.9028 25.3751C5.9028 25.2964 5.9028 25.2178 5.9028 25.1392C5.9028 20.0379 7.92883 15.1455 11.5352 11.5382C15.1416 7.93094 20.033 5.90419 25.1334 5.90381H25.3707C29.2565 5.94532 33.0377 7.16871 36.2117 9.41134C38.3391 10.9145 40.1414 12.8315 41.5107 15.0476C43.383 18.08 44.3717 21.5751 44.3654 25.1392Z" fill="#FAA300"/>
</g>
<path d="M24.8404 49.5281C38.5075 49.5281 49.5868 38.4468 49.5868 24.7773C49.5868 11.1078 38.5075 0.0265503 24.8404 0.0265503C11.1733 0.0265503 0.0939407 11.1078 0.0939407 24.7773C0.0939407 38.4468 11.1733 49.5281 24.8404 49.5281Z" fill="white"/>
<path d="M49.589 24.7786C49.5936 30.4734 47.6384 35.9964 44.0519 40.4194C40.4654 44.8425 35.4661 47.8962 29.8939 49.0675C24.3218 50.2387 18.5164 49.4561 13.4531 46.8512C8.38981 44.2463 4.3772 39.9778 2.08944 34.7628C-0.198318 29.5479 -0.621816 23.7043 0.890102 18.2139C2.40202 12.7235 5.75722 7.9208 10.392 4.61279C15.0267 1.30479 20.6586 -0.306963 26.3414 0.0483323C32.0242 0.403627 37.4115 2.70432 41.5983 6.56386C44.1173 8.88213 46.1281 11.6979 47.5035 14.8331C48.8789 17.9683 49.589 21.3548 49.589 24.7786Z" fill="#F0CD00"/>
<path d="M49.5933 24.7819C49.594 31.1879 47.1114 37.3447 42.6675 41.958C38.2236 46.5713 32.1646 49.2817 25.764 49.5195C19.355 49.2941 13.2837 46.5892 8.82947 41.9748C4.37521 37.3603 1.8858 31.1967 1.8858 24.7826C1.8858 18.3685 4.37521 12.2048 8.82947 7.5904C13.2837 2.97595 19.355 0.271054 25.764 0.0456543C32.1643 0.283423 38.2232 2.99365 42.667 7.60662C47.1109 12.2196 49.5936 18.376 49.5933 24.7819Z" fill="#FFDE50"/>
<path d="M41.5983 6.56241L6.62808 41.5387C5.437 40.2461 4.38638 38.8307 3.49383 37.3163L37.3722 3.42761C38.8883 4.31938 40.305 5.37025 41.5983 6.56241Z" fill="#FFEA94"/>
<path d="M47.8872 15.7382L15.7935 47.8287C13.5419 46.9414 11.4328 45.7283 9.53376 44.228L44.2871 9.46277C45.7889 11.3663 47.0019 13.4808 47.8872 15.7382Z" fill="#FFEA94"/>
<g filter="url(#filter1_i)">
<path d="M44.0746 24.78C44.0743 29.861 42.0642 34.7355 38.483 38.3392C34.9018 41.9429 30.0404 43.9831 24.9604 44.0142C19.8805 44.0454 14.9945 42.065 11.3694 38.5055C7.74423 34.946 5.67445 30.0965 5.61195 25.0159C5.61195 24.9372 5.61195 24.8586 5.61195 24.78C5.61195 19.6787 7.63797 14.7863 11.2444 11.179C14.8508 7.57175 19.7421 5.545 24.8425 5.54462H25.0798C28.9657 5.58613 32.7469 6.80951 35.9208 9.05215C38.0482 10.5553 39.8505 12.4723 41.2198 14.6884C43.0922 17.7208 44.0808 21.2159 44.0746 24.78Z" fill="#FAA300"/>
</g>
<path d="M44.0716 24.7801C44.0713 29.8815 42.0449 34.7738 38.4383 38.3811C34.8317 41.9883 29.9401 44.015 24.8396 44.0154C24.4747 44.0154 24.1127 44.0052 23.7536 43.9849C28.6568 43.7048 33.2671 41.5593 36.6393 37.9883C40.0116 34.4173 41.8903 29.6913 41.8903 24.7793C41.8903 19.8673 40.0116 15.1414 36.6393 11.5704C33.2671 7.99938 28.6568 5.8539 23.7536 5.57379C24.1137 5.5534 24.4757 5.54321 24.8396 5.54321C29.9404 5.5436 34.8321 7.5705 38.4388 11.1781C42.0455 14.7856 44.0716 19.6784 44.0716 24.7801Z" fill="#F68E00"/>
<path d="M22.1934 11.1255C21.5683 11.1892 20.9696 11.262 20.8728 11.2894C20.7847 11.3258 20.5646 11.3713 20.3974 11.3986C20.2301 11.4259 19.9748 11.5261 19.8251 11.6171C19.5874 11.7537 19.561 11.8266 19.517 12.3546C19.473 12.9374 19.4642 12.9465 19.2088 12.9738C19.068 12.992 18.619 13.1013 18.214 13.2287C16.6997 13.7113 15.3351 14.7493 14.5164 16.0695C14.1026 16.7251 13.9441 17.326 14.0233 17.8723C14.0938 18.3731 14.2082 18.4004 14.1642 17.9179C14.1026 17.2987 14.4371 16.5248 15.2031 15.4595C15.432 15.1499 16.5237 14.2485 16.8934 14.0846C16.9991 14.03 17.2368 13.9025 17.404 13.8115C17.8795 13.5474 18.7246 13.2743 19.1648 13.2469C19.5434 13.2196 19.561 13.2287 19.5874 13.4837C19.7019 14.5126 19.156 15.0224 16.8582 15.9967C15.9602 16.3791 15.4056 16.7797 15.2999 17.1166C15.2559 17.2805 15.2031 17.7358 15.1943 18.1364C15.1767 18.537 15.1238 18.965 15.0622 19.1015C14.9301 19.3747 14.5956 19.5477 14.1994 19.5477C13.7504 19.5477 13.3542 19.7298 13.2574 19.9756C13.143 20.3034 13.1606 20.9772 13.3014 21.2594C13.4775 21.6145 13.8121 21.915 14.3403 22.1882C15.3791 22.7163 15.881 23.0532 16.3036 23.4629C16.9991 24.1549 17.36 24.3005 18.4517 24.3279C19.0416 24.3461 19.4994 24.4007 19.6931 24.4918C20.1244 24.683 20.7231 25.1473 20.8376 25.3841C21.0577 25.8029 20.5646 26.3765 20.1068 26.2308C19.9836 26.1944 19.9484 26.2126 19.9748 26.2946C20.0452 26.5131 20.6967 26.4311 21.0841 26.1762C21.5155 25.8757 21.7003 25.4569 21.5683 25.0927C21.4274 24.7194 21.5507 24.7649 21.9645 25.2293C22.8801 26.2581 23.4699 27.3052 23.8133 28.5071C23.9629 29.0079 23.9894 29.3539 23.9806 30.2826C23.9629 31.3843 23.9541 31.4572 23.734 31.7576C23.5051 32.0672 23.2146 32.2584 22.5719 32.5134C22.3959 32.5862 22.2198 32.7228 22.1934 32.8138C22.0437 33.2873 21.8236 33.7334 21.5947 34.0066C21.4538 34.1705 21.3658 34.3253 21.3922 34.3526C21.4186 34.3799 21.9292 34.4618 22.5279 34.5347C23.9541 34.6986 26.4192 34.6986 27.7926 34.5256C28.4001 34.4527 28.9019 34.389 28.9195 34.389C28.9372 34.389 28.8051 34.1978 28.6378 33.9702C28.4705 33.7425 28.2681 33.3601 28.1888 33.1234C28.048 32.6772 27.9511 32.5862 27.326 32.3677C25.4332 31.7121 26.0583 27.4964 28.3913 25.1655L28.7435 24.8104L28.6994 25.2111C28.6642 25.5479 28.6906 25.6572 28.8843 25.8939C29.1308 26.1944 29.6062 26.4676 29.8792 26.4676C29.976 26.4676 30.1257 26.4038 30.2225 26.331C30.381 26.1944 30.3722 26.1853 30.1081 26.2399C29.8792 26.2855 29.7823 26.2581 29.5974 26.0669C29.1484 25.6026 29.3862 25.1473 30.3458 24.6101C30.7684 24.3734 30.9004 24.3461 31.7984 24.3188C32.9429 24.2914 33.163 24.2095 33.8233 23.5539C34.2459 23.1351 35.4344 22.3703 36.2092 22.0152C36.4117 21.9241 36.6846 21.6965 36.8166 21.5144C37.0191 21.2321 37.0632 21.0956 37.0632 20.5948C37.072 19.8117 36.9135 19.6296 36.1828 19.5659C35.2495 19.4839 35.0118 19.1288 35.0118 17.8541C35.0118 17.0711 35.0118 17.062 34.7037 16.7615C34.4132 16.4793 33.5064 15.9785 33.0574 15.8601C32.626 15.7326 31.1029 14.8494 30.9444 14.6218C30.7331 14.3305 30.6011 13.7659 30.6715 13.4199C30.7243 13.1741 30.742 13.165 31.0853 13.2196C32.6788 13.4837 34.554 14.6856 35.452 16.0422C35.6809 16.3791 36.0595 17.1713 36.0683 17.3169C36.0683 17.3442 36.0683 17.581 36.0683 17.8359C36.0683 18.1819 36.0947 18.2821 36.1563 18.1819C36.2004 18.1091 36.2444 17.8268 36.2444 17.5628C36.2444 16.7888 35.8394 16.0331 34.8798 15.0407C34.1843 14.3214 33.973 14.1575 33.163 13.7477C32.1506 13.2287 31.5079 12.992 31.1293 12.992C30.8212 12.992 30.742 12.8645 30.7772 12.4275C30.83 11.6991 30.6539 11.5534 29.4654 11.3258C27.7134 10.9889 24.5352 10.8978 22.1934 11.1255ZM21.2778 11.4897C21.1809 11.608 21.1897 11.6536 21.3306 11.7628C21.4186 11.8357 21.5683 11.8994 21.6563 11.9085C21.7356 11.9176 21.8324 11.9267 21.8764 11.9358C22.5719 12.1088 23.8045 12.2181 25.1515 12.2181C26.5777 12.209 27.0355 12.1725 28.2769 11.9358C28.5762 11.8812 28.9372 11.6991 28.9372 11.608C28.9372 11.5625 28.8579 11.4988 28.7611 11.4715C28.5586 11.4168 28.5234 11.262 28.7083 11.262C28.9548 11.262 30.0288 11.5443 30.2753 11.6809C31.5871 12.382 27.5814 13.0466 23.4875 12.8008C20.6615 12.6369 19.3145 12.2272 19.9044 11.7264C20.0276 11.6171 21.2954 11.262 21.357 11.3167C21.3746 11.3349 21.3394 11.4168 21.2778 11.4897ZM25.8118 14.6309C26.0143 14.6856 25.9262 14.7038 25.4508 14.7129C24.3591 14.7311 23.4787 15.1044 22.66 15.8965C22.2638 16.279 22.2286 16.2972 22.0877 16.1424C21.9469 15.9876 21.9557 15.9603 22.3254 15.6234C23.1882 14.8221 24.7993 14.3669 25.8118 14.6309ZM26.428 15.1317C27.1324 15.3229 27.6958 15.6598 28.1976 16.1879C28.5498 16.5521 28.6114 16.6705 28.5322 16.7888C28.3737 17.0529 28.2769 17.0165 27.9687 16.5794C27.8014 16.3518 27.4317 16.0058 27.1412 15.8055C26.4456 15.3229 25.8294 15.1499 24.9754 15.1954C24.2447 15.2228 24.1654 15.2045 24.6408 15.0862C25.1251 14.9678 25.8734 14.986 26.428 15.1317ZM25.1867 19.5477C25.2307 19.5477 25.8998 19.0651 26.6834 18.4824C27.4581 17.8997 28.2416 17.3169 28.4089 17.1895C28.6466 17.0165 28.6818 16.9983 28.5762 17.1348C25.891 20.5948 25.1163 21.5508 25.0722 21.4871C25.037 21.4507 24.139 20.1213 23.0826 18.5461C22.0261 16.9709 21.0577 15.5323 20.9344 15.3593C20.82 15.1863 21.7092 16.0513 22.9153 17.2896C24.1214 18.537 25.1427 19.5477 25.1867 19.5477ZM25.2395 15.4504C25.2395 15.4959 25.2043 15.5414 25.1515 15.5414C25.1075 15.5414 25.0634 15.4959 25.0634 15.4504C25.0634 15.3958 25.1075 15.3593 25.1515 15.3593C25.2043 15.3593 25.2395 15.3958 25.2395 15.4504ZM21.8148 17.1257C21.5859 17.4171 21.4362 18.3185 21.4714 19.229C21.4979 20.0849 21.5243 20.2124 21.8412 20.8588C22.6071 22.4704 24.1126 23.3809 25.8118 23.2626L26.428 23.217L25.9878 23.3263C25.3452 23.4993 24.8257 23.4902 24.051 23.2808C23.2146 23.0623 22.7128 22.7709 22.0437 22.1062C20.7407 20.8315 20.4062 18.8375 21.1897 17.1075L21.4626 16.4975L21.6827 16.7615C21.8324 16.9345 21.8764 17.0529 21.8148 17.1257ZM29.1396 17.7358C29.6327 19.1835 29.2541 20.7678 28.1624 21.8422C27.3084 22.6798 26.3136 23.0714 25.2395 22.9803C24.6585 22.9257 23.8573 22.6981 23.6988 22.5342C23.646 22.4886 23.7164 22.4886 23.8573 22.5433C24.7289 22.8893 25.891 22.8073 26.7538 22.3612C28.2769 21.569 29.0428 19.8208 28.673 17.9998C28.585 17.5628 28.585 17.4262 28.673 17.3169C28.8491 17.0984 28.9636 17.1986 29.1396 17.7358ZM25.9526 17.5355C26.1375 17.7358 26.2079 17.8906 26.2079 18.1364C26.2079 18.5643 25.8206 19.0014 25.4332 19.0014C25.1251 19.0014 24.7289 18.7009 24.6144 18.3822C24.5 18.0636 24.6673 17.5719 24.9578 17.408C25.3364 17.1986 25.6621 17.2441 25.9526 17.5355ZM20.0012 18.2001C19.966 18.4187 19.8427 18.8102 19.7283 19.0833C19.4906 19.6387 19.4465 20.6312 19.6138 21.742C19.7283 22.5342 19.9308 23.0076 20.4414 23.7269C20.6615 24.0274 20.8112 24.2823 20.7847 24.2823C20.7583 24.2823 20.6263 24.2186 20.4854 24.1458C20.3445 24.0729 19.966 24.0092 19.5874 24.0001C18.9447 23.991 18.6366 23.8999 18.6366 23.7269C18.6366 23.5448 17.6506 22.3612 17.2016 22.0152C16.6821 21.6145 15.9866 21.223 15.6257 21.1502C15.4848 21.1229 15.2823 21.0773 15.159 21.05C14.7981 20.9681 14.9037 20.8679 15.4672 20.7405C16.1451 20.5857 16.823 19.9756 16.9198 19.4293C16.955 19.2472 17.0167 19.0924 17.0607 19.0924C17.1751 19.0924 17.1575 19.3838 17.0079 19.8208C16.9374 20.0303 16.8934 20.2397 16.9198 20.2761C16.9727 20.3671 17.8707 20.1304 18.2844 19.9119C18.8039 19.6296 19.8691 18.2912 19.8691 17.927C19.8691 17.8632 19.9132 17.8177 19.966 17.8177C20.0276 17.8177 20.0364 17.9452 20.0012 18.2001ZM30.5571 18.3185C30.8828 18.965 31.5079 19.6478 32.0185 19.921C32.4323 20.1395 33.3391 20.3945 33.3391 20.2943C33.3303 20.2124 33.1718 19.4475 33.1102 19.2472C33.0838 19.1653 33.1014 19.0924 33.1542 19.0924C33.207 19.0924 33.2863 19.2563 33.3391 19.4566C33.5152 20.1395 34.0962 20.6221 34.9502 20.7769C35.3904 20.8679 35.32 21.0318 34.8005 21.1138C33.929 21.2412 32.5203 22.3065 31.8248 23.3718C31.4287 23.9728 31.3582 24.0092 30.6363 24.0092C30.2225 24.0092 29.888 24.0638 29.7295 24.1458C29.4302 24.3097 29.3773 24.2095 29.6415 23.9637C29.9496 23.6814 30.3546 22.9348 30.5395 22.343C30.6451 21.997 30.7331 21.3869 30.7596 20.7678C30.8124 19.7844 30.8036 19.7298 30.5483 19.0833C30.2665 18.3731 30.1345 17.8177 30.2401 17.8177C30.2753 17.8177 30.4162 18.0453 30.5571 18.3185ZM21.85 18.8193C21.8764 18.8648 21.8412 18.9103 21.7708 18.9103C21.6915 18.9103 21.6299 18.8648 21.6299 18.8193C21.6299 18.7646 21.6651 18.7282 21.7092 18.7282C21.762 18.7282 21.8236 18.7646 21.85 18.8193ZM28.585 18.8193C28.585 18.8648 28.5498 18.9103 28.497 18.9103C28.4529 18.9103 28.4089 18.8648 28.4089 18.8193C28.4089 18.7646 28.4529 18.7282 28.497 18.7282C28.5498 18.7282 28.585 18.7646 28.585 18.8193ZM25.2395 22.5159C25.2395 22.5888 25.1955 22.6252 25.1515 22.5979C25.0987 22.5615 25.081 22.4977 25.1075 22.4522C25.1867 22.3247 25.2395 22.3521 25.2395 22.5159Z" fill="black"/>
<path d="M12.782 18.0362C12.2626 18.2639 11.7343 18.9194 11.4262 19.6843C11.2677 20.0849 11.0916 20.4582 11.0476 20.5219C10.9332 20.6676 10.9596 20.7131 11.884 21.7056C13.4687 23.4082 15.1062 24.3096 17.6065 24.8742C18.0115 24.9652 18.3901 25.1109 18.5309 25.2384C18.8743 25.5297 19.5082 25.8484 19.6754 25.8029C19.7723 25.7847 19.6754 25.7027 19.4025 25.5753C19.1736 25.466 18.8039 25.2384 18.575 25.0563C18.3549 24.8833 18.0643 24.7376 17.9411 24.7376C17.8178 24.7376 17.5625 24.6921 17.3688 24.6374C17.1839 24.5828 16.955 24.5282 16.8582 24.51C16.1363 24.3643 14.71 23.7087 13.7944 23.0896C13.2134 22.7071 12.3858 21.9241 11.7607 21.1684L11.2941 20.6221L11.4438 20.3398C11.5142 20.1759 11.6991 19.7753 11.84 19.4475C12.1305 18.7919 12.738 18.1455 13.2134 18.0089C13.4599 17.9361 13.4687 17.927 13.2662 17.9179C13.1429 17.9179 12.9229 17.9725 12.782 18.0362Z" fill="black"/>
<path d="M37.0984 18.1819C37.3449 18.3276 37.653 18.5917 37.7763 18.7556C38.0316 19.0925 38.6214 20.3945 38.6214 20.6039C38.6214 20.6859 38.507 20.8771 38.3661 21.0318C38.2341 21.1957 37.9435 21.5235 37.7322 21.7603C36.7638 22.8893 34.6157 24.1549 33.0838 24.51C33.0046 24.5282 32.6436 24.6102 32.2826 24.6921C31.7808 24.8014 31.5519 24.9106 31.3406 25.12C31.1909 25.2748 30.8476 25.4751 30.5923 25.5662C30.2489 25.6846 30.1697 25.7392 30.2841 25.7847C30.4866 25.8667 30.9004 25.6846 31.3142 25.3295C31.5695 25.1109 31.8424 25.0017 32.5556 24.8287C33.7441 24.5555 34.4484 24.3006 35.3464 23.8362C36.5349 23.2171 37.116 22.7527 38.3485 21.4325L39 20.7405L38.6302 19.8391C38.2429 18.9012 37.8291 18.364 37.2392 18.0545C36.7374 17.7995 36.623 17.8997 37.0984 18.1819Z" fill="black"/>
<path d="M20.3974 34.9627C20.1773 35.0628 19.7635 35.1721 19.4729 35.1994C19.0239 35.2449 18.9447 35.2814 18.9183 35.4452C18.8831 35.7184 19.0416 35.8186 19.8339 36.028C22.5455 36.7382 28.8403 36.6471 30.9444 35.8641C31.2702 35.7457 31.323 35.6911 31.2966 35.4908C31.2702 35.2723 31.2262 35.2449 30.786 35.1994C30.5218 35.1721 30.0993 35.0628 29.8439 34.9627C29.5886 34.8625 29.3685 34.7897 29.3509 34.817C29.3245 34.8352 28.9371 34.9445 28.4881 35.0446C27.7574 35.2085 27.37 35.2358 25.1074 35.2267C22.8801 35.2267 22.4487 35.2085 21.7444 35.0446C21.3042 34.9445 20.908 34.8443 20.864 34.817C20.8287 34.7988 20.6175 34.8625 20.3974 34.9627Z" fill="black"/>
<path d="M18.1964 36.4832C18.1964 36.7837 18.2404 36.8565 18.4869 37.0113C20.4766 38.286 29.2013 38.3406 31.6399 37.1024C32.0009 36.9203 32.1065 36.7382 32.1065 36.3193C32.1065 36.1099 32.0185 36.0644 31.8865 36.201C31.8336 36.2465 31.5607 36.3739 31.2702 36.4741C28.4177 37.4575 20.8992 37.3664 18.619 36.3193L18.1964 36.1281V36.4832Z" fill="black"/>
<defs>
<filter id="filter0_i" x="5.9028" y="5.90381" width="44.4626" height="44.47" filterUnits="userSpaceOnUse" color-interpolation-filters="sRGB">
<feFlood flood-opacity="0" result="BackgroundImageFix"/>
<feBlend mode="normal" in="SourceGraphic" in2="BackgroundImageFix" result="shape"/>
<feColorMatrix in="SourceAlpha" type="matrix" values="0 0 0 0 0 0 0 0 0 0 0 0 0 0 0 0 0 0 127 0" result="hardAlpha"/>
<feOffset dx="6" dy="6"/>
<feGaussianBlur stdDeviation="3.5"/>
<feComposite in2="hardAlpha" operator="arithmetic" k2="-1" k3="1"/>
<feColorMatrix type="matrix" values="0 0 0 0 1 0 0 0 0 0.807843 0 0 0 0 0.305882 0 0 0 1 0"/>
<feBlend mode="normal" in2="shape" result="effect1_innerShadow"/>
</filter>
<filter id="filter1_i" x="5.61195" y="5.54462" width="44.4626" height="44.47" filterUnits="userSpaceOnUse" color-interpolation-filters="sRGB">
<feFlood flood-opacity="0" result="BackgroundImageFix"/>
<feBlend mode="normal" in="SourceGraphic" in2="BackgroundImageFix" result="shape"/>
<feColorMatrix in="SourceAlpha" type="matrix" values="0 0 0 0 0 0 0 0 0 0 0 0 0 0 0 0 0 0 127 0" result="hardAlpha"/>
<feOffset dx="6" dy="6"/>
<feGaussianBlur stdDeviation="3.5"/>
<feComposite in2="hardAlpha" operator="arithmetic" k2="-1" k3="1"/>
<feColorMatrix type="matrix" values="0 0 0 0 1 0 0 0 0 0.807843 0 0 0 0 0.305882 0 0 0 1 0"/>
<feBlend mode="normal" in2="shape" result="effect1_innerShadow"/>
</filter>
</defs>
</svg>
