<svg width="250" height="250" viewBox="0 0 250 250" fill="none" xmlns="http://www.w3.org/2000/svg">
<path d="M169.355 112.903C169.355 137.4 149.497 157.258 125 157.258C100.503 157.258 80.6453 137.4 80.6453 112.903C80.6453 88.4065 100.503 68.5484 125 68.5484C149.497 68.5484 169.355 88.4065 169.355 112.903Z" fill="#2E3742"/>
<path d="M112.903 32.2581H137.097V56.4516H112.903V32.2581Z" fill="#2E3742"/>
<path d="M112.903 169.355H137.097V245.968H112.903V169.355Z" fill="#2E3742"/>
<path d="M209.677 36.2903C209.677 31.8426 206.061 28.2258 201.613 28.2258H181.452V21.1418C181.452 9.48408 171.967 0 160.314 0C154.665 0 149.355 2.19727 145.366 6.19408L125 26.5562L104.638 6.19408C100.645 2.19727 95.3388 0 89.6862 0C78.0324 0 68.5483 9.48408 68.5483 21.1418V28.2258H48.387C43.9393 28.2258 40.3225 31.8426 40.3225 36.2903V52.4194C40.3225 56.867 43.9393 60.4839 48.387 60.4839H201.613C206.061 60.4839 209.677 56.867 209.677 52.4194V36.2903ZM151.072 11.892C153.537 9.42304 156.819 8.06452 160.314 8.06452C167.524 8.06452 173.387 13.9318 173.387 21.1418V28.2258H134.734L151.072 11.892ZM76.6128 21.1418C76.6128 13.9318 82.4761 8.06452 89.6862 8.06452C93.1809 8.06452 96.463 9.42304 98.932 11.8959L115.266 28.2258H76.6128V21.1418ZM48.387 52.4194V36.2903H201.613L201.617 52.4194H48.387Z" fill="#2E3742"/>
<path d="M48.3872 250H201.613V165.323H48.3872V250ZM56.4517 173.387H193.548V241.935H56.4517V173.387Z" fill="#2E3742"/>
<path d="M145.161 225.806H153.226V233.871H145.161V225.806Z" fill="#2E3742"/>
<path d="M161.29 225.806H169.355V233.871H161.29V225.806Z" fill="#2E3742"/>
<path d="M177.419 225.806H185.484V233.871H177.419V225.806Z" fill="#2E3742"/>
<path d="M133.064 129.032H116.935C114.711 129.032 112.903 127.221 112.903 125H104.839C104.839 131.669 110.267 137.097 116.935 137.097H120.968V141.129H129.032V137.097H133.064C139.733 137.097 145.161 131.669 145.161 125V120.968C145.161 114.299 139.733 108.871 133.064 108.871H116.935C114.711 108.871 112.903 107.06 112.903 104.839V100.806C112.903 98.5856 114.711 96.7742 116.935 96.7742H133.064C135.289 96.7742 137.097 98.5856 137.097 100.806H145.161C145.161 94.1379 139.733 88.7097 133.064 88.7097H129.032V84.6774H120.968V88.7097H116.935C110.267 88.7097 104.839 94.1379 104.839 100.806V104.839C104.839 111.507 110.267 116.935 116.935 116.935H133.064C135.289 116.935 137.097 118.747 137.097 120.968V125C137.097 127.221 135.289 129.032 133.064 129.032Z" fill="#FFB943"/>
<path d="M16.1292 68.5484H24.1937V76.6129H16.1292V68.5484Z" fill="#2E3742"/>
<path d="M16.1292 84.6774H24.1937V133.065H16.1292V84.6774Z" fill="#2E3742"/>
<path d="M32.2581 149.194H40.3226V157.258H32.2581V149.194Z" fill="#2E3742"/>
<path d="M32.2581 92.7419H40.3226V141.129H32.2581V92.7419Z" fill="#2E3742"/>
<path d="M209.677 149.194H217.742V157.258H209.677V149.194Z" fill="#2E3742"/>
<path d="M209.677 92.7419H217.742V141.129H209.677V92.7419Z" fill="#2E3742"/>
<path d="M225.806 68.5484H233.871V76.6129H225.806V68.5484Z" fill="#2E3742"/>
<path d="M225.806 84.6774H233.871V133.065H225.806V84.6774Z" fill="#2E3742"/>
<path d="M241.936 48.3871H250V56.4516H241.936V48.3871Z" fill="#2E3742"/>
<path d="M241.936 64.5161H250V112.903H241.936V64.5161Z" fill="#2E3742"/>
<path d="M0 48.3871H8.06452V56.4516H0V48.3871Z" fill="#2E3742"/>
<path d="M0 64.5161H8.06452V112.903H0V64.5161Z" fill="#2E3742"/>
</svg>
