<svg xmlns="http://www.w3.org/2000/svg" width="24.96" height="30.916" viewBox="0 0 24.96 30.916"><g transform="translate(-6.791)"><g transform="translate(6.791)"><path d="M27.7,11.454A17.343,17.343,0,0,0,23.758,7.7a11.132,11.132,0,0,0-1.472-.832,9.676,9.676,0,0,0,1.438-1.648,15.415,15.415,0,0,0,1.512-2.706,1,1,0,0,0-1.78-.915,1.739,1.739,0,0,1-1.422.864,2.378,2.378,0,0,1-1.959-.955A4.147,4.147,0,0,0,16.779,0a4.148,4.148,0,0,0-3.3,1.51,1,1,0,0,0-.141,1.006,15.419,15.419,0,0,0,1.512,2.706A9.684,9.684,0,0,0,16.29,6.871a11.144,11.144,0,0,0-1.484.839,17.4,17.4,0,0,0-3.949,3.765A17.953,17.953,0,0,0,6.791,21.884a7.867,7.867,0,0,0,2.834,6.377c2.133,1.761,5.384,2.654,9.664,2.654,4.265,0,7.506-.9,9.635-2.676a7.949,7.949,0,0,0,2.827-6.417A17.874,17.874,0,0,0,27.7,11.454ZM15.484,2.371a2.383,2.383,0,0,1,1.295-.363,2.187,2.187,0,0,1,1.723.749,4.428,4.428,0,0,0,3.275,1.717A3.634,3.634,0,0,1,19.289,6.15C17.709,6.15,16.189,3.775,15.484,2.371ZM27.637,26.7c-1.758,1.466-4.567,2.21-8.349,2.21-3.8,0-6.622-.738-8.385-2.194a5.946,5.946,0,0,1-2.1-4.829A15.909,15.909,0,0,1,12.44,12.71c2.191-2.808,4.815-4.552,6.849-4.552s4.642,1.737,6.825,4.532a15.83,15.83,0,0,1,3.629,9.133A6.028,6.028,0,0,1,27.637,26.7Z" transform="translate(-6.791)" fill="#fff"/></g><g transform="translate(15.62 11.463)"><path d="M31.075,32.949c-1.053-.557-2.143-1.133-2.143-1.79a1.673,1.673,0,0,1,3.347,0,1,1,0,0,0,2.008,0,3.687,3.687,0,0,0-2.677-3.541v-.475a1,1,0,0,0-2.008,0v.475a3.687,3.687,0,0,0-2.677,3.541c0,1.867,1.781,2.809,3.212,3.565,1.053.557,2.143,1.133,2.143,1.79a1.673,1.673,0,0,1-3.347,0,1,1,0,1,0-2.008,0A3.687,3.687,0,0,0,29.6,40.055v.475a1,1,0,1,0,2.008,0v-.475a3.687,3.687,0,0,0,2.677-3.541C34.287,34.647,32.506,33.706,31.075,32.949Z" transform="translate(-26.924 -26.139)" fill="#fff"/></g></g></svg>