<svg xmlns="http://www.w3.org/2000/svg" width="36.184" height="36.184" viewBox="0 0 36.184 36.184">
  <g id="send_message_icon" data-name="send message icon" transform="translate(-349.258 -667)">
    <rect id="Base" width="36.184" height="36.184" rx="18.092" transform="translate(349.258 667)" fill="#727272"/>
    <path id="Send" d="M16.163.059A.246.246,0,0,0,15.9.022L.141,7.215a.237.237,0,0,0,0,.43L4.6,9.8a.247.247,0,0,0,.252-.023L9.185,6.589l-3.4,3.44a.236.236,0,0,0-.068.185l.339,4.336a.239.239,0,0,0,.166.208.248.248,0,0,0,.076.012.245.245,0,0,0,.184-.083l2.367-2.694,2.926,1.373a.247.247,0,0,0,.2,0,.24.24,0,0,0,.135-.147L16.235.31A.236.236,0,0,0,16.163.059Z" transform="translate(358.488 677.707)" fill="#fff"/>
  </g>
</svg>
