<svg width="50" height="52" viewBox="0 0 50 52" fill="none" xmlns="http://www.w3.org/2000/svg">
<g filter="url(#filter0_i)">
<path d="M25.3646 39.6715C25.3645 42.2326 24.3512 44.6897 22.5459 46.5061C20.7406 48.3226 18.29 49.351 15.7292 49.3667C13.1683 49.3824 10.7053 48.3841 8.87789 46.5899C7.05047 44.7957 6.00709 42.3513 5.97559 39.7904C5.97559 39.7508 5.97559 39.7112 5.97559 39.6715C5.97559 37.1002 6.99691 34.6342 8.81489 32.8159C10.6329 30.9976 13.0986 29.976 15.6697 29.9758H15.7893C17.7482 29.9968 19.6543 30.6134 21.2543 31.7438C22.3267 32.5015 23.2352 33.4678 23.9255 34.5848C24.8694 36.1133 25.3678 37.875 25.3646 39.6715Z" fill="#FAA300"/>
</g>
<path d="M15.522 51.965C22.4116 51.965 27.9967 46.3794 27.9967 39.4892C27.9967 32.599 22.4116 27.0134 15.522 27.0134C8.63247 27.0134 3.04736 32.599 3.04736 39.4892C3.04736 46.3794 8.63247 51.965 15.522 51.965Z" fill="white"/>
<path d="M27.9978 39.4898C28.0001 42.3603 27.0145 45.1442 25.2066 47.3737C23.3986 49.6031 20.8784 51.1424 18.0695 51.7328C15.2606 52.3231 12.3341 51.9287 9.7817 50.6156C7.2293 49.3026 5.20655 47.151 4.05329 44.5224C2.90003 41.8938 2.68654 38.9483 3.4487 36.1808C4.21086 33.4133 5.90221 30.9925 8.2386 29.3251C10.575 27.6577 13.414 26.8453 16.2787 27.0244C19.1434 27.2035 21.8591 28.3631 23.9697 30.3086C25.2395 31.4771 26.2532 32.8964 26.9465 34.4767C27.6398 36.057 27.9978 37.764 27.9978 39.4898Z" fill="#F0CD00"/>
<path d="M28 39.4914C28.0004 42.7204 26.7489 45.8238 24.5087 48.1491C22.2686 50.4745 19.2142 51.8407 15.9877 51.9605C12.7569 51.8469 9.69638 50.4835 7.45099 48.1576C5.20559 45.8316 3.95068 42.7248 3.95068 39.4917C3.95068 36.2587 5.20559 33.1519 7.45099 30.8259C9.69638 28.5 12.7569 27.1366 15.9877 27.0229C19.2141 27.1428 22.2683 28.5089 24.5085 30.8341C26.7486 33.1593 28.0002 36.2625 28 39.4914V39.4914Z" fill="#FFDE50"/>
<path d="M23.9697 30.3078L6.3412 47.9378C5.74079 47.2862 5.21116 46.5728 4.76123 45.8095L21.8393 28.7277C22.6036 29.1772 23.3177 29.7069 23.9697 30.3078V30.3078Z" fill="#FFEA94"/>
<path d="M27.1401 34.9329L10.9617 51.1084C9.82668 50.6611 8.76348 50.0496 7.80615 49.2934L25.3253 31.7698C26.0824 32.7293 26.6939 33.7951 27.1401 34.9329V34.9329Z" fill="#FFEA94"/>
<g filter="url(#filter1_i)">
<path d="M25.2181 39.4905C25.218 42.0516 24.2047 44.5086 22.3994 46.3251C20.5941 48.1416 18.1435 49.1699 15.5827 49.1856C13.0219 49.2013 10.5588 48.2031 8.73141 46.4089C6.90399 44.6147 5.86061 42.1703 5.8291 39.6094C5.8291 39.5698 5.8291 39.5301 5.8291 39.4905C5.8291 36.9192 6.85042 34.4531 8.6684 32.6349C10.4864 30.8166 12.9521 29.795 15.5232 29.7948H15.6429C17.6017 29.8157 19.5078 30.4324 21.1078 31.5628C22.1802 32.3205 23.0888 33.2867 23.779 34.4038C24.7229 35.9323 25.2213 37.694 25.2181 39.4905Z" fill="#FAA300"/>
</g>
<path d="M18.8087 40.0229C18.328 39.9265 17.8618 40.2465 17.7675 40.7376C17.4437 42.4225 16.2156 43.7189 14.6989 44.0885V39.9329L18.3317 38.3821C18.7836 38.1891 18.997 37.6583 18.8081 37.1965C18.6194 36.7347 18.0997 36.5167 17.6478 36.7096L14.6989 37.9685V36.4418L18.3317 34.891C18.7836 34.698 18.997 34.1672 18.8081 33.7054C18.6194 33.2435 18.0997 33.0256 17.6478 33.2185L14.6989 34.4774V33.7037C14.6989 33.2031 14.3018 32.7974 13.8119 32.7974C13.3221 32.7974 12.925 33.2031 12.925 33.7037V35.2347L11.264 35.9437C10.8121 36.1367 10.5987 36.6675 10.7875 37.1294C10.9297 37.4771 11.2592 37.6865 11.6063 37.6865C11.7202 37.6865 11.8362 37.6639 11.9478 37.6162L12.925 37.1991V38.7258L11.264 39.4348C10.8121 39.6278 10.5987 40.1586 10.7875 40.6204C10.9297 40.9681 11.2592 41.1776 11.6063 41.1776C11.7202 41.1776 11.8362 41.155 11.9478 41.1073L12.925 40.6902V45.1015C12.925 45.602 13.3221 46.0078 13.8119 46.0078C15.1657 46.0078 16.4839 45.5044 17.5237 44.5905C18.5411 43.6961 19.2459 42.4519 19.5081 41.0868C19.6025 40.5956 19.2894 40.1193 18.8087 40.0229Z" fill="#F68E00"/>
<path d="M19.5426 40.0229C19.0619 39.9265 18.5957 40.2465 18.5014 40.7376C18.1776 42.4225 16.9495 43.7189 15.4328 44.0885V39.9329L19.0656 38.3821C19.5175 38.1891 19.7309 37.6583 19.542 37.1965C19.3533 36.7347 18.8336 36.5167 18.3817 36.7096L15.4328 37.9685V36.4418L19.0656 34.891C19.5175 34.698 19.7309 34.1672 19.542 33.7054C19.3533 33.2435 18.8336 33.0256 18.3817 33.2185L15.4328 34.4774V33.7037C15.4328 33.2031 15.0357 32.7974 14.5458 32.7974C14.0559 32.7974 13.6589 33.2031 13.6589 33.7037V35.2347L11.9979 35.9437C11.5459 36.1367 11.3326 36.6675 11.5214 37.1294C11.6636 37.4771 11.9931 37.6865 12.3402 37.6865C12.4541 37.6865 12.5701 37.6639 12.6817 37.6162L13.6589 37.1991V38.7258L11.9979 39.4348C11.5459 39.6278 11.3326 40.1586 11.5214 40.6204C11.6636 40.9681 11.9931 41.1776 12.3402 41.1776C12.4541 41.1776 12.5701 41.155 12.6817 41.1073L13.6589 40.6902V45.1015C13.6589 45.602 14.0559 46.0078 14.5458 46.0078C15.8996 46.0078 17.2178 45.5044 18.2576 44.5905C19.275 43.6961 19.9798 42.4519 20.242 41.0868C20.3364 40.5956 20.0233 40.1193 19.5426 40.0229Z" fill="#FFEA94"/>
<path d="M25.2164 39.4905C25.2162 42.0619 24.1948 44.5279 22.3767 46.3462C20.5586 48.1645 18.0928 49.186 15.5216 49.1862C15.3376 49.1862 15.1551 49.1811 14.9741 49.1708C17.4458 49.0296 19.7699 47.9482 21.4698 46.1482C23.1698 44.3482 24.1168 41.9661 24.1168 39.4901C24.1168 37.0142 23.1698 34.6321 21.4698 32.8321C19.7699 31.0321 17.4458 29.9507 14.9741 29.8095C15.1556 29.7992 15.3381 29.7941 15.5216 29.7941C18.0929 29.7943 20.5588 30.8159 22.3769 32.6343C24.195 34.4528 25.2164 36.919 25.2164 39.4905Z" fill="#F68E00"/>
<g filter="url(#filter2_i)">
<path d="M47.3646 20.6715C47.3645 23.2326 46.3512 25.6897 44.5459 27.5061C42.7406 29.3226 40.29 30.351 37.7292 30.3667C35.1683 30.3824 32.7053 29.3841 30.8779 27.5899C29.0505 25.7957 28.0071 23.3513 27.9756 20.7904C27.9756 20.7508 27.9756 20.7112 27.9756 20.6715C27.9756 18.1002 28.9969 15.6342 30.8149 13.8159C32.6329 11.9976 35.0986 10.976 37.6697 10.9758H37.7893C39.7482 10.9968 41.6543 11.6134 43.2543 12.7438C44.3267 13.5015 45.2352 14.4678 45.9255 15.5848C46.8694 17.1133 47.3678 18.875 47.3646 20.6715Z" fill="#FAA300"/>
</g>
<path d="M37.522 32.965C44.4116 32.965 49.9967 27.3794 49.9967 20.4892C49.9967 13.599 44.4116 8.01343 37.522 8.01343C30.6325 8.01343 25.0474 13.599 25.0474 20.4892C25.0474 27.3794 30.6325 32.965 37.522 32.965Z" fill="white"/>
<path d="M49.9978 20.4898C50.0001 23.3603 49.0145 26.1442 47.2066 28.3737C45.3986 30.6031 42.8784 32.1424 40.0695 32.7328C37.2606 33.3231 34.3341 32.9287 31.7817 31.6156C29.2293 30.3026 27.2065 28.151 26.0533 25.5224C24.9 22.8938 24.6865 19.9483 25.4487 17.1808C26.2109 14.4133 27.9022 11.9925 30.2386 10.3251C32.575 8.65769 35.414 7.84527 38.2787 8.02436C41.1434 8.20345 43.8591 9.36313 45.9697 11.3086C47.2395 12.4771 48.2532 13.8964 48.9465 15.4767C49.6398 17.057 49.9978 18.764 49.9978 20.4898Z" fill="#F0CD00"/>
<path d="M50 20.4914C50.0004 23.7204 48.7489 26.8238 46.5087 29.1491C44.2686 31.4745 41.2142 32.8407 37.9877 32.9605C34.7569 32.8469 31.6964 31.4835 29.451 29.1576C27.2056 26.8316 25.9507 23.7248 25.9507 20.4917C25.9507 17.2587 27.2056 14.1519 29.451 11.8259C31.6964 9.49998 34.7569 8.13656 37.9877 8.02295C41.2141 8.1428 44.2683 9.5089 46.5085 11.8341C48.7486 14.1593 50.0002 17.2625 50 20.4914V20.4914Z" fill="#FFDE50"/>
<path d="M45.9697 11.3078L28.3412 28.9378C27.7408 28.2862 27.2112 27.5728 26.7612 26.8095L43.8393 9.72766C44.6036 10.1772 45.3177 10.7069 45.9697 11.3078V11.3078Z" fill="#FFEA94"/>
<path d="M49.1401 15.9329L32.9617 32.1084C31.8267 31.6611 30.7635 31.0496 29.8062 30.2934L47.3253 12.7698C48.0824 13.7293 48.6939 14.7951 49.1401 15.9329V15.9329Z" fill="#FFEA94"/>
<g filter="url(#filter3_i)">
<path d="M47.2181 20.4905C47.218 23.0516 46.2047 25.5086 44.3994 27.3251C42.5941 29.1416 40.1435 30.1699 37.5827 30.1856C35.0219 30.2013 32.5588 29.2031 30.7314 27.4089C28.904 25.6147 27.8606 23.1703 27.8291 20.6094C27.8291 20.5698 27.8291 20.5301 27.8291 20.4905C27.8291 17.9192 28.8504 15.4531 30.6684 13.6349C32.4864 11.8166 34.9521 10.795 37.5232 10.7948H37.6429C39.6017 10.8157 41.5078 11.4324 43.1078 12.5628C44.1802 13.3205 45.0888 14.2867 45.779 15.4038C46.7229 16.9323 47.2213 18.694 47.2181 20.4905Z" fill="#FAA300"/>
</g>
<path d="M40.8087 21.0229C40.328 20.9265 39.8618 21.2465 39.7675 21.7376C39.4437 23.4225 38.2156 24.7189 36.6989 25.0885V20.9329L40.3317 19.3821C40.7836 19.1891 40.997 18.6583 40.8081 18.1965C40.6194 17.7347 40.0997 17.5167 39.6478 17.7096L36.6989 18.9685V17.4418L40.3317 15.891C40.7836 15.698 40.997 15.1672 40.8081 14.7054C40.6194 14.2435 40.0997 14.0256 39.6478 14.2185L36.6989 15.4774V14.7037C36.6989 14.2031 36.3018 13.7974 35.8119 13.7974C35.3221 13.7974 34.925 14.2031 34.925 14.7037V16.2347L33.264 16.9437C32.8121 17.1367 32.5987 17.6675 32.7875 18.1294C32.9297 18.4771 33.2592 18.6865 33.6063 18.6865C33.7202 18.6865 33.8362 18.6639 33.9478 18.6162L34.925 18.1991V19.7258L33.264 20.4348C32.8121 20.6278 32.5987 21.1586 32.7875 21.6204C32.9297 21.9681 33.2592 22.1776 33.6063 22.1776C33.7202 22.1776 33.8362 22.155 33.9478 22.1073L34.925 21.6902V26.1015C34.925 26.602 35.3221 27.0078 35.8119 27.0078C37.1657 27.0078 38.4839 26.5044 39.5237 25.5905C40.5411 24.6961 41.2459 23.4519 41.5081 22.0868C41.6025 21.5956 41.2894 21.1193 40.8087 21.0229Z" fill="#F68E00"/>
<path d="M41.5426 21.0229C41.0619 20.9265 40.5957 21.2465 40.5014 21.7376C40.1776 23.4225 38.9495 24.7189 37.4328 25.0885V20.9329L41.0656 19.3821C41.5175 19.1891 41.7309 18.6583 41.542 18.1965C41.3533 17.7347 40.8336 17.5167 40.3817 17.7096L37.4328 18.9685V17.4418L41.0656 15.891C41.5175 15.698 41.7309 15.1672 41.542 14.7054C41.3533 14.2435 40.8336 14.0256 40.3817 14.2185L37.4328 15.4774V14.7037C37.4328 14.2031 37.0357 13.7974 36.5458 13.7974C36.0559 13.7974 35.6589 14.2031 35.6589 14.7037V16.2347L33.9979 16.9437C33.5459 17.1367 33.3326 17.6675 33.5214 18.1294C33.6636 18.4771 33.9931 18.6865 34.3402 18.6865C34.4541 18.6865 34.5701 18.6639 34.6817 18.6162L35.6589 18.1991V19.7258L33.9979 20.4348C33.5459 20.6278 33.3326 21.1586 33.5214 21.6204C33.6636 21.9681 33.9931 22.1776 34.3402 22.1776C34.4541 22.1776 34.5701 22.155 34.6817 22.1073L35.6589 21.6902V26.1015C35.6589 26.602 36.0559 27.0078 36.5458 27.0078C37.8996 27.0078 39.2178 26.5044 40.2576 25.5905C41.275 24.6961 41.9798 23.4519 42.242 22.0868C42.3364 21.5956 42.0233 21.1193 41.5426 21.0229Z" fill="#FFEA94"/>
<path d="M47.2164 20.4905C47.2162 23.0619 46.1948 25.5279 44.3767 27.3462C42.5586 29.1645 40.0928 30.186 37.5216 30.1862C37.3376 30.1862 37.1551 30.1811 36.9741 30.1708C39.4458 30.0296 41.7699 28.9482 43.4698 27.1482C45.1698 25.3482 46.1168 22.9661 46.1168 20.4901C46.1168 18.0142 45.1698 15.6321 43.4698 13.8321C41.7699 12.0321 39.4458 10.9507 36.9741 10.8095C37.1556 10.7992 37.3381 10.7941 37.5216 10.7941C40.0929 10.7943 42.5588 11.8159 44.3769 13.6343C46.195 15.4528 47.2164 17.919 47.2164 20.4905Z" fill="#F68E00"/>
<g filter="url(#filter4_i)">
<path d="M34.1825 24.5696C34.1824 27.1101 33.1773 29.5473 31.3867 31.3492C29.5961 33.1511 27.1654 34.1711 24.6254 34.1867C22.0854 34.2023 19.6424 33.2121 17.8299 31.4323C16.0173 29.6526 14.9824 27.2278 14.9512 24.6875C14.9512 24.6482 14.9512 24.6089 14.9512 24.5696C14.9512 22.019 15.9642 19.5728 17.7674 17.7691C19.5706 15.9655 22.0163 14.9521 24.5665 14.9519H24.6851C26.628 14.9727 28.5186 15.5844 30.1056 16.7057C31.1693 17.4572 32.0705 18.4157 32.7551 19.5238C33.6913 21.04 34.1856 22.7876 34.1825 24.5696Z" fill="#FAA300"/>
</g>
<path d="M24.4201 36.7641C31.2536 36.7641 36.7933 31.2234 36.7933 24.3887C36.7933 17.554 31.2536 12.0133 24.4201 12.0133C17.5866 12.0133 12.0469 17.554 12.0469 24.3887C12.0469 31.2234 17.5866 36.7641 24.4201 36.7641Z" fill="white"/>
<path d="M36.7945 24.3893C36.7968 27.2367 35.8192 29.9982 34.0259 32.2097C32.2327 34.4213 29.733 35.9481 26.947 36.5337C24.1609 37.1194 21.2582 36.7281 18.7265 35.4256C16.1949 34.1232 14.1886 31.9889 13.0447 29.3814C11.9008 26.7739 11.6891 23.8521 12.4451 21.1069C13.201 18.3617 14.8786 15.9604 17.196 14.3064C19.5134 12.6524 22.3293 11.8465 25.1707 12.0242C28.0121 12.2018 30.7058 13.3522 32.7992 15.2819C34.0587 16.4411 35.064 17.8489 35.7517 19.4165C36.4394 20.9842 36.7945 22.6774 36.7945 24.3893Z" fill="#F0CD00"/>
<path d="M36.7966 24.3909C36.797 27.594 35.5557 30.6724 33.3337 32.979C31.1118 35.2856 28.0822 36.6409 24.882 36.7598C21.6775 36.6471 18.6418 35.2946 16.4147 32.9874C14.1876 30.6802 12.9429 27.5983 12.9429 24.3913C12.9429 21.1842 14.1876 18.1024 16.4147 15.7952C18.6418 13.488 21.6775 12.1355 24.882 12.0228C28.0821 12.1417 31.1116 13.4968 33.3335 15.8033C35.5554 18.1098 36.7968 21.188 36.7966 24.3909V24.3909Z" fill="#FFDE50"/>
<path d="M32.7993 15.2813L15.3142 32.7694C14.7187 32.1231 14.1933 31.4154 13.7471 30.6582L30.6863 13.7139C31.4443 14.1597 32.1527 14.6852 32.7993 15.2813V15.2813Z" fill="#FFEA94"/>
<path d="M35.9438 19.8692L19.897 35.9144C18.7712 35.4708 17.7166 34.8642 16.7671 34.1141L34.1438 16.7314C34.8947 17.6832 35.5012 18.7405 35.9438 19.8692V19.8692Z" fill="#FFEA94"/>
<g filter="url(#filter5_i)">
<path d="M34.0375 24.39C34.0374 26.9305 33.0323 29.3678 31.2417 31.1696C29.4511 32.9715 27.0204 33.9916 24.4804 34.0071C21.9404 34.0227 19.4974 33.0325 17.6849 31.2528C15.8723 29.473 14.8374 27.0483 14.8062 24.508C14.8062 24.4687 14.8062 24.4293 14.8062 24.39C14.8062 21.8394 15.8192 19.3932 17.6224 17.5896C19.4256 15.7859 21.8712 14.7725 24.4214 14.7723H24.5401C26.483 14.7931 28.3736 15.4048 29.9606 16.5261C31.0243 17.2777 31.9254 18.2362 32.6101 19.3442C33.5463 20.8605 34.0406 22.608 34.0375 24.39Z" fill="#FAA300"/>
</g>
<path d="M34.036 24.39C34.0358 26.9407 33.0226 29.3869 31.2193 31.1905C29.416 32.9942 26.9702 34.0075 24.42 34.0077C24.2375 34.0077 24.0565 34.0026 23.877 33.9924C26.3285 33.8524 28.6337 32.7796 30.3198 30.9941C32.0059 29.2087 32.9453 26.8457 32.9453 24.3897C32.9453 21.9336 32.0059 19.5707 30.3198 17.7852C28.6337 15.9997 26.3285 14.927 23.877 14.7869C24.057 14.7767 24.238 14.7716 24.42 14.7716C26.9703 14.7718 29.4162 15.7853 31.2195 17.589C33.0229 19.3928 34.036 21.8392 34.036 24.39Z" fill="#F68E00"/>
<path d="M23.0968 17.5627C22.7843 17.5946 22.485 17.631 22.4366 17.6447C22.3925 17.6629 22.2825 17.6856 22.1989 17.6993C22.1152 17.713 21.9876 17.763 21.9127 17.8086C21.7939 17.8769 21.7807 17.9133 21.7587 18.1773C21.7366 18.4687 21.7322 18.4732 21.6046 18.4869C21.5342 18.496 21.3097 18.5506 21.1072 18.6144C20.35 18.8557 19.6677 19.3746 19.2583 20.0348C19.0515 20.3625 18.9722 20.663 19.0118 20.9362C19.0471 21.1866 19.1043 21.2002 19.0823 20.9589C19.0515 20.6494 19.2187 20.2624 19.6017 19.7297C19.7162 19.575 20.262 19.1243 20.4469 19.0423C20.4997 19.015 20.6186 18.9513 20.7022 18.9057C20.9399 18.7737 21.3625 18.6371 21.5826 18.6235C21.7719 18.6098 21.7807 18.6144 21.7939 18.7418C21.8511 19.2563 21.5782 19.5112 20.4293 19.9983C19.9803 20.1896 19.7029 20.3899 19.6501 20.5583C19.6281 20.6403 19.6017 20.8679 19.5973 21.0682C19.5885 21.2685 19.5621 21.4825 19.5313 21.5508C19.4652 21.6873 19.298 21.7738 19.0999 21.7738C18.8754 21.7738 18.6773 21.8649 18.6289 21.9878C18.5716 22.1517 18.5804 22.4886 18.6509 22.6297C18.7389 22.8073 18.9062 22.9575 19.1703 23.0941C19.6897 23.3581 19.9407 23.5266 20.1519 23.7314C20.4997 24.0774 20.6802 24.1503 21.226 24.1639C21.521 24.173 21.7499 24.2004 21.8467 24.2459C22.0624 24.3415 22.3617 24.5737 22.4189 24.692C22.529 24.9014 22.2825 25.1883 22.0536 25.1154C21.992 25.0972 21.9744 25.1063 21.9876 25.1473C22.0228 25.2565 22.3485 25.2156 22.5422 25.0881C22.7579 24.9379 22.8503 24.7284 22.7843 24.5463C22.7139 24.3597 22.7755 24.3825 22.9824 24.6146C23.4402 25.1291 23.7351 25.6526 23.9068 26.2536C23.9816 26.5039 23.9948 26.6769 23.9904 27.1413C23.9816 27.6922 23.9772 27.7286 23.8672 27.8788C23.7527 28.0336 23.6075 28.1292 23.2861 28.2567C23.1981 28.2931 23.1101 28.3614 23.0968 28.4069C23.022 28.6436 22.912 28.8667 22.7975 29.0033C22.7271 29.0852 22.6831 29.1626 22.6963 29.1763C22.7095 29.19 22.9648 29.2309 23.2641 29.2673C23.9772 29.3493 25.2098 29.3493 25.8965 29.2628C26.2002 29.2264 26.4511 29.1945 26.4599 29.1945C26.4687 29.1945 26.4027 29.0989 26.3191 28.9851C26.2354 28.8713 26.1342 28.6801 26.0946 28.5617C26.0241 28.3386 25.9757 28.2931 25.6632 28.1838C24.7168 27.8561 25.0293 25.7482 26.1958 24.5828L26.3719 24.4052L26.3499 24.6055C26.3323 24.774 26.3455 24.8286 26.4423 24.947C26.5656 25.0972 26.8033 25.2338 26.9398 25.2338C26.9882 25.2338 27.063 25.2019 27.1114 25.1655C27.1907 25.0972 27.1863 25.0927 27.0542 25.12C26.9398 25.1427 26.8913 25.1291 26.7989 25.0335C26.5744 24.8013 26.6932 24.5737 27.1731 24.3051C27.3843 24.1867 27.4504 24.173 27.8994 24.1594C28.4716 24.1457 28.5817 24.1047 28.9118 23.777C29.1231 23.5675 29.7174 23.1851 30.1048 23.0076C30.206 22.9621 30.3425 22.8482 30.4085 22.7572C30.5097 22.6161 30.5317 22.5478 30.5317 22.2974C30.5361 21.9059 30.4569 21.8148 30.0915 21.7829C29.6249 21.742 29.5061 21.5644 29.5061 20.9271C29.5061 20.5355 29.5061 20.531 29.352 20.3808C29.2068 20.2396 28.7534 19.9892 28.5289 19.9301C28.3132 19.8663 27.5516 19.4247 27.4724 19.3109C27.3667 19.1652 27.3007 18.883 27.3359 18.71C27.3623 18.5871 27.3711 18.5825 27.5428 18.6098C28.3396 18.7418 29.2772 19.3428 29.7262 20.0211C29.8406 20.1896 30.0299 20.5856 30.0343 20.6585C30.0343 20.6721 30.0343 20.7905 30.0343 20.918C30.0343 21.091 30.0475 21.141 30.0783 21.091C30.1004 21.0545 30.1224 20.9134 30.1224 20.7814C30.1224 20.3944 29.9199 20.0166 29.4401 19.5203C29.0923 19.1607 28.9867 19.0787 28.5817 18.8739C28.0755 18.6144 27.7541 18.496 27.5648 18.496C27.4108 18.496 27.3711 18.4323 27.3888 18.2137C27.4152 17.8495 27.3271 17.7767 26.7329 17.6629C25.8569 17.4944 24.2678 17.4489 23.0968 17.5627ZM22.639 17.7448C22.5906 17.804 22.595 17.8268 22.6655 17.8814C22.7095 17.9178 22.7843 17.9497 22.8283 17.9542C22.8679 17.9588 22.9164 17.9634 22.9384 17.9679C23.2861 18.0544 23.9024 18.109 24.5759 18.109C25.289 18.1045 25.5179 18.0863 26.1386 17.9679C26.2883 17.9406 26.4687 17.8495 26.4687 17.804C26.4687 17.7813 26.4291 17.7494 26.3807 17.7357C26.2795 17.7084 26.2619 17.631 26.3543 17.631C26.4775 17.631 27.0146 17.7721 27.1378 17.8404C27.7937 18.191 25.7908 18.5233 23.7439 18.4004C22.3309 18.3185 21.6574 18.1136 21.9523 17.8632C22.014 17.8086 22.6479 17.631 22.6787 17.6583C22.6875 17.6674 22.6699 17.7084 22.639 17.7448ZM24.9061 19.3155C25.0073 19.3428 24.9633 19.3519 24.7256 19.3564C24.1797 19.3655 23.7395 19.5522 23.3302 19.9483C23.1321 20.1395 23.1145 20.1486 23.044 20.0712C22.9736 19.9938 22.978 19.9801 23.1629 19.8117C23.5943 19.4111 24.3998 19.1834 24.9061 19.3155ZM25.2142 19.5659C25.5663 19.6615 25.8481 19.8299 26.099 20.0939C26.2751 20.2761 26.3059 20.3352 26.2663 20.3944C26.187 20.5264 26.1386 20.5082 25.9845 20.2897C25.9009 20.1759 25.716 20.0029 25.5707 19.9027C25.223 19.6615 24.9149 19.575 24.4879 19.5977C24.1225 19.6114 24.0829 19.6023 24.3206 19.5431C24.5627 19.4839 24.9369 19.493 25.2142 19.5659ZM24.5935 21.7738C24.6155 21.7738 24.9501 21.5326 25.3418 21.2412C25.7292 20.9498 26.121 20.6585 26.2046 20.5947C26.3235 20.5082 26.3411 20.4991 26.2883 20.5674C24.9457 22.2974 24.5583 22.7754 24.5363 22.7435C24.5187 22.7253 24.0697 22.0607 23.5414 21.2731C23.0132 20.4855 22.529 19.7662 22.4674 19.6797C22.4101 19.5932 22.8547 20.0257 23.4578 20.6448C24.0609 21.2685 24.5715 21.7738 24.5935 21.7738ZM24.6199 19.7252C24.6199 19.748 24.6023 19.7707 24.5759 19.7707C24.5539 19.7707 24.5319 19.748 24.5319 19.7252C24.5319 19.6979 24.5539 19.6797 24.5759 19.6797C24.6023 19.6797 24.6199 19.6979 24.6199 19.7252ZM22.9076 20.5629C22.7931 20.7085 22.7183 21.1592 22.7359 21.6145C22.7491 22.0424 22.7623 22.1062 22.9208 22.4294C23.3037 23.2352 24.0565 23.6905 24.9061 23.6313L25.2142 23.6085L24.9941 23.6632C24.6727 23.7496 24.413 23.7451 24.0257 23.6404C23.6075 23.5311 23.3566 23.3854 23.022 23.0531C22.3705 22.4158 22.2033 21.4187 22.595 20.5538L22.7315 20.2487L22.8415 20.3808C22.9164 20.4673 22.9384 20.5264 22.9076 20.5629ZM26.57 20.8679C26.8165 21.5917 26.6272 22.3839 26.0814 22.9211C25.6544 23.3399 25.157 23.5357 24.6199 23.4902C24.3294 23.4628 23.9288 23.349 23.8496 23.2671C23.8232 23.2443 23.8584 23.2443 23.9288 23.2716C24.3646 23.4446 24.9457 23.4037 25.3771 23.1806C26.1386 22.7845 26.5216 21.9104 26.3367 20.9999C26.2927 20.7814 26.2927 20.7131 26.3367 20.6585C26.4247 20.5492 26.4819 20.5993 26.57 20.8679ZM24.9765 20.7677C25.0689 20.8679 25.1041 20.9453 25.1041 21.0682C25.1041 21.2822 24.9105 21.5007 24.7168 21.5007C24.5627 21.5007 24.3646 21.3505 24.3074 21.1911C24.2502 21.0318 24.3338 20.7859 24.4791 20.704C24.6683 20.5993 24.8312 20.622 24.9765 20.7677ZM22.0008 21.1001C21.9832 21.2093 21.9215 21.4051 21.8643 21.5417C21.7455 21.8194 21.7234 22.3156 21.8071 22.871C21.8643 23.2671 21.9655 23.5038 22.2209 23.8635C22.3309 24.0137 22.4057 24.1412 22.3925 24.1412C22.3793 24.1412 22.3133 24.1093 22.2429 24.0729C22.1724 24.0365 21.9832 24.0046 21.7939 24C21.4725 23.9955 21.3185 23.95 21.3185 23.8635C21.3185 23.7724 20.8254 23.1806 20.6009 23.0076C20.3412 22.8073 19.9935 22.6115 19.813 22.5751C19.7426 22.5614 19.6413 22.5387 19.5797 22.525C19.3992 22.484 19.452 22.434 19.7338 22.3702C20.0727 22.2928 20.4117 21.9878 20.4601 21.7147C20.4777 21.6236 20.5085 21.5462 20.5305 21.5462C20.5877 21.5462 20.5789 21.6919 20.5041 21.9104C20.4689 22.0151 20.4469 22.1198 20.4601 22.138C20.4865 22.1836 20.9355 22.0652 21.1424 21.9559C21.4021 21.8148 21.9347 21.1456 21.9347 20.9635C21.9347 20.9316 21.9567 20.9089 21.9832 20.9089C22.014 20.9089 22.0184 20.9726 22.0008 21.1001ZM27.2787 21.1592C27.4416 21.4825 27.7541 21.8239 28.0094 21.9605C28.2163 22.0698 28.6697 22.1972 28.6697 22.1472C28.6653 22.1062 28.5861 21.7238 28.5553 21.6236C28.5421 21.5826 28.5509 21.5462 28.5773 21.5462C28.6037 21.5462 28.6433 21.6282 28.6697 21.7283C28.7578 22.0698 29.0483 22.311 29.4753 22.3884C29.6954 22.434 29.6602 22.5159 29.4004 22.5569C28.9646 22.6206 28.2603 23.1533 27.9126 23.6859C27.7145 23.9864 27.6793 24.0046 27.3183 24.0046C27.1114 24.0046 26.9442 24.0319 26.8649 24.0729C26.7153 24.1548 26.6888 24.1047 26.8209 23.9818C26.975 23.8407 27.1775 23.4674 27.2699 23.1715C27.3227 22.9985 27.3667 22.6935 27.3799 22.3839C27.4064 21.8922 27.402 21.8649 27.2743 21.5417C27.1334 21.1866 27.0674 20.9089 27.1202 20.9089C27.1378 20.9089 27.2083 21.0227 27.2787 21.1592ZM22.9252 21.4096C22.9384 21.4324 22.9208 21.4552 22.8856 21.4552C22.8459 21.4552 22.8151 21.4324 22.8151 21.4096C22.8151 21.3823 22.8327 21.3641 22.8547 21.3641C22.8812 21.3641 22.912 21.3823 22.9252 21.4096ZM26.2927 21.4096C26.2927 21.4324 26.2751 21.4552 26.2486 21.4552C26.2266 21.4552 26.2046 21.4324 26.2046 21.4096C26.2046 21.3823 26.2266 21.3641 26.2486 21.3641C26.2751 21.3641 26.2927 21.3823 26.2927 21.4096ZM24.6199 23.258C24.6199 23.2944 24.5979 23.3126 24.5759 23.2989C24.5495 23.2807 24.5407 23.2489 24.5539 23.2261C24.5935 23.1624 24.6199 23.176 24.6199 23.258Z" fill="black"/>
<path d="M18.391 21.0182C18.1313 21.132 17.8672 21.4598 17.7131 21.8422C17.6339 22.0425 17.5458 22.2292 17.5238 22.261C17.4666 22.3339 17.4798 22.3566 17.942 22.8529C18.7343 23.7042 19.5531 24.1549 20.8033 24.4371C21.0058 24.4827 21.195 24.5555 21.2655 24.6192C21.4371 24.7649 21.7541 24.9243 21.8377 24.9015C21.8861 24.8924 21.8377 24.8514 21.7013 24.7877C21.5868 24.7331 21.4019 24.6192 21.2875 24.5282C21.1774 24.4417 21.0322 24.3689 20.9705 24.3689C20.9089 24.3689 20.7813 24.3461 20.6844 24.3188C20.592 24.2915 20.4775 24.2641 20.4291 24.255C20.0681 24.1822 19.355 23.8544 18.8972 23.5448C18.6067 23.3536 18.1929 22.9621 17.8804 22.5843L17.6471 22.3111L17.7219 22.17C17.7571 22.088 17.8496 21.8877 17.92 21.7238C18.0653 21.396 18.369 21.0728 18.6067 21.0045C18.7299 20.9681 18.7343 20.9635 18.6331 20.959C18.5715 20.959 18.4614 20.9863 18.391 21.0182Z" fill="black"/>
<path d="M30.5493 21.091C30.6726 21.1638 30.8266 21.2959 30.8883 21.3778C31.0159 21.5463 31.3108 22.1973 31.3108 22.302C31.3108 22.343 31.2536 22.4386 31.1832 22.516C31.1172 22.5979 30.9719 22.7618 30.8662 22.8802C30.382 23.4447 29.308 24.0775 28.542 24.255C28.5024 24.2641 28.3219 24.3051 28.1414 24.3461C27.8905 24.4007 27.7761 24.4553 27.6704 24.56C27.5956 24.6374 27.4239 24.7376 27.2963 24.7831C27.1246 24.8423 27.085 24.8696 27.1422 24.8924C27.2434 24.9334 27.4503 24.8423 27.6572 24.6648C27.7849 24.5555 27.9213 24.5009 28.2779 24.4144C28.8722 24.2778 29.2243 24.1503 29.6733 23.9181C30.2676 23.6086 30.5581 23.3764 31.1744 22.7163L31.5001 22.3703L31.3152 21.9196C31.1216 21.4507 30.9147 21.1821 30.6197 21.0273C30.3688 20.8998 30.3116 20.9499 30.5493 21.091Z" fill="black"/>
<path d="M22.1988 29.4813C22.0888 29.5314 21.8819 29.586 21.7366 29.5997C21.5121 29.6224 21.4725 29.6406 21.4593 29.7226C21.4417 29.8592 21.5209 29.9092 21.9171 30.014C23.2729 30.3691 26.4203 30.3235 27.4724 29.932C27.6352 29.8728 27.6616 29.8455 27.6484 29.7454C27.6352 29.6361 27.6132 29.6224 27.3931 29.5997C27.2611 29.586 27.0498 29.5314 26.9221 29.4813C26.7945 29.4312 26.6844 29.3948 26.6756 29.4085C26.6624 29.4176 26.4687 29.4722 26.2442 29.5223C25.8788 29.6042 25.6852 29.6179 24.5539 29.6133C23.4402 29.6133 23.2245 29.6042 22.8723 29.5223C22.6522 29.4722 22.4541 29.4221 22.4321 29.4085C22.4145 29.3994 22.3089 29.4312 22.1988 29.4813Z" fill="black"/>
<path d="M21.0981 30.2416C21.0981 30.3918 21.1202 30.4283 21.2434 30.5057C22.2382 31.143 26.6006 31.1703 27.8199 30.5512C28.0004 30.4601 28.0532 30.3691 28.0532 30.1597C28.0532 30.0549 28.0092 30.0322 27.9432 30.1005C27.9168 30.1232 27.7803 30.187 27.635 30.2371C26.2088 30.7287 22.4495 30.6832 21.3094 30.1597L21.0981 30.0641V30.2416Z" fill="black"/>
<g filter="url(#filter6_i)">
<path d="M46.1825 39.5696C46.1824 42.1101 45.1773 44.5473 43.3867 46.3492C41.5961 48.1511 39.1654 49.1711 36.6254 49.1867C34.0854 49.2023 31.6424 48.2121 29.8299 46.4323C28.0173 44.6526 26.9824 42.2278 26.9512 39.6875C26.9512 39.6482 26.9512 39.6089 26.9512 39.5696C26.9512 37.019 27.9642 34.5728 29.7674 32.7691C31.5706 30.9655 34.0163 29.9521 36.5665 29.9519H36.6851C38.628 29.9727 40.5186 30.5844 42.1056 31.7057C43.1693 32.4572 44.0705 33.4157 44.7551 34.5238C45.6913 36.04 46.1856 37.7876 46.1825 39.5696Z" fill="#FAA300"/>
</g>
<path d="M36.4201 51.7641C43.2536 51.7641 48.7933 46.2234 48.7933 39.3887C48.7933 32.554 43.2536 27.0133 36.4201 27.0133C29.5866 27.0133 24.0469 32.554 24.0469 39.3887C24.0469 46.2234 29.5866 51.7641 36.4201 51.7641Z" fill="white"/>
<path d="M48.7945 39.3893C48.7968 42.2367 47.8192 44.9982 46.0259 47.2097C44.2327 49.4213 41.733 50.9481 38.947 51.5337C36.1609 52.1194 33.2582 51.7281 30.7265 50.4256C28.1949 49.1232 26.1886 46.9889 25.0447 44.3814C23.9008 41.7739 23.6891 38.8521 24.4451 36.1069C25.201 33.3617 26.8786 30.9604 29.196 29.3064C31.5134 27.6524 34.3293 26.8465 37.1707 27.0242C40.0121 27.2018 42.7058 28.3522 44.7992 30.2819C46.0587 31.4411 47.064 32.8489 47.7517 34.4165C48.4394 35.9842 48.7945 37.6774 48.7945 39.3893Z" fill="#F0CD00"/>
<path d="M48.7966 39.3909C48.797 42.594 47.5557 45.6724 45.3337 47.979C43.1118 50.2856 40.0822 51.6409 36.882 51.7598C33.6775 51.6471 30.6418 50.2946 28.4147 47.9874C26.1876 45.6802 24.9429 42.5983 24.9429 39.3913C24.9429 36.1842 26.1876 33.1024 28.4147 30.7952C30.6418 28.488 33.6775 27.1355 36.882 27.0228C40.0821 27.1417 43.1116 28.4968 45.3335 30.8033C47.5554 33.1098 48.7968 36.188 48.7966 39.3909V39.3909Z" fill="#FFDE50"/>
<path d="M44.7993 30.2813L27.3142 47.7694C26.7187 47.1231 26.1933 46.4154 25.7471 45.6582L42.6863 28.7139C43.4443 29.1597 44.1527 29.6852 44.7993 30.2813V30.2813Z" fill="#FFEA94"/>
<path d="M47.9438 34.8692L31.897 50.9144C30.7712 50.4708 29.7166 49.8642 28.7671 49.1141L46.1438 31.7314C46.8947 32.6832 47.5012 33.7405 47.9438 34.8692V34.8692Z" fill="#FFEA94"/>
<g filter="url(#filter7_i)">
<path d="M46.0375 39.39C46.0374 41.9305 45.0323 44.3678 43.2417 46.1696C41.4511 47.9715 39.0204 48.9916 36.4804 49.0071C33.9404 49.0227 31.4974 48.0325 29.6849 46.2528C27.8723 44.473 26.8374 42.0483 26.8062 39.508C26.8062 39.4687 26.8062 39.4293 26.8062 39.39C26.8062 36.8394 27.8192 34.3932 29.6224 32.5896C31.4256 30.7859 33.8712 29.7725 36.4214 29.7723H36.5401C38.483 29.7931 40.3736 30.4048 41.9606 31.5261C43.0243 32.2777 43.9254 33.2362 44.6101 34.3442C45.5463 35.8605 46.0406 37.608 46.0375 39.39Z" fill="#FAA300"/>
</g>
<path d="M46.036 39.39C46.0358 41.9407 45.0226 44.3869 43.2193 46.1905C41.416 47.9942 38.9702 49.0075 36.42 49.0077C36.2375 49.0077 36.0565 49.0026 35.877 48.9924C38.3285 48.8524 40.6337 47.7796 42.3198 45.9941C44.0059 44.2087 44.9453 41.8457 44.9453 39.3897C44.9453 36.9336 44.0059 34.5707 42.3198 32.7852C40.6337 30.9997 38.3285 29.927 35.877 29.7869C36.057 29.7767 36.238 29.7716 36.42 29.7716C38.9703 29.7718 41.4162 30.7853 43.2195 32.589C45.0229 34.3928 46.036 36.8392 46.036 39.39Z" fill="#F68E00"/>
<path d="M35.0968 32.5627C34.7843 32.5946 34.485 32.631 34.4366 32.6447C34.3925 32.6629 34.2825 32.6856 34.1989 32.6993C34.1152 32.713 33.9876 32.763 33.9127 32.8086C33.7939 32.8769 33.7807 32.9133 33.7587 33.1773C33.7366 33.4687 33.7322 33.4732 33.6046 33.4869C33.5342 33.496 33.3097 33.5506 33.1072 33.6144C32.35 33.8557 31.6677 34.3746 31.2583 35.0348C31.0515 35.3625 30.9722 35.663 31.0118 35.9362C31.0471 36.1866 31.1043 36.2002 31.0823 35.9589C31.0515 35.6494 31.2187 35.2624 31.6017 34.7297C31.7162 34.575 32.262 34.1243 32.4469 34.0423C32.4997 34.015 32.6186 33.9513 32.7022 33.9057C32.9399 33.7737 33.3625 33.6371 33.5826 33.6235C33.7719 33.6098 33.7807 33.6144 33.7939 33.7418C33.8511 34.2563 33.5782 34.5112 32.4293 34.9983C31.9803 35.1896 31.7029 35.3899 31.6501 35.5583C31.6281 35.6403 31.6017 35.8679 31.5973 36.0682C31.5885 36.2685 31.5621 36.4825 31.5313 36.5508C31.4652 36.6873 31.298 36.7738 31.0999 36.7738C30.8754 36.7738 30.6773 36.8649 30.6289 36.9878C30.5716 37.1517 30.5804 37.4886 30.6509 37.6297C30.7389 37.8073 30.9062 37.9575 31.1703 38.0941C31.6897 38.3581 31.9407 38.5266 32.1519 38.7314C32.4997 39.0774 32.6802 39.1503 33.226 39.1639C33.521 39.173 33.7499 39.2004 33.8467 39.2459C34.0624 39.3415 34.3617 39.5737 34.4189 39.692C34.529 39.9014 34.2825 40.1883 34.0536 40.1154C33.992 40.0972 33.9744 40.1063 33.9876 40.1473C34.0228 40.2565 34.3485 40.2156 34.5422 40.0881C34.7579 39.9379 34.8503 39.7284 34.7843 39.5463C34.7139 39.3597 34.7755 39.3825 34.9824 39.6146C35.4402 40.1291 35.7351 40.6526 35.9068 41.2536C35.9816 41.5039 35.9948 41.6769 35.9904 42.1413C35.9816 42.6922 35.9772 42.7286 35.8672 42.8788C35.7527 43.0336 35.6075 43.1292 35.2861 43.2567C35.1981 43.2931 35.1101 43.3614 35.0968 43.4069C35.022 43.6436 34.912 43.8667 34.7975 44.0033C34.7271 44.0852 34.6831 44.1626 34.6963 44.1763C34.7095 44.19 34.9648 44.2309 35.2641 44.2673C35.9772 44.3493 37.2098 44.3493 37.8965 44.2628C38.2002 44.2264 38.4511 44.1945 38.4599 44.1945C38.4687 44.1945 38.4027 44.0989 38.3191 43.9851C38.2354 43.8713 38.1342 43.6801 38.0946 43.5617C38.0241 43.3386 37.9757 43.2931 37.6632 43.1838C36.7168 42.8561 37.0293 40.7482 38.1958 39.5828L38.3719 39.4052L38.3499 39.6055C38.3323 39.774 38.3455 39.8286 38.4423 39.947C38.5656 40.0972 38.8033 40.2338 38.9398 40.2338C38.9882 40.2338 39.063 40.2019 39.1114 40.1655C39.1907 40.0972 39.1863 40.0927 39.0542 40.12C38.9398 40.1427 38.8913 40.1291 38.7989 40.0335C38.5744 39.8013 38.6932 39.5737 39.1731 39.3051C39.3843 39.1867 39.4504 39.173 39.8994 39.1594C40.4716 39.1457 40.5817 39.1047 40.9118 38.777C41.1231 38.5675 41.7174 38.1851 42.1048 38.0076C42.206 37.9621 42.3425 37.8482 42.4085 37.7572C42.5097 37.6161 42.5317 37.5478 42.5317 37.2974C42.5361 36.9059 42.4569 36.8148 42.0915 36.7829C41.6249 36.742 41.5061 36.5644 41.5061 35.9271C41.5061 35.5355 41.5061 35.531 41.352 35.3808C41.2068 35.2396 40.7534 34.9892 40.5289 34.9301C40.3132 34.8663 39.5516 34.4247 39.4724 34.3109C39.3667 34.1652 39.3007 33.883 39.3359 33.71C39.3623 33.5871 39.3711 33.5825 39.5428 33.6098C40.3396 33.7418 41.2772 34.3428 41.7262 35.0211C41.8406 35.1896 42.0299 35.5856 42.0343 35.6585C42.0343 35.6721 42.0343 35.7905 42.0343 35.918C42.0343 36.091 42.0475 36.141 42.0783 36.091C42.1004 36.0545 42.1224 35.9134 42.1224 35.7814C42.1224 35.3944 41.9199 35.0166 41.4401 34.5203C41.0923 34.1607 40.9867 34.0787 40.5817 33.8739C40.0755 33.6144 39.7541 33.496 39.5648 33.496C39.4108 33.496 39.3711 33.4323 39.3888 33.2137C39.4152 32.8495 39.3271 32.7767 38.7329 32.6629C37.8569 32.4944 36.2678 32.4489 35.0968 32.5627ZM34.639 32.7448C34.5906 32.804 34.595 32.8268 34.6655 32.8814C34.7095 32.9178 34.7843 32.9497 34.8283 32.9542C34.8679 32.9588 34.9164 32.9634 34.9384 32.9679C35.2861 33.0544 35.9024 33.109 36.5759 33.109C37.289 33.1045 37.5179 33.0863 38.1386 32.9679C38.2883 32.9406 38.4687 32.8495 38.4687 32.804C38.4687 32.7813 38.4291 32.7494 38.3807 32.7357C38.2795 32.7084 38.2619 32.631 38.3543 32.631C38.4775 32.631 39.0146 32.7721 39.1378 32.8404C39.7937 33.191 37.7908 33.5233 35.7439 33.4004C34.3309 33.3185 33.6574 33.1136 33.9523 32.8632C34.014 32.8086 34.6479 32.631 34.6787 32.6583C34.6875 32.6674 34.6699 32.7084 34.639 32.7448ZM36.9061 34.3155C37.0073 34.3428 36.9633 34.3519 36.7256 34.3564C36.1797 34.3655 35.7395 34.5522 35.3302 34.9483C35.1321 35.1395 35.1145 35.1486 35.044 35.0712C34.9736 34.9938 34.978 34.9801 35.1629 34.8117C35.5943 34.4111 36.3998 34.1834 36.9061 34.3155ZM37.2142 34.5659C37.5663 34.6615 37.8481 34.8299 38.099 35.0939C38.2751 35.2761 38.3059 35.3352 38.2663 35.3944C38.187 35.5264 38.1386 35.5082 37.9845 35.2897C37.9009 35.1759 37.716 35.0029 37.5707 34.9027C37.223 34.6615 36.9149 34.575 36.4879 34.5977C36.1225 34.6114 36.0829 34.6023 36.3206 34.5431C36.5627 34.4839 36.9369 34.493 37.2142 34.5659ZM36.5935 36.7738C36.6155 36.7738 36.9501 36.5326 37.3418 36.2412C37.7292 35.9498 38.121 35.6585 38.2046 35.5947C38.3235 35.5082 38.3411 35.4991 38.2883 35.5674C36.9457 37.2974 36.5583 37.7754 36.5363 37.7435C36.5187 37.7253 36.0697 37.0607 35.5414 36.2731C35.0132 35.4855 34.529 34.7662 34.4674 34.6797C34.4101 34.5932 34.8547 35.0257 35.4578 35.6448C36.0609 36.2685 36.5715 36.7738 36.5935 36.7738ZM36.6199 34.7252C36.6199 34.748 36.6023 34.7707 36.5759 34.7707C36.5539 34.7707 36.5319 34.748 36.5319 34.7252C36.5319 34.6979 36.5539 34.6797 36.5759 34.6797C36.6023 34.6797 36.6199 34.6979 36.6199 34.7252ZM34.9076 35.5629C34.7931 35.7085 34.7183 36.1592 34.7359 36.6145C34.7491 37.0424 34.7623 37.1062 34.9208 37.4294C35.3037 38.2352 36.0565 38.6905 36.9061 38.6313L37.2142 38.6085L36.9941 38.6632C36.6727 38.7496 36.413 38.7451 36.0257 38.6404C35.6075 38.5311 35.3566 38.3854 35.022 38.0531C34.3705 37.4158 34.2033 36.4187 34.595 35.5538L34.7315 35.2487L34.8415 35.3808C34.9164 35.4673 34.9384 35.5264 34.9076 35.5629ZM38.57 35.8679C38.8165 36.5917 38.6272 37.3839 38.0814 37.9211C37.6544 38.3399 37.157 38.5357 36.6199 38.4902C36.3294 38.4628 35.9288 38.349 35.8496 38.2671C35.8232 38.2443 35.8584 38.2443 35.9288 38.2716C36.3646 38.4446 36.9457 38.4037 37.3771 38.1806C38.1386 37.7845 38.5216 36.9104 38.3367 35.9999C38.2927 35.7814 38.2927 35.7131 38.3367 35.6585C38.4247 35.5492 38.4819 35.5993 38.57 35.8679ZM36.9765 35.7677C37.0689 35.8679 37.1041 35.9453 37.1041 36.0682C37.1041 36.2822 36.9105 36.5007 36.7168 36.5007C36.5627 36.5007 36.3646 36.3505 36.3074 36.1911C36.2502 36.0318 36.3338 35.7859 36.4791 35.704C36.6683 35.5993 36.8312 35.622 36.9765 35.7677ZM34.0008 36.1001C33.9832 36.2093 33.9215 36.4051 33.8643 36.5417C33.7455 36.8194 33.7234 37.3156 33.8071 37.871C33.8643 38.2671 33.9655 38.5038 34.2209 38.8635C34.3309 39.0137 34.4057 39.1412 34.3925 39.1412C34.3793 39.1412 34.3133 39.1093 34.2429 39.0729C34.1724 39.0365 33.9832 39.0046 33.7939 39C33.4725 38.9955 33.3185 38.95 33.3185 38.8635C33.3185 38.7724 32.8254 38.1806 32.6009 38.0076C32.3412 37.8073 31.9935 37.6115 31.813 37.5751C31.7426 37.5614 31.6413 37.5387 31.5797 37.525C31.3992 37.484 31.452 37.434 31.7338 37.3702C32.0727 37.2928 32.4117 36.9878 32.4601 36.7147C32.4777 36.6236 32.5085 36.5462 32.5305 36.5462C32.5877 36.5462 32.5789 36.6919 32.5041 36.9104C32.4689 37.0151 32.4469 37.1198 32.4601 37.138C32.4865 37.1836 32.9355 37.0652 33.1424 36.9559C33.4021 36.8148 33.9347 36.1456 33.9347 35.9635C33.9347 35.9316 33.9567 35.9089 33.9832 35.9089C34.014 35.9089 34.0184 35.9726 34.0008 36.1001ZM39.2787 36.1592C39.4416 36.4825 39.7541 36.8239 40.0094 36.9605C40.2163 37.0698 40.6697 37.1972 40.6697 37.1472C40.6653 37.1062 40.5861 36.7238 40.5553 36.6236C40.5421 36.5826 40.5509 36.5462 40.5773 36.5462C40.6037 36.5462 40.6433 36.6282 40.6697 36.7283C40.7578 37.0698 41.0483 37.311 41.4753 37.3884C41.6954 37.434 41.6602 37.5159 41.4004 37.5569C40.9646 37.6206 40.2603 38.1533 39.9126 38.6859C39.7145 38.9864 39.6793 39.0046 39.3183 39.0046C39.1114 39.0046 38.9442 39.0319 38.8649 39.0729C38.7153 39.1548 38.6888 39.1047 38.8209 38.9818C38.975 38.8407 39.1775 38.4674 39.2699 38.1715C39.3227 37.9985 39.3667 37.6935 39.3799 37.3839C39.4064 36.8922 39.402 36.8649 39.2743 36.5417C39.1334 36.1866 39.0674 35.9089 39.1202 35.9089C39.1378 35.9089 39.2083 36.0227 39.2787 36.1592ZM34.9252 36.4096C34.9384 36.4324 34.9208 36.4552 34.8856 36.4552C34.8459 36.4552 34.8151 36.4324 34.8151 36.4096C34.8151 36.3823 34.8327 36.3641 34.8547 36.3641C34.8812 36.3641 34.912 36.3823 34.9252 36.4096ZM38.2927 36.4096C38.2927 36.4324 38.2751 36.4552 38.2486 36.4552C38.2266 36.4552 38.2046 36.4324 38.2046 36.4096C38.2046 36.3823 38.2266 36.3641 38.2486 36.3641C38.2751 36.3641 38.2927 36.3823 38.2927 36.4096ZM36.6199 38.258C36.6199 38.2944 36.5979 38.3126 36.5759 38.2989C36.5495 38.2807 36.5407 38.2489 36.5539 38.2261C36.5935 38.1624 36.6199 38.176 36.6199 38.258Z" fill="black"/>
<path d="M30.391 36.0182C30.1313 36.132 29.8672 36.4598 29.7131 36.8422C29.6339 37.0425 29.5458 37.2292 29.5238 37.261C29.4666 37.3339 29.4798 37.3566 29.942 37.8529C30.7343 38.7042 31.5531 39.1549 32.8033 39.4371C33.0058 39.4827 33.195 39.5555 33.2655 39.6192C33.4371 39.7649 33.7541 39.9243 33.8377 39.9015C33.8861 39.8924 33.8377 39.8514 33.7013 39.7877C33.5868 39.7331 33.4019 39.6192 33.2875 39.5282C33.1774 39.4417 33.0322 39.3689 32.9705 39.3689C32.9089 39.3689 32.7813 39.3461 32.6844 39.3188C32.592 39.2915 32.4775 39.2641 32.4291 39.255C32.0681 39.1822 31.355 38.8544 30.8972 38.5448C30.6067 38.3536 30.1929 37.9621 29.8804 37.5843L29.6471 37.3111L29.7219 37.17C29.7571 37.088 29.8496 36.8877 29.92 36.7238C30.0653 36.396 30.369 36.0728 30.6067 36.0045C30.7299 35.9681 30.7343 35.9635 30.6331 35.959C30.5715 35.959 30.4614 35.9863 30.391 36.0182Z" fill="black"/>
<path d="M42.5493 36.091C42.6726 36.1638 42.8266 36.2959 42.8883 36.3778C43.0159 36.5463 43.3108 37.1973 43.3108 37.302C43.3108 37.343 43.2536 37.4386 43.1832 37.516C43.1172 37.5979 42.9719 37.7618 42.8662 37.8802C42.382 38.4447 41.308 39.0775 40.542 39.255C40.5024 39.2641 40.3219 39.3051 40.1414 39.3461C39.8905 39.4007 39.7761 39.4553 39.6704 39.56C39.5956 39.6374 39.4239 39.7376 39.2963 39.7831C39.1246 39.8423 39.085 39.8696 39.1422 39.8924C39.2434 39.9334 39.4503 39.8423 39.6572 39.6648C39.7849 39.5555 39.9213 39.5009 40.2779 39.4144C40.8722 39.2778 41.2243 39.1503 41.6733 38.9181C42.2676 38.6086 42.5581 38.3764 43.1744 37.7163L43.5001 37.3703L43.3152 36.9196C43.1216 36.4507 42.9147 36.1821 42.6197 36.0273C42.3688 35.8998 42.3116 35.9499 42.5493 36.091Z" fill="black"/>
<path d="M34.1988 44.4813C34.0888 44.5314 33.8819 44.586 33.7366 44.5997C33.5121 44.6224 33.4725 44.6406 33.4593 44.7226C33.4417 44.8592 33.5209 44.9092 33.9171 45.014C35.2729 45.3691 38.4203 45.3235 39.4724 44.932C39.6352 44.8728 39.6616 44.8455 39.6484 44.7454C39.6352 44.6361 39.6132 44.6224 39.3931 44.5997C39.2611 44.586 39.0498 44.5314 38.9221 44.4813C38.7945 44.4312 38.6844 44.3948 38.6756 44.4085C38.6624 44.4176 38.4687 44.4722 38.2442 44.5223C37.8788 44.6042 37.6852 44.6179 36.5539 44.6133C35.4402 44.6133 35.2245 44.6042 34.8723 44.5223C34.6522 44.4722 34.4541 44.4221 34.4321 44.4085C34.4145 44.3994 34.3089 44.4312 34.1988 44.4813Z" fill="black"/>
<path d="M33.0981 45.2416C33.0981 45.3918 33.1202 45.4283 33.2434 45.5057C34.2382 46.143 38.6006 46.1703 39.8199 45.5512C40.0004 45.4601 40.0532 45.3691 40.0532 45.1597C40.0532 45.0549 40.0092 45.0322 39.9432 45.1005C39.9168 45.1232 39.7803 45.187 39.635 45.2371C38.2088 45.7287 34.4495 45.6832 33.3094 45.1597L33.0981 45.0641V45.2416Z" fill="black"/>
<g filter="url(#filter8_i)">
<path d="M27.3646 12.6715C27.3645 15.2326 26.3512 17.6897 24.5459 19.5061C22.7406 21.3226 20.29 22.351 17.7292 22.3667C15.1683 22.3824 12.7053 21.3841 10.8779 19.5899C9.05047 17.7957 8.00709 15.3513 7.97559 12.7904C7.97559 12.7508 7.97559 12.7112 7.97559 12.6715C7.97559 10.1002 8.99691 7.63417 10.8149 5.8159C12.6329 3.99762 15.0986 2.97602 17.6697 2.97583H17.7893C19.7482 2.99676 21.6543 3.61341 23.2543 4.74382C24.3267 5.50148 25.2352 6.46776 25.9255 7.5848C26.8694 9.11333 27.3678 10.875 27.3646 12.6715Z" fill="#FAA300"/>
</g>
<path d="M17.522 24.965C24.4116 24.965 29.9967 19.3794 29.9967 12.4892C29.9967 5.59902 24.4116 0.0134277 17.522 0.0134277C10.6325 0.0134277 5.04736 5.59902 5.04736 12.4892C5.04736 19.3794 10.6325 24.965 17.522 24.965Z" fill="white"/>
<path d="M29.9978 12.4898C30.0001 15.3603 29.0145 18.1442 27.2066 20.3737C25.3986 22.6031 22.8784 24.1424 20.0695 24.7328C17.2606 25.3231 14.3341 24.9287 11.7817 23.6156C9.2293 22.3026 7.20655 20.151 6.05329 17.5224C4.90003 14.8938 4.68654 11.9483 5.4487 9.18082C6.21086 6.41334 7.90221 3.99253 10.2386 2.32511C12.575 0.657688 15.414 -0.154726 18.2787 0.0243622C21.1434 0.203451 23.8591 1.36313 25.9697 3.30855C27.2395 4.47709 28.2532 5.89638 28.9465 7.47671C29.6398 9.05704 29.9978 10.764 29.9978 12.4898Z" fill="#F0CD00"/>
<path d="M30 12.4914C30.0004 15.7204 28.7489 18.8238 26.5087 21.1491C24.2686 23.4745 21.2142 24.8407 17.9877 24.9605C14.7569 24.8469 11.6964 23.4835 9.45099 21.1576C7.20559 18.8316 5.95068 15.7248 5.95068 12.4917C5.95068 9.25868 7.20559 6.15186 9.45099 3.82592C11.6964 1.49998 14.7569 0.136563 17.9877 0.0229492C21.2141 0.142798 24.2683 1.5089 26.5085 3.8341C28.7486 6.1593 30.0002 9.26249 30 12.4914V12.4914Z" fill="#FFDE50"/>
<path d="M25.9697 3.30778L8.3412 20.9378C7.74079 20.2862 7.21116 19.5728 6.76123 18.8095L23.8393 1.72766C24.6036 2.17716 25.3177 2.70686 25.9697 3.30778V3.30778Z" fill="#FFEA94"/>
<path d="M29.1401 7.93293L12.9617 24.1084C11.8267 23.6611 10.7635 23.0496 9.80615 22.2934L27.3253 4.76978C28.0824 5.72926 28.6939 6.7951 29.1401 7.93293V7.93293Z" fill="#FFEA94"/>
<g filter="url(#filter9_i)">
<path d="M27.2181 12.4905C27.218 15.0516 26.2047 17.5086 24.3994 19.3251C22.5941 21.1416 20.1435 22.1699 17.5827 22.1856C15.0219 22.2013 12.5588 21.2031 10.7314 19.4089C8.90399 17.6147 7.86061 15.1703 7.8291 12.6094C7.8291 12.5698 7.8291 12.5301 7.8291 12.4905C7.8291 9.91918 8.85042 7.45314 10.6684 5.63487C12.4864 3.81659 14.9521 2.79499 17.5232 2.7948H17.6429C19.6017 2.81573 21.5078 3.43238 23.1078 4.56279C24.1802 5.32045 25.0888 6.28673 25.779 7.40377C26.7229 8.9323 27.2213 10.694 27.2181 12.4905Z" fill="#FAA300"/>
</g>
<path d="M20.8087 13.0229C20.328 12.9265 19.8618 13.2465 19.7675 13.7376C19.4437 15.4225 18.2156 16.7189 16.6989 17.0885V12.9329L20.3317 11.3821C20.7836 11.1891 20.997 10.6583 20.8081 10.1965C20.6194 9.73467 20.0997 9.5167 19.6478 9.70961L16.6989 10.9685V9.4418L20.3317 7.89099C20.7836 7.69804 20.997 7.16723 20.8081 6.70538C20.6194 6.24353 20.0997 6.02561 19.6478 6.21852L16.6989 7.47741V6.70366C16.6989 6.20311 16.3018 5.79736 15.8119 5.79736C15.3221 5.79736 14.925 6.20311 14.925 6.70366V8.23471L13.264 8.94374C12.8121 9.13669 12.5987 9.66751 12.7875 10.1294C12.9297 10.4771 13.2592 10.6865 13.6063 10.6865C13.7202 10.6865 13.8362 10.6639 13.9478 10.6162L14.925 10.1991V11.7258L13.264 12.4348C12.8121 12.6278 12.5987 13.1586 12.7875 13.6204C12.9297 13.9681 13.2592 14.1776 13.6063 14.1776C13.7202 14.1776 13.8362 14.155 13.9478 14.1073L14.925 13.6902V18.1015C14.925 18.602 15.3221 19.0078 15.8119 19.0078C17.1657 19.0078 18.4839 18.5044 19.5237 17.5905C20.5411 16.6961 21.2459 15.4519 21.5081 14.0868C21.6025 13.5956 21.2894 13.1193 20.8087 13.0229Z" fill="#F68E00"/>
<path d="M21.5426 13.0229C21.0619 12.9265 20.5957 13.2465 20.5014 13.7376C20.1776 15.4225 18.9495 16.7189 17.4328 17.0885V12.9329L21.0656 11.3821C21.5175 11.1891 21.7309 10.6583 21.542 10.1965C21.3533 9.73467 20.8336 9.5167 20.3817 9.70961L17.4328 10.9685V9.4418L21.0656 7.89099C21.5175 7.69804 21.7309 7.16723 21.542 6.70538C21.3533 6.24353 20.8336 6.02561 20.3817 6.21852L17.4328 7.47741V6.70366C17.4328 6.20311 17.0357 5.79736 16.5458 5.79736C16.0559 5.79736 15.6589 6.20311 15.6589 6.70366V8.23471L13.9979 8.94374C13.5459 9.13669 13.3326 9.66751 13.5214 10.1294C13.6636 10.4771 13.9931 10.6865 14.3402 10.6865C14.4541 10.6865 14.5701 10.6639 14.6817 10.6162L15.6589 10.1991V11.7258L13.9979 12.4348C13.5459 12.6278 13.3326 13.1586 13.5214 13.6204C13.6636 13.9681 13.9931 14.1776 14.3402 14.1776C14.4541 14.1776 14.5701 14.155 14.6817 14.1073L15.6589 13.6902V18.1015C15.6589 18.602 16.0559 19.0078 16.5458 19.0078C17.8996 19.0078 19.2178 18.5044 20.2576 17.5905C21.275 16.6961 21.9798 15.4519 22.242 14.0868C22.3364 13.5956 22.0233 13.1193 21.5426 13.0229Z" fill="#FFEA94"/>
<path d="M27.2164 12.4905C27.2162 15.0619 26.1948 17.5279 24.3767 19.3462C22.5586 21.1645 20.0928 22.186 17.5216 22.1862C17.3376 22.1862 17.1551 22.1811 16.9741 22.1708C19.4458 22.0296 21.7699 20.9482 23.4698 19.1482C25.1698 17.3482 26.1168 14.9661 26.1168 12.4901C26.1168 10.0142 25.1698 7.63207 23.4698 5.83209C21.7699 4.03211 19.4458 2.95067 16.9741 2.80948C17.1556 2.7992 17.3381 2.79407 17.5216 2.79407C20.0929 2.79426 22.5588 3.81594 24.3769 5.63435C26.195 7.45276 27.2164 9.91898 27.2164 12.4905Z" fill="#F68E00"/>
<g filter="url(#filter10_i)">
<path d="M22.1825 24.5696C22.1824 27.1101 21.1773 29.5473 19.3867 31.3492C17.5961 33.1511 15.1654 34.1711 12.6254 34.1867C10.0854 34.2023 7.64244 33.2121 5.82988 31.4323C4.01731 29.6526 2.98242 27.2278 2.95117 24.6875C2.95117 24.6482 2.95117 24.6089 2.95117 24.5696C2.95117 22.019 3.96419 19.5728 5.76738 17.7691C7.57058 15.9655 10.0163 14.9521 12.5665 14.9519H12.6851C14.628 14.9727 16.5186 15.5844 18.1056 16.7057C19.1693 17.4572 20.0705 18.4157 20.7551 19.5238C21.6913 21.04 22.1856 22.7876 22.1825 24.5696Z" fill="#FAA300"/>
</g>
<path d="M12.4201 36.7641C19.2536 36.7641 24.7933 31.2234 24.7933 24.3887C24.7933 17.554 19.2536 12.0133 12.4201 12.0133C5.58656 12.0133 0.046875 17.554 0.046875 24.3887C0.046875 31.2234 5.58656 36.7641 12.4201 36.7641Z" fill="white"/>
<path d="M24.7945 24.3893C24.7968 27.2367 23.8192 29.9982 22.0259 32.2097C20.2327 34.4213 17.733 35.9481 14.947 36.5337C12.1609 37.1194 9.25819 36.7281 6.72655 35.4256C4.1949 34.1232 2.1886 31.9889 1.04472 29.3814C-0.099159 26.7739 -0.310908 23.8521 0.445051 21.1069C1.20101 18.3617 2.87861 15.9604 5.19599 14.3064C7.51337 12.6524 10.3293 11.8465 13.1707 12.0242C16.0121 12.2018 18.7058 13.3522 20.7992 15.2819C22.0587 16.4411 23.064 17.8489 23.7517 19.4165C24.4394 20.9842 24.7945 22.6774 24.7945 24.3893Z" fill="#F0CD00"/>
<path d="M24.7966 24.3909C24.797 27.594 23.5557 30.6724 21.3337 32.979C19.1118 35.2856 16.0822 36.6409 12.882 36.7598C9.67748 36.6471 6.64184 35.2946 4.41471 32.9874C2.18757 30.6802 0.942871 27.5983 0.942871 24.3913C0.942871 21.1842 2.18757 18.1024 4.41471 15.7952C6.64184 13.488 9.67748 12.1355 12.882 12.0228C16.0821 12.1417 19.1116 13.4968 21.3335 15.8033C23.5554 18.1098 24.7968 21.188 24.7966 24.3909V24.3909Z" fill="#FFDE50"/>
<path d="M20.7993 15.2813L3.31419 32.7694C2.71866 32.1231 2.19334 31.4154 1.74707 30.6582L18.6863 13.7139C19.4443 14.1597 20.1527 14.6852 20.7993 15.2813V15.2813Z" fill="#FFEA94"/>
<path d="M23.9438 19.8692L7.89697 35.9144C6.77118 35.4708 5.71663 34.8642 4.76709 34.1141L22.1438 16.7314C22.8947 17.6832 23.5012 18.7405 23.9438 19.8692V19.8692Z" fill="#FFEA94"/>
<g filter="url(#filter11_i)">
<path d="M22.0375 24.39C22.0374 26.9305 21.0323 29.3678 19.2417 31.1696C17.4511 32.9715 15.0204 33.9916 12.4804 34.0071C9.94041 34.0227 7.49742 33.0325 5.68486 31.2528C3.87229 29.473 2.8374 27.0483 2.80615 24.508C2.80615 24.4687 2.80615 24.4293 2.80615 24.39C2.80615 21.8394 3.81917 19.3932 5.62236 17.5896C7.42556 15.7859 9.87124 14.7725 12.4214 14.7723H12.5401C14.483 14.7931 16.3736 15.4048 17.9606 16.5261C19.0243 17.2777 19.9254 18.2362 20.6101 19.3442C21.5463 20.8605 22.0406 22.608 22.0375 24.39Z" fill="#FAA300"/>
</g>
<path d="M22.036 24.39C22.0358 26.9407 21.0226 29.3869 19.2193 31.1905C17.416 32.9942 14.9702 34.0075 12.42 34.0077C12.2375 34.0077 12.0565 34.0026 11.877 33.9924C14.3285 33.8524 16.6337 32.7796 18.3198 30.9941C20.0059 29.2087 20.9453 26.8457 20.9453 24.3897C20.9453 21.9336 20.0059 19.5707 18.3198 17.7852C16.6337 15.9997 14.3285 14.927 11.877 14.7869C12.057 14.7767 12.238 14.7716 12.42 14.7716C14.9703 14.7718 17.4162 15.7853 19.2195 17.589C21.0229 19.3928 22.036 21.8392 22.036 24.39Z" fill="#F68E00"/>
<path d="M11.0968 17.5627C10.7843 17.5946 10.485 17.631 10.4366 17.6447C10.3925 17.6629 10.2825 17.6856 10.1989 17.6993C10.1152 17.713 9.98756 17.763 9.91273 17.8086C9.79387 17.8769 9.78067 17.9133 9.75866 18.1773C9.73665 18.4687 9.73225 18.4732 9.60459 18.4869C9.53416 18.496 9.30966 18.5506 9.10717 18.6144C8.35003 18.8557 7.66773 19.3746 7.25835 20.0348C7.05146 20.3625 6.97222 20.663 7.01184 20.9362C7.04706 21.1866 7.10428 21.2002 7.08227 20.9589C7.05146 20.6494 7.21873 20.2624 7.6017 19.7297C7.71615 19.575 8.26199 19.1243 8.44688 19.0423C8.4997 19.015 8.61855 18.9513 8.70219 18.9057C8.93989 18.7737 9.36248 18.6371 9.58258 18.6235C9.77186 18.6098 9.78067 18.6144 9.79387 18.7418C9.8511 19.2563 9.57818 19.5112 8.42927 19.9983C7.98027 20.1896 7.70295 20.3899 7.65012 20.5583C7.62811 20.6403 7.6017 20.8679 7.5973 21.0682C7.5885 21.2685 7.56208 21.4825 7.53127 21.5508C7.46524 21.6873 7.29797 21.7738 7.09988 21.7738C6.87538 21.7738 6.67729 21.8649 6.62887 21.9878C6.57165 22.1517 6.58045 22.4886 6.65088 22.6297C6.73892 22.8073 6.90619 22.9575 7.17031 23.0941C7.68974 23.3581 7.94065 23.5266 8.15195 23.7314C8.4997 24.0774 8.68018 24.1503 9.22602 24.1639C9.52095 24.173 9.74985 24.2004 9.8467 24.2459C10.0624 24.3415 10.3617 24.5737 10.4189 24.692C10.529 24.9014 10.2825 25.1883 10.0536 25.1154C9.99196 25.0972 9.97435 25.1063 9.98756 25.1473C10.0228 25.2565 10.3485 25.2156 10.5422 25.0881C10.7579 24.9379 10.8503 24.7284 10.7843 24.5463C10.7139 24.3597 10.7755 24.3825 10.9824 24.6146C11.4402 25.1291 11.7351 25.6526 11.9068 26.2536C11.9816 26.5039 11.9948 26.6769 11.9904 27.1413C11.9816 27.6922 11.9772 27.7286 11.8672 27.8788C11.7527 28.0336 11.6075 28.1292 11.2861 28.2567C11.1981 28.2931 11.1101 28.3614 11.0968 28.4069C11.022 28.6436 10.912 28.8667 10.7975 29.0033C10.7271 29.0852 10.6831 29.1626 10.6963 29.1763C10.7095 29.19 10.9648 29.2309 11.2641 29.2673C11.9772 29.3493 13.2098 29.3493 13.8965 29.2628C14.2002 29.2264 14.4511 29.1945 14.4599 29.1945C14.4687 29.1945 14.4027 29.0989 14.3191 28.9851C14.2354 28.8713 14.1342 28.6801 14.0946 28.5617C14.0241 28.3386 13.9757 28.2931 13.6632 28.1838C12.7168 27.8561 13.0293 25.7482 14.1958 24.5828L14.3719 24.4052L14.3499 24.6055C14.3323 24.774 14.3455 24.8286 14.4423 24.947C14.5656 25.0972 14.8033 25.2338 14.9398 25.2338C14.9882 25.2338 15.063 25.2019 15.1114 25.1655C15.1907 25.0972 15.1863 25.0927 15.0542 25.12C14.9398 25.1427 14.8913 25.1291 14.7989 25.0335C14.5744 24.8013 14.6932 24.5737 15.1731 24.3051C15.3843 24.1867 15.4504 24.173 15.8994 24.1594C16.4716 24.1457 16.5817 24.1047 16.9118 23.777C17.1231 23.5675 17.7174 23.1851 18.1048 23.0076C18.206 22.9621 18.3425 22.8482 18.4085 22.7572C18.5097 22.6161 18.5317 22.5478 18.5317 22.2974C18.5361 21.9059 18.4569 21.8148 18.0915 21.7829C17.6249 21.742 17.5061 21.5644 17.5061 20.9271C17.5061 20.5355 17.5061 20.531 17.352 20.3808C17.2068 20.2396 16.7534 19.9892 16.5289 19.9301C16.3132 19.8663 15.5516 19.4247 15.4724 19.3109C15.3667 19.1652 15.3007 18.883 15.3359 18.71C15.3623 18.5871 15.3711 18.5825 15.5428 18.6098C16.3396 18.7418 17.2772 19.3428 17.7262 20.0211C17.8406 20.1896 18.0299 20.5856 18.0343 20.6585C18.0343 20.6721 18.0343 20.7905 18.0343 20.918C18.0343 21.091 18.0475 21.141 18.0783 21.091C18.1004 21.0545 18.1224 20.9134 18.1224 20.7814C18.1224 20.3944 17.9199 20.0166 17.4401 19.5203C17.0923 19.1607 16.9867 19.0787 16.5817 18.8739C16.0755 18.6144 15.7541 18.496 15.5648 18.496C15.4108 18.496 15.3711 18.4323 15.3888 18.2137C15.4152 17.8495 15.3271 17.7767 14.7329 17.6629C13.8569 17.4944 12.2678 17.4489 11.0968 17.5627ZM10.639 17.7448C10.5906 17.804 10.595 17.8268 10.6655 17.8814C10.7095 17.9178 10.7843 17.9497 10.8283 17.9542C10.8679 17.9588 10.9164 17.9634 10.9384 17.9679C11.2861 18.0544 11.9024 18.109 12.5759 18.109C13.289 18.1045 13.5179 18.0863 14.1386 17.9679C14.2883 17.9406 14.4687 17.8495 14.4687 17.804C14.4687 17.7813 14.4291 17.7494 14.3807 17.7357C14.2795 17.7084 14.2619 17.631 14.3543 17.631C14.4775 17.631 15.0146 17.7721 15.1378 17.8404C15.7937 18.191 13.7908 18.5233 11.7439 18.4004C10.3309 18.3185 9.65741 18.1136 9.95234 17.8632C10.014 17.8086 10.6479 17.631 10.6787 17.6583C10.6875 17.6674 10.6699 17.7084 10.639 17.7448ZM12.9061 19.3155C13.0073 19.3428 12.9633 19.3519 12.7256 19.3564C12.1797 19.3655 11.7395 19.5522 11.3302 19.9483C11.1321 20.1395 11.1145 20.1486 11.044 20.0712C10.9736 19.9938 10.978 19.9801 11.1629 19.8117C11.5943 19.4111 12.3998 19.1834 12.9061 19.3155ZM13.2142 19.5659C13.5663 19.6615 13.8481 19.8299 14.099 20.0939C14.2751 20.2761 14.3059 20.3352 14.2663 20.3944C14.187 20.5264 14.1386 20.5082 13.9845 20.2897C13.9009 20.1759 13.716 20.0029 13.5707 19.9027C13.223 19.6615 12.9149 19.575 12.4879 19.5977C12.1225 19.6114 12.0829 19.6023 12.3206 19.5431C12.5627 19.4839 12.9369 19.493 13.2142 19.5659ZM12.5935 21.7738C12.6155 21.7738 12.9501 21.5326 13.3418 21.2412C13.7292 20.9498 14.121 20.6585 14.2046 20.5947C14.3235 20.5082 14.3411 20.4991 14.2883 20.5674C12.9457 22.2974 12.5583 22.7754 12.5363 22.7435C12.5187 22.7253 12.0697 22.0607 11.5414 21.2731C11.0132 20.4855 10.529 19.7662 10.4674 19.6797C10.4101 19.5932 10.8547 20.0257 11.4578 20.6448C12.0609 21.2685 12.5715 21.7738 12.5935 21.7738ZM12.6199 19.7252C12.6199 19.748 12.6023 19.7707 12.5759 19.7707C12.5539 19.7707 12.5319 19.748 12.5319 19.7252C12.5319 19.6979 12.5539 19.6797 12.5759 19.6797C12.6023 19.6797 12.6199 19.6979 12.6199 19.7252ZM10.9076 20.5629C10.7931 20.7085 10.7183 21.1592 10.7359 21.6145C10.7491 22.0424 10.7623 22.1062 10.9208 22.4294C11.3037 23.2352 12.0565 23.6905 12.9061 23.6313L13.2142 23.6085L12.9941 23.6632C12.6727 23.7496 12.413 23.7451 12.0257 23.6404C11.6075 23.5311 11.3566 23.3854 11.022 23.0531C10.3705 22.4158 10.2033 21.4187 10.595 20.5538L10.7315 20.2487L10.8415 20.3808C10.9164 20.4673 10.9384 20.5264 10.9076 20.5629ZM14.57 20.8679C14.8165 21.5917 14.6272 22.3839 14.0814 22.9211C13.6544 23.3399 13.157 23.5357 12.6199 23.4902C12.3294 23.4628 11.9288 23.349 11.8496 23.2671C11.8232 23.2443 11.8584 23.2443 11.9288 23.2716C12.3646 23.4446 12.9457 23.4037 13.3771 23.1806C14.1386 22.7845 14.5216 21.9104 14.3367 20.9999C14.2927 20.7814 14.2927 20.7131 14.3367 20.6585C14.4247 20.5492 14.4819 20.5993 14.57 20.8679ZM12.9765 20.7677C13.0689 20.8679 13.1041 20.9453 13.1041 21.0682C13.1041 21.2822 12.9105 21.5007 12.7168 21.5007C12.5627 21.5007 12.3646 21.3505 12.3074 21.1911C12.2502 21.0318 12.3338 20.7859 12.4791 20.704C12.6683 20.5993 12.8312 20.622 12.9765 20.7677ZM10.0008 21.1001C9.98316 21.2093 9.92153 21.4051 9.8643 21.5417C9.74545 21.8194 9.72344 22.3156 9.80708 22.871C9.8643 23.2671 9.96555 23.5038 10.2209 23.8635C10.3309 24.0137 10.4057 24.1412 10.3925 24.1412C10.3793 24.1412 10.3133 24.1093 10.2429 24.0729C10.1724 24.0365 9.98316 24.0046 9.79387 24C9.47253 23.9955 9.31846 23.95 9.31846 23.8635C9.31846 23.7724 8.82544 23.1806 8.60094 23.0076C8.34123 22.8073 7.99348 22.6115 7.813 22.5751C7.74256 22.5614 7.64132 22.5387 7.57969 22.525C7.39921 22.484 7.45204 22.434 7.73376 22.3702C8.07271 22.2928 8.41166 21.9878 8.46008 21.7147C8.47769 21.6236 8.5085 21.5462 8.53051 21.5462C8.58774 21.5462 8.57893 21.6919 8.5041 21.9104C8.46889 22.0151 8.44688 22.1198 8.46008 22.138C8.48649 22.1836 8.93549 22.0652 9.14238 21.9559C9.4021 21.8148 9.93474 21.1456 9.93474 20.9635C9.93474 20.9316 9.95674 20.9089 9.98316 20.9089C10.014 20.9089 10.0184 20.9726 10.0008 21.1001ZM15.2787 21.1592C15.4416 21.4825 15.7541 21.8239 16.0094 21.9605C16.2163 22.0698 16.6697 22.1972 16.6697 22.1472C16.6653 22.1062 16.5861 21.7238 16.5553 21.6236C16.5421 21.5826 16.5509 21.5462 16.5773 21.5462C16.6037 21.5462 16.6433 21.6282 16.6697 21.7283C16.7578 22.0698 17.0483 22.311 17.4753 22.3884C17.6954 22.434 17.6602 22.5159 17.4004 22.5569C16.9646 22.6206 16.2603 23.1533 15.9126 23.6859C15.7145 23.9864 15.6793 24.0046 15.3183 24.0046C15.1114 24.0046 14.9442 24.0319 14.8649 24.0729C14.7153 24.1548 14.6888 24.1047 14.8209 23.9818C14.975 23.8407 15.1775 23.4674 15.2699 23.1715C15.3227 22.9985 15.3667 22.6935 15.3799 22.3839C15.4064 21.8922 15.402 21.8649 15.2743 21.5417C15.1334 21.1866 15.0674 20.9089 15.1202 20.9089C15.1378 20.9089 15.2083 21.0227 15.2787 21.1592ZM10.9252 21.4096C10.9384 21.4324 10.9208 21.4552 10.8856 21.4552C10.8459 21.4552 10.8151 21.4324 10.8151 21.4096C10.8151 21.3823 10.8327 21.3641 10.8547 21.3641C10.8812 21.3641 10.912 21.3823 10.9252 21.4096ZM14.2927 21.4096C14.2927 21.4324 14.2751 21.4552 14.2486 21.4552C14.2266 21.4552 14.2046 21.4324 14.2046 21.4096C14.2046 21.3823 14.2266 21.3641 14.2486 21.3641C14.2751 21.3641 14.2927 21.3823 14.2927 21.4096ZM12.6199 23.258C12.6199 23.2944 12.5979 23.3126 12.5759 23.2989C12.5495 23.2807 12.5407 23.2489 12.5539 23.2261C12.5935 23.1624 12.6199 23.176 12.6199 23.258Z" fill="black"/>
<path d="M6.39099 21.0182C6.13128 21.132 5.86716 21.4598 5.71309 21.8422C5.63386 22.0425 5.54582 22.2292 5.52381 22.261C5.46659 22.3339 5.47979 22.3566 5.942 22.8529C6.73435 23.7042 7.55311 24.1549 8.80326 24.4371C9.00575 24.4827 9.19504 24.5555 9.26547 24.6192C9.43714 24.7649 9.75408 24.9243 9.83772 24.9015C9.88614 24.8924 9.83772 24.8514 9.70126 24.7877C9.58681 24.7331 9.40193 24.6192 9.28748 24.5282C9.17743 24.4417 9.03216 24.3689 8.97054 24.3689C8.90891 24.3689 8.78125 24.3461 8.68441 24.3188C8.59197 24.2915 8.47752 24.2641 8.4291 24.255C8.06814 24.1822 7.35502 23.8544 6.89722 23.5448C6.60669 23.3536 6.19291 22.9621 5.88037 22.5843L5.64707 22.3111L5.7219 22.17C5.75711 22.088 5.84955 21.8877 5.91999 21.7238C6.06525 21.396 6.36898 21.0728 6.60669 21.0045C6.72994 20.9681 6.73435 20.9635 6.6331 20.959C6.57147 20.959 6.46143 20.9863 6.39099 21.0182Z" fill="black"/>
<path d="M18.5493 21.091C18.6726 21.1638 18.8266 21.2959 18.8883 21.3778C19.0159 21.5463 19.3108 22.1973 19.3108 22.302C19.3108 22.343 19.2536 22.4386 19.1832 22.516C19.1172 22.5979 18.9719 22.7618 18.8662 22.8802C18.382 23.4447 17.308 24.0775 16.542 24.255C16.5024 24.2641 16.3219 24.3051 16.1414 24.3461C15.8905 24.4007 15.7761 24.4553 15.6704 24.56C15.5956 24.6374 15.4239 24.7376 15.2963 24.7831C15.1246 24.8423 15.085 24.8696 15.1422 24.8924C15.2434 24.9334 15.4503 24.8423 15.6572 24.6648C15.7849 24.5555 15.9213 24.5009 16.2779 24.4144C16.8722 24.2778 17.2243 24.1503 17.6733 23.9181C18.2676 23.6086 18.5581 23.3764 19.1744 22.7163L19.5001 22.3703L19.3152 21.9196C19.1216 21.4507 18.9147 21.1821 18.6197 21.0273C18.3688 20.8998 18.3116 20.9499 18.5493 21.091Z" fill="black"/>
<path d="M10.1988 29.4813C10.0888 29.5314 9.88188 29.586 9.73661 29.5997C9.51211 29.6224 9.47249 29.6406 9.45929 29.7226C9.44168 29.8592 9.52092 29.9092 9.91709 30.014C11.2729 30.3691 14.4203 30.3235 15.4724 29.932C15.6352 29.8728 15.6616 29.8455 15.6484 29.7454C15.6352 29.6361 15.6132 29.6224 15.3931 29.5997C15.2611 29.586 15.0498 29.5314 14.9221 29.4813C14.7945 29.4312 14.6844 29.3948 14.6756 29.4085C14.6624 29.4176 14.4687 29.4722 14.2442 29.5223C13.8788 29.6042 13.6852 29.6179 12.5539 29.6133C11.4402 29.6133 11.2245 29.6042 10.8723 29.5223C10.6522 29.4722 10.4541 29.4221 10.4321 29.4085C10.4145 29.3994 10.3089 29.4312 10.1988 29.4813Z" fill="black"/>
<path d="M9.09814 30.2416C9.09814 30.3918 9.12015 30.4283 9.24341 30.5057C10.2382 31.143 14.6006 31.1703 15.8199 30.5512C16.0004 30.4601 16.0532 30.3691 16.0532 30.1597C16.0532 30.0549 16.0092 30.0322 15.9432 30.1005C15.9168 30.1232 15.7803 30.187 15.635 30.2371C14.2088 30.7287 10.4495 30.6832 9.30944 30.1597L9.09814 30.0641V30.2416Z" fill="black"/>
<defs>
<filter id="filter0_i" x="5.97559" y="29.9758" width="25.389" height="25.391" filterUnits="userSpaceOnUse" color-interpolation-filters="sRGB">
<feFlood flood-opacity="0" result="BackgroundImageFix"/>
<feBlend mode="normal" in="SourceGraphic" in2="BackgroundImageFix" result="shape"/>
<feColorMatrix in="SourceAlpha" type="matrix" values="0 0 0 0 0 0 0 0 0 0 0 0 0 0 0 0 0 0 127 0" result="hardAlpha"/>
<feOffset dx="6" dy="6"/>
<feGaussianBlur stdDeviation="3.5"/>
<feComposite in2="hardAlpha" operator="arithmetic" k2="-1" k3="1"/>
<feColorMatrix type="matrix" values="0 0 0 0 1 0 0 0 0 0.807843 0 0 0 0 0.305882 0 0 0 1 0"/>
<feBlend mode="normal" in2="shape" result="effect1_innerShadow"/>
</filter>
<filter id="filter1_i" x="5.8291" y="29.7948" width="25.389" height="25.391" filterUnits="userSpaceOnUse" color-interpolation-filters="sRGB">
<feFlood flood-opacity="0" result="BackgroundImageFix"/>
<feBlend mode="normal" in="SourceGraphic" in2="BackgroundImageFix" result="shape"/>
<feColorMatrix in="SourceAlpha" type="matrix" values="0 0 0 0 0 0 0 0 0 0 0 0 0 0 0 0 0 0 127 0" result="hardAlpha"/>
<feOffset dx="6" dy="6"/>
<feGaussianBlur stdDeviation="3.5"/>
<feComposite in2="hardAlpha" operator="arithmetic" k2="-1" k3="1"/>
<feColorMatrix type="matrix" values="0 0 0 0 1 0 0 0 0 0.807843 0 0 0 0 0.305882 0 0 0 1 0"/>
<feBlend mode="normal" in2="shape" result="effect1_innerShadow"/>
</filter>
<filter id="filter2_i" x="27.9756" y="10.9758" width="25.389" height="25.391" filterUnits="userSpaceOnUse" color-interpolation-filters="sRGB">
<feFlood flood-opacity="0" result="BackgroundImageFix"/>
<feBlend mode="normal" in="SourceGraphic" in2="BackgroundImageFix" result="shape"/>
<feColorMatrix in="SourceAlpha" type="matrix" values="0 0 0 0 0 0 0 0 0 0 0 0 0 0 0 0 0 0 127 0" result="hardAlpha"/>
<feOffset dx="6" dy="6"/>
<feGaussianBlur stdDeviation="3.5"/>
<feComposite in2="hardAlpha" operator="arithmetic" k2="-1" k3="1"/>
<feColorMatrix type="matrix" values="0 0 0 0 1 0 0 0 0 0.807843 0 0 0 0 0.305882 0 0 0 1 0"/>
<feBlend mode="normal" in2="shape" result="effect1_innerShadow"/>
</filter>
<filter id="filter3_i" x="27.8291" y="10.7948" width="25.389" height="25.391" filterUnits="userSpaceOnUse" color-interpolation-filters="sRGB">
<feFlood flood-opacity="0" result="BackgroundImageFix"/>
<feBlend mode="normal" in="SourceGraphic" in2="BackgroundImageFix" result="shape"/>
<feColorMatrix in="SourceAlpha" type="matrix" values="0 0 0 0 0 0 0 0 0 0 0 0 0 0 0 0 0 0 127 0" result="hardAlpha"/>
<feOffset dx="6" dy="6"/>
<feGaussianBlur stdDeviation="3.5"/>
<feComposite in2="hardAlpha" operator="arithmetic" k2="-1" k3="1"/>
<feColorMatrix type="matrix" values="0 0 0 0 1 0 0 0 0 0.807843 0 0 0 0 0.305882 0 0 0 1 0"/>
<feBlend mode="normal" in2="shape" result="effect1_innerShadow"/>
</filter>
<filter id="filter4_i" x="14.9512" y="14.9519" width="25.2313" height="25.235" filterUnits="userSpaceOnUse" color-interpolation-filters="sRGB">
<feFlood flood-opacity="0" result="BackgroundImageFix"/>
<feBlend mode="normal" in="SourceGraphic" in2="BackgroundImageFix" result="shape"/>
<feColorMatrix in="SourceAlpha" type="matrix" values="0 0 0 0 0 0 0 0 0 0 0 0 0 0 0 0 0 0 127 0" result="hardAlpha"/>
<feOffset dx="6" dy="6"/>
<feGaussianBlur stdDeviation="3.5"/>
<feComposite in2="hardAlpha" operator="arithmetic" k2="-1" k3="1"/>
<feColorMatrix type="matrix" values="0 0 0 0 1 0 0 0 0 0.807843 0 0 0 0 0.305882 0 0 0 1 0"/>
<feBlend mode="normal" in2="shape" result="effect1_innerShadow"/>
</filter>
<filter id="filter5_i" x="14.8062" y="14.7723" width="25.2313" height="25.235" filterUnits="userSpaceOnUse" color-interpolation-filters="sRGB">
<feFlood flood-opacity="0" result="BackgroundImageFix"/>
<feBlend mode="normal" in="SourceGraphic" in2="BackgroundImageFix" result="shape"/>
<feColorMatrix in="SourceAlpha" type="matrix" values="0 0 0 0 0 0 0 0 0 0 0 0 0 0 0 0 0 0 127 0" result="hardAlpha"/>
<feOffset dx="6" dy="6"/>
<feGaussianBlur stdDeviation="3.5"/>
<feComposite in2="hardAlpha" operator="arithmetic" k2="-1" k3="1"/>
<feColorMatrix type="matrix" values="0 0 0 0 1 0 0 0 0 0.807843 0 0 0 0 0.305882 0 0 0 1 0"/>
<feBlend mode="normal" in2="shape" result="effect1_innerShadow"/>
</filter>
<filter id="filter6_i" x="26.9512" y="29.9519" width="25.2313" height="25.235" filterUnits="userSpaceOnUse" color-interpolation-filters="sRGB">
<feFlood flood-opacity="0" result="BackgroundImageFix"/>
<feBlend mode="normal" in="SourceGraphic" in2="BackgroundImageFix" result="shape"/>
<feColorMatrix in="SourceAlpha" type="matrix" values="0 0 0 0 0 0 0 0 0 0 0 0 0 0 0 0 0 0 127 0" result="hardAlpha"/>
<feOffset dx="6" dy="6"/>
<feGaussianBlur stdDeviation="3.5"/>
<feComposite in2="hardAlpha" operator="arithmetic" k2="-1" k3="1"/>
<feColorMatrix type="matrix" values="0 0 0 0 1 0 0 0 0 0.807843 0 0 0 0 0.305882 0 0 0 1 0"/>
<feBlend mode="normal" in2="shape" result="effect1_innerShadow"/>
</filter>
<filter id="filter7_i" x="26.8062" y="29.7723" width="25.2313" height="25.235" filterUnits="userSpaceOnUse" color-interpolation-filters="sRGB">
<feFlood flood-opacity="0" result="BackgroundImageFix"/>
<feBlend mode="normal" in="SourceGraphic" in2="BackgroundImageFix" result="shape"/>
<feColorMatrix in="SourceAlpha" type="matrix" values="0 0 0 0 0 0 0 0 0 0 0 0 0 0 0 0 0 0 127 0" result="hardAlpha"/>
<feOffset dx="6" dy="6"/>
<feGaussianBlur stdDeviation="3.5"/>
<feComposite in2="hardAlpha" operator="arithmetic" k2="-1" k3="1"/>
<feColorMatrix type="matrix" values="0 0 0 0 1 0 0 0 0 0.807843 0 0 0 0 0.305882 0 0 0 1 0"/>
<feBlend mode="normal" in2="shape" result="effect1_innerShadow"/>
</filter>
<filter id="filter8_i" x="7.97559" y="2.97583" width="25.389" height="25.391" filterUnits="userSpaceOnUse" color-interpolation-filters="sRGB">
<feFlood flood-opacity="0" result="BackgroundImageFix"/>
<feBlend mode="normal" in="SourceGraphic" in2="BackgroundImageFix" result="shape"/>
<feColorMatrix in="SourceAlpha" type="matrix" values="0 0 0 0 0 0 0 0 0 0 0 0 0 0 0 0 0 0 127 0" result="hardAlpha"/>
<feOffset dx="6" dy="6"/>
<feGaussianBlur stdDeviation="3.5"/>
<feComposite in2="hardAlpha" operator="arithmetic" k2="-1" k3="1"/>
<feColorMatrix type="matrix" values="0 0 0 0 1 0 0 0 0 0.807843 0 0 0 0 0.305882 0 0 0 1 0"/>
<feBlend mode="normal" in2="shape" result="effect1_innerShadow"/>
</filter>
<filter id="filter9_i" x="7.8291" y="2.7948" width="25.389" height="25.391" filterUnits="userSpaceOnUse" color-interpolation-filters="sRGB">
<feFlood flood-opacity="0" result="BackgroundImageFix"/>
<feBlend mode="normal" in="SourceGraphic" in2="BackgroundImageFix" result="shape"/>
<feColorMatrix in="SourceAlpha" type="matrix" values="0 0 0 0 0 0 0 0 0 0 0 0 0 0 0 0 0 0 127 0" result="hardAlpha"/>
<feOffset dx="6" dy="6"/>
<feGaussianBlur stdDeviation="3.5"/>
<feComposite in2="hardAlpha" operator="arithmetic" k2="-1" k3="1"/>
<feColorMatrix type="matrix" values="0 0 0 0 1 0 0 0 0 0.807843 0 0 0 0 0.305882 0 0 0 1 0"/>
<feBlend mode="normal" in2="shape" result="effect1_innerShadow"/>
</filter>
<filter id="filter10_i" x="2.95117" y="14.9519" width="25.2313" height="25.235" filterUnits="userSpaceOnUse" color-interpolation-filters="sRGB">
<feFlood flood-opacity="0" result="BackgroundImageFix"/>
<feBlend mode="normal" in="SourceGraphic" in2="BackgroundImageFix" result="shape"/>
<feColorMatrix in="SourceAlpha" type="matrix" values="0 0 0 0 0 0 0 0 0 0 0 0 0 0 0 0 0 0 127 0" result="hardAlpha"/>
<feOffset dx="6" dy="6"/>
<feGaussianBlur stdDeviation="3.5"/>
<feComposite in2="hardAlpha" operator="arithmetic" k2="-1" k3="1"/>
<feColorMatrix type="matrix" values="0 0 0 0 1 0 0 0 0 0.807843 0 0 0 0 0.305882 0 0 0 1 0"/>
<feBlend mode="normal" in2="shape" result="effect1_innerShadow"/>
</filter>
<filter id="filter11_i" x="2.80615" y="14.7723" width="25.2313" height="25.235" filterUnits="userSpaceOnUse" color-interpolation-filters="sRGB">
<feFlood flood-opacity="0" result="BackgroundImageFix"/>
<feBlend mode="normal" in="SourceGraphic" in2="BackgroundImageFix" result="shape"/>
<feColorMatrix in="SourceAlpha" type="matrix" values="0 0 0 0 0 0 0 0 0 0 0 0 0 0 0 0 0 0 127 0" result="hardAlpha"/>
<feOffset dx="6" dy="6"/>
<feGaussianBlur stdDeviation="3.5"/>
<feComposite in2="hardAlpha" operator="arithmetic" k2="-1" k3="1"/>
<feColorMatrix type="matrix" values="0 0 0 0 1 0 0 0 0 0.807843 0 0 0 0 0.305882 0 0 0 1 0"/>
<feBlend mode="normal" in2="shape" result="effect1_innerShadow"/>
</filter>
</defs>
</svg>
