<svg width="250" height="250" viewBox="0 0 250 250" fill="none" xmlns="http://www.w3.org/2000/svg">
<path d="M245.675 56.3495H209.244V5.98876C209.233 5.28787 209.054 4.59958 208.722 3.98057C208.389 3.36155 207.913 2.82951 207.332 2.42824C206.752 2.02697 206.083 1.76795 205.381 1.6725C204.679 1.57706 203.965 1.64791 203.296 1.87924L158.961 17.4344L142.467 1.26336C141.639 0.45167 140.52 -0.00254258 139.354 1.07066e-05C138.189 0.00256399 137.072 0.461675 136.247 1.27698L98.3937 38.636L36.0846 56.3495H36.0642C33.631 56.3495 31.9028 58.498 31.9028 60.906V148.71C13.1773 156.968 2.03536e-05 175.548 2.03536e-05 197.095C-0.0104692 208.99 4.03376 220.541 11.4787 229.88C18.9237 239.219 29.3341 245.8 41.0266 248.559C52.7192 251.318 65.0101 250.093 75.9121 245.082C86.814 240.072 95.6895 231.569 101.103 220.948H245.675C246.244 220.958 246.809 220.854 247.337 220.643C247.865 220.433 248.345 220.119 248.748 219.722C249.151 219.324 249.47 218.851 249.685 218.329C249.9 217.808 250.007 217.249 250 216.686V60.906C250 58.498 248.108 56.3495 245.675 56.3495ZM200.432 12.1612V56.3495H198.827L165.944 24.1481L200.432 12.1612ZM139.373 10.3136L186.308 56.3495H92.8542L139.373 10.3136ZM85.494 51.2998L80.3919 56.3495H67.8348L85.494 51.2998ZM53.3853 241.328C44.5448 241.328 35.9028 238.734 28.5522 233.873C21.2017 229.013 15.4726 222.105 12.0895 214.022C8.70634 205.939 7.82117 197.045 9.54586 188.465C11.2706 179.884 15.5277 172.002 21.7788 165.816C28.03 159.63 35.9945 155.417 44.6651 153.71C53.3357 152.003 62.3231 152.879 70.4906 156.227C78.6581 159.575 85.6391 165.245 90.5506 172.519C95.4621 179.793 98.0836 188.345 98.0836 197.094C98.0705 208.821 93.3573 220.065 84.9781 228.357C76.5989 236.65 65.2379 241.315 53.3875 241.329L53.3853 241.328ZM104.638 212.228C107.034 204.334 107.533 195.995 106.095 187.877C104.657 179.758 101.321 172.085 96.3545 165.468C91.3878 158.852 84.9274 153.476 77.4886 149.768C70.0499 146.061 61.8386 144.126 53.5098 144.116C49.1939 144.105 44.8942 144.638 40.7147 145.704V65.07H241.188V102.132H212.394C202.535 102.132 193.079 106.008 186.107 112.907C179.136 119.807 175.219 129.164 175.219 138.921C175.219 148.679 179.136 158.036 186.107 164.936C193.079 171.835 202.535 175.711 212.394 175.711H241.188V212.228H104.638ZM241.188 110.852V166.991H212.394C204.872 166.991 197.658 164.033 192.338 158.769C187.019 153.505 184.031 146.366 184.031 138.921C184.031 131.477 187.019 124.338 192.338 119.074C197.658 113.81 204.872 110.852 212.394 110.852H241.188Z" fill="#EB3333"/>
<path d="M198.411 138.985C198.411 142.028 199.313 145.003 201.004 147.533C202.695 150.064 205.098 152.036 207.909 153.201C210.721 154.365 213.815 154.67 216.8 154.076C219.784 153.483 222.526 152.017 224.678 149.865C226.83 147.713 228.295 144.972 228.889 141.987C229.483 139.002 229.178 135.908 228.013 133.097C226.849 130.285 224.876 127.882 222.346 126.191C219.816 124.501 216.841 123.598 213.797 123.599C209.718 123.603 205.807 125.226 202.923 128.11C200.038 130.995 198.416 134.905 198.411 138.985ZM220.464 138.985C220.464 140.303 220.073 141.592 219.34 142.688C218.608 143.785 217.567 144.639 216.349 145.144C215.131 145.649 213.79 145.781 212.497 145.523C211.204 145.266 210.016 144.631 209.084 143.699C208.151 142.767 207.516 141.579 207.259 140.286C207.002 138.993 207.134 137.652 207.638 136.434C208.143 135.216 208.997 134.175 210.094 133.442C211.19 132.71 212.479 132.319 213.797 132.319C215.564 132.321 217.259 133.024 218.508 134.274C219.758 135.523 220.461 137.218 220.463 138.985H220.464Z" fill="#EB3333"/>
<path d="M52.8327 177.894C55.0136 177.897 57.1044 178.764 58.6463 180.307C60.1882 181.849 61.0553 183.94 61.0572 186.121C61.0572 187.277 61.5165 188.386 62.3342 189.204C63.1519 190.022 64.261 190.481 65.4174 190.481C66.5738 190.481 67.6828 190.022 68.5005 189.204C69.3183 188.386 69.7776 187.277 69.7776 186.121C69.7726 182.291 68.4719 178.575 66.0871 175.577C63.7023 172.58 60.3737 170.477 56.6424 169.612V166.445C56.6424 165.289 56.183 164.18 55.3653 163.362C54.5476 162.545 53.4386 162.085 52.2822 162.085C51.1258 162.085 50.0167 162.545 49.199 163.362C48.3813 164.18 47.9219 165.289 47.9219 166.445V169.902C44.0324 171.08 40.6957 173.616 38.5202 177.049C36.3446 180.481 35.4753 184.581 36.0706 188.602C36.6659 192.622 38.6862 196.294 41.7632 198.949C44.8401 201.603 48.7687 203.064 52.8327 203.064C54.9579 203.064 57.0005 203.887 58.5319 205.361C60.0633 206.834 60.9646 208.844 61.0466 210.967C61.1286 213.091 60.3849 215.164 58.9717 216.751C57.5585 218.338 55.5854 219.317 53.4665 219.481C52.8193 219.294 52.137 219.263 51.4755 219.391C49.5583 219.069 47.8169 218.079 46.5599 216.596C45.3029 215.113 44.6115 213.232 44.6082 211.288C44.6082 210.132 44.1488 209.023 43.3311 208.205C42.5134 207.387 41.4043 206.928 40.2479 206.928C39.0915 206.928 37.9825 207.387 37.1648 208.205C36.3471 209.023 35.8877 210.132 35.8877 211.288C35.8926 214.924 37.0645 218.462 39.2309 221.381C41.3974 224.3 44.4439 226.447 47.9219 227.505V231.304C47.9219 232.46 48.3813 233.569 49.199 234.387C50.0167 235.205 51.1258 235.664 52.2822 235.664C53.4386 235.664 54.5476 235.205 55.3653 234.387C56.183 233.569 56.6424 232.46 56.6424 231.304V227.796C60.698 226.86 64.2674 224.465 66.6699 221.067C69.0725 217.668 70.1401 213.504 69.6692 209.369C69.1982 205.234 67.2217 201.416 64.1165 198.645C61.0112 195.874 56.9946 194.343 52.8327 194.343C50.6514 194.343 48.5595 193.477 47.0171 191.934C45.4747 190.392 44.6082 188.3 44.6082 186.119C44.6082 183.938 45.4747 181.846 47.0171 180.303C48.5595 178.761 50.6514 177.894 52.8327 177.894Z" fill="#EB3333"/>
</svg>
