<svg xmlns="http://www.w3.org/2000/svg" width="13.374" height="13.374" viewBox="0 0 13.374 13.374">
  <path id="comment" d="M12.374,5.843a5.761,5.761,0,0,1-.619,2.612A5.843,5.843,0,0,1,6.53,11.686a5.761,5.761,0,0,1-2.612-.619L0,12.374,1.306,8.455A5.761,5.761,0,0,1,.687,5.843,5.843,5.843,0,0,1,3.918.619,5.761,5.761,0,0,1,6.53,0h.344a5.829,5.829,0,0,1,5.5,5.5v.344Z" transform="translate(0.5 0.5)" fill="none" stroke="#6c7b8a" stroke-linecap="round" stroke-linejoin="round" stroke-miterlimit="10" stroke-width="1"/>
</svg>
