<svg xmlns="http://www.w3.org/2000/svg" width="52.428" height="44.353" viewBox="0 0 52.428 44.353"><g transform="translate(21.344)"><g transform="translate(5 31.7)"><path d="M1.081,458.042H24.858a1.01,1.01,0,0,0,1.081-1.056v-2.112a1.01,1.01,0,0,0-1.081-1.056H1.081A1.01,1.01,0,0,0,0,454.874v2.112A1.01,1.01,0,0,0,1.081,458.042Z" transform="translate(0 -453.818)" fill="#f6b545"/><g transform="translate(0 1.056)"><path d="M5.4,465.454v1.056a1.01,1.01,0,0,0,1.081,1.056H25.939a1.01,1.01,0,0,1-1.081,1.056H1.081A1.01,1.01,0,0,1,0,467.566v-2.112H5.4Z" transform="translate(0 -465.454)" fill="#f19920"/><path d="M23.273,467.566v-1.584a.541.541,0,0,1,1.081,0v1.584" transform="translate(-0.576 -465.454)" fill="#f19920"/><path d="M58.182,467.566v-1.584a.541.541,0,0,1,1.081,0v1.584" transform="translate(-38.728 -465.454)" fill="#f19920"/><path d="M93.091,467.566v-1.584a.541.541,0,0,1,1.081,0v1.584" transform="translate(-76.879 -465.454)" fill="#f19920"/><path d="M128,467.566v-1.584a.541.541,0,0,1,1.081,0v1.584" transform="translate(-115.03 -465.454)" fill="#f19920"/><path d="M162.909,467.566v-1.584a.541.541,0,0,1,1.081,0v1.584" transform="translate(-153.182 -465.454)" fill="#f19920"/><path d="M197.819,467.566v-1.584a.541.541,0,0,1,1.081,0v1.584" transform="translate(-191.334 -465.454)" fill="#f19920"/></g></g></g><g transform="translate(-5)"><g transform="translate(0 -0.428)"><path d="M24.288,458.042H1.056A1,1,0,0,1,0,456.986v-2.112a1,1,0,0,1,1.056-1.056H24.288a1,1,0,0,1,1.056,1.056v2.112A1,1,0,0,1,24.288,458.042Z" transform="translate(5 -421.69)" fill="#f6b545"/><g transform="translate(5 33.184)"><path d="M20.064,465.454v1.056a1,1,0,0,1-1.056,1.056H0a1,1,0,0,0,1.056,1.056H24.288a1,1,0,0,0,1.056-1.056v-2.112h-5.28Z" transform="translate(0 -465.454)" fill="#f19920"/><path d="M24.329,467.566v-1.584a.528.528,0,0,0-1.056,0v1.584" transform="translate(-21.161 -465.454)" fill="#f19920"/><path d="M59.238,467.566v-1.584a.528.528,0,0,0-1.056,0v1.584" transform="translate(-52.902 -465.454)" fill="#f19920"/><path d="M94.147,467.566v-1.584a.528.528,0,0,0-1.056,0v1.584" transform="translate(-84.643 -465.454)" fill="#f19920"/><path d="M129.056,467.566v-1.584a.528.528,0,0,0-1.056,0v1.584" transform="translate(-116.384 -465.454)" fill="#f19920"/><path d="M163.965,467.566v-1.584a.528.528,0,0,0-1.056,0v1.584" transform="translate(-148.125 -465.454)" fill="#f19920"/><path d="M198.875,467.566v-1.584a.528.528,0,0,0-1.056,0v1.584" transform="translate(-179.867 -465.454)" fill="#f19920"/></g></g></g><g transform="translate(17.456 18)"><g transform="translate(8 17.904)"><path d="M1.036,458.042H23.825a.988.988,0,0,0,1.036-1.056v-2.112a.988.988,0,0,0-1.036-1.056H1.036A.988.988,0,0,0,0,454.874v2.112A.988.988,0,0,0,1.036,458.042Z" transform="translate(2.112 -449.594)" fill="#f6b545"/><path d="M0,454.875H20.064a1,1,0,0,0-1.056-1.056H0Z" transform="translate(6.908 -449.595)" fill="#ffcb5b"/><g transform="translate(2.112 5.28)"><path d="M5.179,465.454v1.056a.988.988,0,0,0,1.036,1.056H24.86a.988.988,0,0,1-1.036,1.056H1.036A.988.988,0,0,1,0,467.566v-2.112H5.179Z" transform="translate(0 -465.454)" fill="#f19920"/><path d="M23.273,467.566v-1.584a.528.528,0,0,1,1.056,0v1.584" transform="translate(-1.581 -465.454)" fill="#f19920"/><path d="M58.182,467.566v-1.584a.528.528,0,0,1,1.056,0v1.584" transform="translate(-39.552 -465.454)" fill="#f19920"/><path d="M93.091,467.566v-1.584a.528.528,0,0,1,1.056,0v1.584" transform="translate(-77.566 -465.454)" fill="#f19920"/><path d="M128,467.566v-1.584a.528.528,0,0,1,1.056,0v1.584" transform="translate(-115.58 -465.454)" fill="#f19920"/><path d="M162.909,467.566v-1.584a.528.528,0,0,1,1.056,0v1.584" transform="translate(-153.594 -465.454)" fill="#f19920"/><path d="M197.819,467.566v-1.584a.528.528,0,0,1,1.056,0v1.584" transform="translate(-191.609 -465.454)" fill="#f19920"/></g><path d="M24.309,411.5H47.1a.988.988,0,0,0,1.036-1.056v-2.112a.988.988,0,0,0-1.036-1.056H24.309a.988.988,0,0,0-1.036,1.056v2.112A.988.988,0,0,0,24.309,411.5Z" transform="translate(-23.273 -407.273)" fill="#f6b545"/><path d="M23.273,408.329H43.337a1,1,0,0,0-1.056-1.056H23.273Z" transform="translate(-18.477 -407.273)" fill="#ffcb5b"/><g transform="translate(0 1.056)"><path d="M28.452,418.908v1.056a.988.988,0,0,0,1.036,1.056H48.133a.988.988,0,0,1-1.036,1.056H24.309a.988.988,0,0,1-1.036-1.056v-2.112h5.179Z" transform="translate(-23.273 -418.908)" fill="#f19920"/><path d="M46.546,421.021v-1.584a.528.528,0,1,1,1.056,0v1.584" transform="translate(-24.854 -418.909)" fill="#f19920"/><path d="M81.455,421.021v-1.584a.528.528,0,1,1,1.056,0v1.584" transform="translate(-62.825 -418.909)" fill="#f19920"/><path d="M116.364,421.021v-1.584a.528.528,0,1,1,1.056,0v1.584" transform="translate(-100.839 -418.909)" fill="#f19920"/><path d="M151.273,421.021v-1.584a.528.528,0,1,1,1.056,0v1.584" transform="translate(-138.853 -418.909)" fill="#f19920"/><path d="M186.182,421.021v-1.584a.528.528,0,1,1,1.056,0v1.584" transform="translate(-176.867 -418.909)" fill="#f19920"/><path d="M221.091,421.021v-1.584a.528.528,0,1,1,1.056,0v1.584" transform="translate(-214.881 -418.909)" fill="#f19920"/></g></g></g><path d="M24.288,458.042H1.056A1,1,0,0,1,0,456.986v-2.112a1,1,0,0,1,1.056-1.056H24.288a1,1,0,0,1,1.056,1.056v2.112A1,1,0,0,1,24.288,458.042Z" transform="translate(0 -413.69)" fill="#f6b545"/><path d="M20.064,454.875H0a1,1,0,0,1,1.056-1.056H20.064Z" transform="translate(0 -413.691)" fill="#ffcb5b"/><g transform="translate(0 41.184)"><path d="M20.064,465.454v1.056a1,1,0,0,1-1.056,1.056H0a1,1,0,0,0,1.056,1.056H24.288a1,1,0,0,0,1.056-1.056v-2.112h-5.28Z" transform="translate(0 -465.454)" fill="#f19920"/><path d="M24.329,467.566v-1.584a.528.528,0,0,0-1.056,0v1.584" transform="translate(-21.161 -465.454)" fill="#f19920"/><path d="M59.238,467.566v-1.584a.528.528,0,0,0-1.056,0v1.584" transform="translate(-52.902 -465.454)" fill="#f19920"/><path d="M94.147,467.566v-1.584a.528.528,0,0,0-1.056,0v1.584" transform="translate(-84.643 -465.454)" fill="#f19920"/><path d="M129.056,467.566v-1.584a.528.528,0,0,0-1.056,0v1.584" transform="translate(-116.384 -465.454)" fill="#f19920"/><path d="M163.965,467.566v-1.584a.528.528,0,0,0-1.056,0v1.584" transform="translate(-148.125 -465.454)" fill="#f19920"/><path d="M198.875,467.566v-1.584a.528.528,0,0,0-1.056,0v1.584" transform="translate(-179.867 -465.454)" fill="#f19920"/></g><path d="M47.561,411.5H24.329a1,1,0,0,1-1.056-1.056v-2.112a1,1,0,0,1,1.056-1.056H47.561a1,1,0,0,1,1.056,1.056v2.112A1,1,0,0,1,47.561,411.5Z" transform="translate(-21.161 -371.369)" fill="#f6b545"/><path d="M43.337,408.329H23.273a1,1,0,0,1,1.056-1.056H43.337Z" transform="translate(-21.161 -371.369)" fill="#ffcb5b"/><g transform="translate(2.112 36.96)"><path d="M43.337,418.908v1.056a1,1,0,0,1-1.056,1.056H23.273a1,1,0,0,0,1.056,1.056H47.561a1,1,0,0,0,1.056-1.056v-2.112h-5.28Z" transform="translate(-23.273 -418.908)" fill="#f19920"/><path d="M47.6,421.021v-1.584a.528.528,0,1,0-1.056,0v1.584" transform="translate(-44.434 -418.909)" fill="#f19920"/><path d="M82.511,421.021v-1.584a.528.528,0,1,0-1.056,0v1.584" transform="translate(-76.175 -418.909)" fill="#f19920"/><path d="M117.42,421.021v-1.584a.528.528,0,1,0-1.056,0v1.584" transform="translate(-107.916 -418.909)" fill="#f19920"/><path d="M152.329,421.021v-1.584a.528.528,0,1,0-1.056,0v1.584" transform="translate(-139.657 -418.909)" fill="#f19920"/><path d="M187.238,421.021v-1.584a.528.528,0,1,0-1.056,0v1.584" transform="translate(-171.398 -418.909)" fill="#f19920"/><path d="M222.147,421.021v-1.584a.528.528,0,1,0-1.056,0v1.584" transform="translate(-203.139 -418.909)" fill="#f19920"/></g><path d="M107.833,49.124a5.062,5.062,0,0,1-2.112-4.224,24.13,24.13,0,0,0-7.075-17.107l-4.541-4.541V20.084l3.7-4.646a2.523,2.523,0,0,0,.528-1.479,2.344,2.344,0,0,0-2.323-2.323H91.993l-1.056,2.112-2.112-2.112H83.756a2.344,2.344,0,0,0-2.323,2.323,2.523,2.523,0,0,0,.528,1.478l3.7,4.646v3.168l-4.541,4.541A24.13,24.13,0,0,0,74.041,44.9h0a5.062,5.062,0,0,1-2.112,4.224,5.062,5.062,0,0,0-2.112,4.224h0a2.614,2.614,0,0,0,2.64,2.64h34.848a2.614,2.614,0,0,0,2.64-2.64h0A5.062,5.062,0,0,0,107.833,49.124Z" transform="translate(-63.481 -11.636)" fill="#c97629"/><path d="M108.893,49.124a5.4,5.4,0,0,1-2.112-4.33c.106-6.653-2.957-12.883-7.6-17.635l-4.013-3.907V20.084l3.7-4.646a2.371,2.371,0,0,0,.211-2.746,2.346,2.346,0,0,0-2.112-1.056,1.116,1.116,0,0,0-.95,1.478,1.989,1.989,0,0,1,.211.845,2.523,2.523,0,0,1-.528,1.478L92,20.084v3.168h-5.28L85.66,24.308h7.392l3.907,3.907c4.33,4.33,6.019,10.243,5.6,16.262a5.284,5.284,0,0,0,2.006,4.541c.106.106.211.211.317.211a2.772,2.772,0,0,1-2.218,4.541H70.982a2.607,2.607,0,0,0,2.534,2.112h34.848a2.614,2.614,0,0,0,2.64-2.64v-.211A4.909,4.909,0,0,0,108.893,49.124Z" transform="translate(-64.54 -11.636)" fill="#b06328"/><path d="M232.178,107.894h-9.5a1.624,1.624,0,0,1-1.584-1.584h0a1.624,1.624,0,0,1,1.584-1.584h9.5a1.624,1.624,0,0,1,1.584,1.584h0A1.624,1.624,0,0,1,232.178,107.894Z" transform="translate(-201.026 -96.278)" fill="#ffcb5b"/><path d="M233.255,104.727h5.28a.5.5,0,0,1,.528.528h0a.5.5,0,0,1-.528.528h-5.28a.5.5,0,0,1-.528-.528h0A.5.5,0,0,1,233.255,104.727Z" transform="translate(-211.607 -96.279)" fill="#ffe278"/><path d="M233.237,104.727h-.528v1.056a1,1,0,0,1-1.056,1.056h-9.4a1.588,1.588,0,0,0,1.478,1.056h9.5a1.584,1.584,0,1,0,0-3.168Z" transform="translate(-202.085 -96.279)" fill="#f6b545"/><path d="M303.074,128h3.168a.5.5,0,0,1,.528.528h0a.5.5,0,0,1-.528.528h-3.168a.5.5,0,0,1-.528-.528h0A.5.5,0,0,1,303.074,128Z" transform="translate(-275.09 -117.44)" fill="#f19920"/><rect width="2.112" height="8.448" transform="translate(25.344 11.616)" fill="#f6b545"/><path d="M279.273,139.636v1.056h1.056v7.392h1.056v-8.448Z" transform="translate(-253.929 -128.02)" fill="#f19920"/><ellipse cx="8.448" cy="8.448" rx="8.448" ry="8.448" transform="translate(17.952 19.008)" fill="#f6b545"/><path d="M243.391,254.836a8.077,8.077,0,0,1,2.006,5.386,8.473,8.473,0,0,1-8.448,8.448,8.077,8.077,0,0,1-5.386-2.006,8.379,8.379,0,0,0,6.442,3.062,8.473,8.473,0,0,0,8.448-8.448A8.066,8.066,0,0,0,243.391,254.836Z" transform="translate(-210.549 -232.766)" fill="#b06328"/><ellipse cx="7.392" cy="7.392" rx="7.392" ry="7.392" transform="translate(19.008 20.064)" fill="#ffcb5b"/><path d="M298.3,314.182a7.347,7.347,0,0,1-7.392,7.392v1.056a8.473,8.473,0,0,0,8.448-8.448Z" transform="translate(-264.509 -286.726)" fill="#f19920"/><path d="M206.266,222.147v-1.056a8.473,8.473,0,0,0-8.448,8.448h1.056A7.347,7.347,0,0,1,206.266,222.147Z" transform="translate(-179.866 -202.083)" fill="#ffe27a"/><g transform="translate(19.678 317.939)"><path d="M28.409-296.529a4.679,4.679,0,0,0-.913.254c-.078.047-.1.108-.108.327l-.013.271-.194.022a3.351,3.351,0,0,0-.9.31,3.036,3.036,0,0,0-1.6,1.694c-.052.194.013.619.09.619.022,0,.039-.1.039-.228a1.453,1.453,0,0,1,.1-.495,1.736,1.736,0,0,1,.418-.654c.026,0,.043-.03.043-.065a3.229,3.229,0,0,1,1.094-.765,9.107,9.107,0,0,1,.888-.288c.026,0,.043.116.043.254a.447.447,0,0,1-.168.43,2.394,2.394,0,0,1-.81.477,5.951,5.951,0,0,0-.832.387c-.246.138-.289.219-.3.572-.017.675-.121.847-.521.847a.709.709,0,0,0-.327.082c-.116.069-.142.12-.168.3a.878.878,0,0,0,.625.967,3.994,3.994,0,0,1,.965.611c.138.241.513.374,1.116.387a.929.929,0,0,1,.668.163,1.564,1.564,0,0,1,.327.258c.069.095.073.125.022.241a.253.253,0,0,1-.332.146c-.073-.017-.095,0-.095.064,0,.146.25.168.491.047.306-.151.383-.254.366-.486l-.017-.194.121.116a4.293,4.293,0,0,1,.607.813c.017.056.052.1.073.1s.034.013.03.03a.8.8,0,0,0,.116.314,3.157,3.157,0,0,1,.146.477c.22.907.026,1.526-.526,1.664-.207.056-.332.146-.332.249a1.327,1.327,0,0,1-.293.542c-.06.065-.1.129-.086.142a2.02,2.02,0,0,0,.379.09,8.638,8.638,0,0,0,1.676.047,4.945,4.945,0,0,0,1.723-.142c.009-.009-.039-.06-.108-.116a.87.87,0,0,1-.211-.357c-.108-.323-.172-.391-.444-.469-.375-.112-.521-.34-.556-.882a3.249,3.249,0,0,1,.913-2.357l.172-.194.03.181c.03.189.125.292.4.443.215.125.457.073.457-.095,0-.073-.013-.077-.108-.034s-.129.034-.224-.034a.249.249,0,0,1-.069-.361,1.579,1.579,0,0,1,.349-.245.964.964,0,0,1,.676-.163,1.38,1.38,0,0,0,1.064-.353,2.522,2.522,0,0,1,.366-.3,4.581,4.581,0,0,1,.8-.426.875.875,0,0,0,.28-.206.759.759,0,0,0,.185-.761.294.294,0,0,0-.194-.241.915.915,0,0,0-.3-.06.443.443,0,0,1-.418-.181,1.96,1.96,0,0,1-.082-.516c-.022-.331-.047-.447-.116-.538a4.169,4.169,0,0,0-1.172-.632,1.74,1.74,0,0,1-.741-.5c-.078-.107-.138-.546-.078-.585a4.191,4.191,0,0,1,.793.241,1,1,0,0,0,.207.082,2.2,2.2,0,0,1,.625.4.092.092,0,0,0,.073.034,2.7,2.7,0,0,1,.633.74c.026.064.06.12.082.12s.039.034.039.077a.2.2,0,0,0,.043.12.956.956,0,0,1,.073.331c.043.473.168.305.134-.176a1.05,1.05,0,0,0-.181-.525,3.877,3.877,0,0,0-1.237-1.174,3.917,3.917,0,0,0-1.073-.409l-.194-.03-.013-.271c-.017-.323-.043-.344-.569-.486a7.943,7.943,0,0,0-2.09-.1C29.314-296.542,28.483-296.538,28.409-296.529Zm-.2.211c-.125.151.271.279,1.017.323a20.158,20.158,0,0,0,2.3-.047c.289-.056.521-.146.521-.206a.148.148,0,0,0-.047-.082c-.034-.034,0-.043.138-.026.25.03.6.181.6.258,0,.112-.4.237-1.034.323a16.409,16.409,0,0,1-3.317-.026c-.5-.082-.819-.2-.819-.305,0-.077.237-.194.5-.237.095-.017.181-.034.19-.039S28.241-296.357,28.211-296.318Zm2.266,1.479c.1.026.056.034-.177.039a1.94,1.94,0,0,0-1.366.559c-.194.181-.211.189-.28.116s-.065-.086.116-.245A2.162,2.162,0,0,1,30.477-294.839Zm.3.237a1.812,1.812,0,0,1,.866.5c.172.172.2.228.164.284-.078.125-.125.108-.276-.1a1.989,1.989,0,0,0-.4-.366,1.589,1.589,0,0,0-1.06-.288c-.358.013-.4,0-.164-.052A2.081,2.081,0,0,1,30.779-294.6Zm-.607,2.086c.022,0,.349-.228.732-.5s.763-.55.844-.611c.116-.082.134-.09.082-.026a21.191,21.191,0,0,1-1.715,2.055c-.017-.017-.457-.645-.974-1.389s-.991-1.423-1.051-1.5a10.028,10.028,0,0,1,.969.912C29.65-292.994,30.15-292.517,30.171-292.517Zm.026-1.935a.043.043,0,0,1-.043.043.046.046,0,0,1-.043-.043.043.043,0,0,1,.043-.043A.041.041,0,0,1,30.2-294.452Zm-1.676.791a1.88,1.88,0,0,0-.168.993,1.319,1.319,0,0,0,.181.77,1.979,1.979,0,0,0,1.943,1.135l.3-.022-.215.052a1.7,1.7,0,0,1-.948-.022,1.937,1.937,0,0,1-.982-.555,2.032,2.032,0,0,1-.418-2.361l.134-.288.108.125C28.53-293.751,28.552-293.7,28.521-293.661Zm3.585.288a1.822,1.822,0,0,1-.478,1.939,1.818,1.818,0,0,1-1.43.538,1.9,1.9,0,0,1-.754-.211c-.026-.021.009-.021.078,0a1.869,1.869,0,0,0,1.417-.086,1.831,1.831,0,0,0,.939-2.06c-.043-.206-.043-.271,0-.323C31.964-293.674,32.02-293.626,32.106-293.373Zm-1.56-.095a.367.367,0,0,1,.125.284.426.426,0,0,1-.379.409.5.5,0,0,1-.4-.292.418.418,0,0,1,.168-.46A.379.379,0,0,1,30.546-293.467Zm-2.981.4c-.026.1-.052.206-.056.232a.628.628,0,0,1-.06.138,5.042,5.042,0,0,0,.009,1.527,1.288,1.288,0,0,0,.194.421c.013.013.078.09.142.176l.116.155-.371-.013c-.4-.017-.53-.043-.53-.112a.885.885,0,0,0-.151-.232,1.119,1.119,0,0,1-.151-.211,3.92,3.92,0,0,0-.681-.568,1.889,1.889,0,0,0-.53-.224c-.289-.069-.353-.133-.138-.133a1.209,1.209,0,0,0,.659-.366c.134-.181.2-.194.108-.022a.665.665,0,0,0-.065.163c0,.056.379-.013.612-.116a1.893,1.893,0,0,0,.879-.933c.017-.06.034-.1.047-.086A.54.54,0,0,1,27.565-293.072Zm5.386.271a2.13,2.13,0,0,0,.315.344,1.733,1.733,0,0,0,.784.327c.151,0,.164-.009.138-.1a1.451,1.451,0,0,1-.047-.224c-.022-.129-.022-.129.022.009.026.077.065.142.086.142s.043.026.043.06c0,.082.483.327.642.327.22,0,.151.064-.134.125a2.65,2.65,0,0,0-1.443,1.109l-.146.228h-.267a2.207,2.207,0,0,0-.422.039l-.159.034.168-.219a1.487,1.487,0,0,0,.168-.254,1.529,1.529,0,0,1,.095-.237,1.843,1.843,0,0,0,.112-.839c.013-.494,0-.658-.047-.731a2.449,2.449,0,0,1-.2-.6c0-.03.03,0,.065.082A2.3,2.3,0,0,0,32.95-292.8Zm-4.412-.06c.013.022,0,.043-.039.043s-.069-.021-.069-.043a.04.04,0,0,1,.039-.043A.082.082,0,0,1,28.539-292.861Zm3.3,0a.043.043,0,0,1-.043.043.046.046,0,0,1-.043-.043.043.043,0,0,1,.043-.043A.041.041,0,0,1,31.835-292.861ZM30.2-291.115c0,.034-.022.052-.043.039a.052.052,0,0,1-.022-.069C30.171-291.205,30.2-291.192,30.2-291.115Z" transform="translate(-23.337)"/><path d="M.789-221.918a1.152,1.152,0,0,0-.544.584c-.077.157-.153.314-.172.347a.218.218,0,0,0,.037.274c.037.036.146.157.245.27a4.063,4.063,0,0,0,.69.617c.011,0,.146.08.3.175a3.263,3.263,0,0,0,.358.2c.037.011.208.073.38.135a3.379,3.379,0,0,0,.847.219.437.437,0,0,1,.219.1.96.96,0,0,0,.482.263c.124,0,.124-.095,0-.124a1.084,1.084,0,0,1-.241-.124c-.08-.055-.19-.124-.237-.157a1.084,1.084,0,0,0-.314-.1,5.537,5.537,0,0,1-.774-.223,3.644,3.644,0,0,1-1.486-.993l-.394-.4.069-.1a.61.61,0,0,0,.095-.2.259.259,0,0,1,.058-.12.118.118,0,0,0,.033-.091c0-.109.281-.387.478-.482a.506.506,0,0,0,.179-.106C1.1-222,.9-221.98.789-221.918Z" transform="translate(0 -71.233)"/><path d="M219.754-221.964c0,.018.051.051.113.073a1.056,1.056,0,0,1,.266.164c.139.109.182.19.383.642a1.528,1.528,0,0,0,.084.157c.04.055.029.08-.088.19a.634.634,0,0,0-.139.153.859.859,0,0,1-.172.2,4.447,4.447,0,0,1-2.256,1.143.9.9,0,0,0-.347.146c-.131.124-.387.245-.456.215-.047-.015-.058,0-.047.047.029.157.274.091.526-.142a.7.7,0,0,1,.42-.157,5.149,5.149,0,0,0,1.4-.515c.142-.088.288-.172.329-.19a2.058,2.058,0,0,0,.285-.219,1.157,1.157,0,0,1,.248-.186c.018,0,.033-.022.033-.047a.923.923,0,0,1,.219-.259c.179-.172.219-.23.219-.329a.364.364,0,0,0-.029-.153.843.843,0,0,1-.095-.193,1.194,1.194,0,0,0-.529-.657C219.911-221.993,219.754-222.029,219.754-221.964Z" transform="translate(-207.328 -71.216)"/><path d="M89.664-35.858a1,1,0,0,1-.347.077c-.27.022-.318.047-.318.179s.252.219.876.307a10,10,0,0,0,1.77.084A10.537,10.537,0,0,0,93.2-35.27c.19-.033.42-.069.511-.08a1.415,1.415,0,0,0,.339-.1c.146-.066.172-.095.172-.183,0-.11-.022-.12-.35-.153a1.013,1.013,0,0,1-.318-.08c-.124-.058-.142-.058-.35,0a11.311,11.311,0,0,1-3.179,0C89.825-35.931,89.767-35.931,89.664-35.858Z" transform="translate(-84.795 -249.427)"/><path d="M80.437-21.883l.033.2c.026.113.35.237,1,.383a7.491,7.491,0,0,0,1.478.095,7.967,7.967,0,0,0,2.92-.266c.321-.106.42-.193.42-.383,0-.077-.015-.142-.029-.142a1.186,1.186,0,0,0-.212.084,11.144,11.144,0,0,1-4.355.263,4.7,4.7,0,0,1-1.015-.256A1.443,1.443,0,0,0,80.448-22C80.43-22,80.426-21.945,80.437-21.883Z" transform="translate(-76.535 -262.832)"/></g></svg>