<svg xmlns="http://www.w3.org/2000/svg" width="18.82" height="23.513" viewBox="0 0 18.82 23.513">
  <g id="shopping-bag" transform="translate(-48.8)">
    <path id="Path_2352" data-name="Path 2352" d="M67.615,20.325,66.269,5.164a.648.648,0,0,0-.644-.591h-2.77a4.645,4.645,0,0,0-9.29,0H50.8a.645.645,0,0,0-.644.591L48.8,20.325c0,.019,0,.038,0,.058a3.351,3.351,0,0,0,3.529,3.13H64.09a3.351,3.351,0,0,0,3.529-3.13A.234.234,0,0,0,67.615,20.325ZM58.21,1.3a3.35,3.35,0,0,1,3.347,3.274H54.863A3.35,3.35,0,0,1,58.21,1.3ZM64.09,22.214H52.329a2.071,2.071,0,0,1-2.231-1.8L51.387,5.876H53.56V7.847a.649.649,0,1,0,1.3,0V5.876h6.7V7.847a.649.649,0,1,0,1.3,0V5.876h2.173l1.293,14.535A2.075,2.075,0,0,1,64.09,22.214Z" fill="#fff"/>
  </g>
</svg>
