<svg id="facebook_1_" data-name="facebook (1)" xmlns="http://www.w3.org/2000/svg" width="23.513" height="23.513" viewBox="0 0 23.513 23.513">
  <path id="Path_2367" data-name="Path 2367" d="M291.15,508.668q-.147.024-.295.044Q291,508.692,291.15,508.668Zm0,0" transform="translate(-277.498 -485.308)" fill="#fff"/>
  <path id="Path_2368" data-name="Path 2368" d="M299.48,507.793l-.14.025Zm0,0" transform="translate(-285.593 -484.474)" fill="#fff"/>
  <path id="Path_2369" data-name="Path 2369" d="M277.955,510.34q-.172.019-.346.034Q277.783,510.36,277.955,510.34Zm0,0" transform="translate(-264.861 -486.904)" fill="#fff"/>
  <path id="Path_2370" data-name="Path 2370" d="M286.611,509.738l-.166.021Zm0,0" transform="translate(-273.291 -486.329)" fill="#fff"/>
  <path id="Path_2371" data-name="Path 2371" d="M306.788,506.41l-.124.026Zm0,0" transform="translate(-292.581 -483.154)" fill="#fff"/>
  <path id="Path_2372" data-name="Path 2372" d="M324.584,502.113l-.1.028Zm0,0" transform="translate(-309.583 -479.054)" fill="#fff"/>
  <path id="Path_2373" data-name="Path 2373" d="M319.168,503.543l-.109.028Zm0,0" transform="translate(-304.407 -480.419)" fill="#fff"/>
  <path id="Path_2374" data-name="Path 2374" d="M312.182,505.254l-.116.026Zm0,0" transform="translate(-297.735 -482.051)" fill="#fff"/>
  <path id="Path_2375" data-name="Path 2375" d="M273.666,511.09l-.186.014Zm0,0" transform="translate(-260.921 -487.619)" fill="#fff"/>
  <path id="Path_2376" data-name="Path 2376" d="M23.513,11.756A11.756,11.756,0,1,0,11.756,23.513l.207,0V14.358H9.437V11.415h2.526V9.249a3.536,3.536,0,0,1,3.774-3.879A20.792,20.792,0,0,1,18,5.485V8.11H16.457C15.238,8.11,15,8.69,15,9.54v1.875h2.915l-.38,2.944H15v8.7a11.763,11.763,0,0,0,8.511-11.3Zm0,0" fill="#fff"/>
  <path id="Path_2377" data-name="Path 2377" d="M265.259,511.43q-.184.012-.368.018Q265.075,511.442,265.259,511.43Zm0,0" transform="translate(-252.726 -487.943)" fill="#fff"/>
  <path id="Path_2378" data-name="Path 2378" d="M260.7,511.836l-.2,0Zm0,0" transform="translate(-248.541 -488.331)" fill="#fff"/>
</svg>
