<svg xmlns="http://www.w3.org/2000/svg" width="21.273" height="21.273" viewBox="0 0 21.273 21.273">
  <g id="Group_2824" data-name="Group 2824" transform="translate(-511 -649)">
    <g id="instagram_1_" data-name="instagram (1)" transform="translate(511 649)">
      <path id="Path_2379" data-name="Path 2379" d="M154.883,150.5a4.383,4.383,0,1,0,4.383,4.383A4.388,4.388,0,0,0,154.883,150.5Zm0,0" transform="translate(-144.247 -144.247)" fill="#fff"/>
      <path id="Path_2380" data-name="Path 2380" d="M19.13,2.144A7.247,7.247,0,0,0,13.975,0H7.3A7.319,7.319,0,0,0,0,7.3v6.676a7.319,7.319,0,0,0,7.3,7.3h6.676a7.319,7.319,0,0,0,7.3-7.3V7.3A7.247,7.247,0,0,0,19.13,2.144ZM10.637,16.267a5.63,5.63,0,1,1,5.63-5.63A5.636,5.636,0,0,1,10.637,16.267ZM16.874,5.281a.623.623,0,1,1,.183-.441A.628.628,0,0,1,16.874,5.281Zm0,0" fill="#fff"/>
    </g>
    <circle id="Ellipse_546" data-name="Ellipse 546" cx="1.25" cy="1.25" r="1.25" transform="translate(526 652)" fill="#7c63ff"/>
  </g>
</svg>
