<svg xmlns="http://www.w3.org/2000/svg" width="21.946" height="25.055" viewBox="0 0 21.946 25.055">
  <g id="missions" transform="translate(-31.916 0.101)">
    <g id="Group_2753" data-name="Group 2753" transform="translate(36.287 5.826)">
      <g id="Group_2752" data-name="Group 2752" transform="translate(0)">
        <circle id="Ellipse_542" data-name="Ellipse 542" cx="0.388" cy="0.388" r="0.388" fill="#fff" stroke="#fff" stroke-width="0.2"/>
      </g>
    </g>
    <g id="Group_2755" data-name="Group 2755" transform="translate(36.287 3.884)">
      <g id="Group_2754" data-name="Group 2754" transform="translate(0)">
        <circle id="Ellipse_543" data-name="Ellipse 543" cx="0.388" cy="0.388" r="0.388" fill="#fff" stroke="#fff" stroke-width="0.2"/>
      </g>
    </g>
    <g id="Group_2757" data-name="Group 2757" transform="translate(48.714 5.826)">
      <g id="Group_2756" data-name="Group 2756">
        <circle id="Ellipse_544" data-name="Ellipse 544" cx="0.388" cy="0.388" r="0.388" fill="#fff" stroke="#fff" stroke-width="0.2"/>
      </g>
    </g>
    <g id="Group_2759" data-name="Group 2759" transform="translate(48.714 3.884)">
      <g id="Group_2758" data-name="Group 2758">
        <circle id="Ellipse_545" data-name="Ellipse 545" cx="0.388" cy="0.388" r="0.388" fill="#fff" stroke="#fff" stroke-width="0.2"/>
      </g>
    </g>
    <g id="Group_2761" data-name="Group 2761" transform="translate(32.016 0)">
      <g id="Group_2760" data-name="Group 2760" transform="translate(0 0)">
        <path id="Path_2353" data-name="Path 2353" d="M53.373,13.592h-.932L49.218,7.573,46.073,9.9l-2.8-4.582V3.5h1.942a.367.367,0,0,0,.388-.388.353.353,0,0,0-.155-.311L43.161.118A.3.3,0,0,0,42.772.04.373.373,0,0,0,42.5.389V5.321l-3.184,4.932L36.559,7.5l-3.223,6.1H32.4a.367.367,0,0,0-.388.388v.039A10.889,10.889,0,0,0,42.85,24.854h.078A10.889,10.889,0,0,0,53.762,14.019v-.039A.367.367,0,0,0,53.373,13.592ZM43.277,1.438l1.087,1.281H43.277ZM32.87,14.369h3.611a17.633,17.633,0,0,0,.582,4.194c-2.408-.932-4.039-2.485-4.271-4.194Zm.349,2.563a9.167,9.167,0,0,0,4.155,2.563,10.4,10.4,0,0,0,2.563,4.155A10.36,10.36,0,0,1,33.22,16.932ZM42.5,24.038c-1.747-.233-3.262-1.864-4.194-4.271a15.828,15.828,0,0,0,4.194.621Zm0-4.427a16.628,16.628,0,0,1-4.543-.7,16.4,16.4,0,0,1-.7-4.543H42.5Zm-8.271-6.019,2.524-4.776L39.433,11.5l3.456-5.32,2.99,4.893,3.068-2.33,2.6,4.854Zm14.29.777a16.628,16.628,0,0,1-.7,4.543,16.4,16.4,0,0,1-4.543.7V14.369Zm-5.242,9.669v-3.65a17.633,17.633,0,0,0,4.194-.582C46.539,22.213,45.025,23.844,43.277,24.038Zm2.563-.388A9.167,9.167,0,0,0,48.4,19.495a10.4,10.4,0,0,0,4.155-2.563A10.36,10.36,0,0,1,45.84,23.65Zm2.835-5.087a16.086,16.086,0,0,0,.582-4.194h3.689C52.713,16.116,51.082,17.631,48.675,18.563Z" transform="translate(-32.016 0)" fill="#fff" stroke="#fff" stroke-width="0.2"/>
      </g>
    </g>
    <g id="Group_2763" data-name="Group 2763" transform="translate(43.665 16.311)">
      <g id="Group_2762" data-name="Group 2762">
        <path id="Path_2354" data-name="Path 2354" d="M272.4,336.032a.367.367,0,0,0-.388.388v.388a.388.388,0,0,0,.777,0v-.388A.367.367,0,0,0,272.4,336.032Z" transform="translate(-272.016 -336.032)" fill="#fff" stroke="#fff" stroke-width="0.2"/>
      </g>
    </g>
    <g id="Group_2765" data-name="Group 2765" transform="translate(41.336 15.922)">
      <g id="Group_2764" data-name="Group 2764">
        <path id="Path_2355" data-name="Path 2355" d="M224.4,328.032a.367.367,0,0,0-.388.388v.388a.388.388,0,0,0,.777,0v-.388A.367.367,0,0,0,224.4,328.032Z" transform="translate(-224.016 -328.032)" fill="#fff" stroke="#fff" stroke-width="0.2"/>
      </g>
    </g>
    <g id="Group_2767" data-name="Group 2767" transform="translate(41.336 17.475)">
      <g id="Group_2766" data-name="Group 2766">
        <path id="Path_2356" data-name="Path 2356" d="M224.4,360.032a.367.367,0,0,0-.388.388v.388a.388.388,0,0,0,.777,0v-.388A.367.367,0,0,0,224.4,360.032Z" transform="translate(-224.016 -360.032)" fill="#fff" stroke="#fff" stroke-width="0.2"/>
      </g>
    </g>
    <g id="Group_2769" data-name="Group 2769" transform="translate(37.841 12.427)">
      <g id="Group_2768" data-name="Group 2768" transform="translate(0)">
        <path id="Path_2357" data-name="Path 2357" d="M152.793,256.032H152.4a.388.388,0,1,0,0,.777h.388a.388.388,0,1,0,0-.777Z" transform="translate(-152.016 -256.032)" fill="#fff" stroke="#fff" stroke-width="0.2"/>
      </g>
    </g>
    <g id="Group_2771" data-name="Group 2771" transform="translate(39.782 12.427)">
      <g id="Group_2770" data-name="Group 2770">
        <path id="Path_2358" data-name="Path 2358" d="M192.793,256.032H192.4a.388.388,0,1,0,0,.777h.388a.388.388,0,1,0,0-.777Z" transform="translate(-192.016 -256.032)" fill="#fff" stroke="#fff" stroke-width="0.2"/>
      </g>
    </g>
    <g id="Group_2773" data-name="Group 2773" transform="translate(35.899 12.427)">
      <g id="Group_2772" data-name="Group 2772" transform="translate(0)">
        <path id="Path_2359" data-name="Path 2359" d="M112.793,256.032H112.4a.388.388,0,1,0,0,.777h.388a.388.388,0,1,0,0-.777Z" transform="translate(-112.016 -256.032)" fill="#fff" stroke="#fff" stroke-width="0.2"/>
      </g>
    </g>
    <g id="Group_2775" data-name="Group 2775" transform="translate(41.336 20.97)">
      <g id="Group_2774" data-name="Group 2774">
        <path id="Path_2360" data-name="Path 2360" d="M224.4,432.032a.367.367,0,0,0-.388.388v1.165a.388.388,0,1,0,.777,0V432.42A.367.367,0,0,0,224.4,432.032Z" transform="translate(-224.016 -432.032)" fill="#fff" stroke="#fff" stroke-width="0.2"/>
      </g>
    </g>
  </g>
</svg>
