<svg xmlns="http://www.w3.org/2000/svg" xmlns:xlink="http://www.w3.org/1999/xlink" width="73" height="73" viewBox="0 0 73 73"><defs><filter id="a" x="0" y="0" width="73" height="73" filterUnits="userSpaceOnUse"><feOffset dy="3" input="SourceAlpha"/><feGaussianBlur stdDeviation="3" result="b"/><feFlood flood-opacity="0.161"/><feComposite operator="in" in2="b"/><feComposite in="SourceGraphic"/></filter></defs><g transform="translate(-60 -266)"><g transform="matrix(1, 0, 0, 1, 60, 266)" filter="url(#a)"><path d="M27.5,0A27.5,27.5,0,1,1,0,27.5,27.5,27.5,0,0,1,27.5,0Z" transform="translate(9 6)" fill="#fff"/></g><g transform="translate(84 284)"><path d="M148.732,15.232c4.232,0,5.754-4.237,6.153-7.718C155.376,3.227,153.348,0,148.732,0s-6.644,3.227-6.153,7.514C142.978,10.995,144.5,15.232,148.732,15.232Z" transform="translate(-137.284)" fill="#403084"/><path d="M56.823,298.463q.2,0,.406.012a3.235,3.235,0,0,0-.707-.744,11.5,11.5,0,0,0-2.8-1.172,12.107,12.107,0,0,1-1.24-.556,6.7,6.7,0,0,1-9.829,0,12.11,12.11,0,0,1-1.24.556,11.5,11.5,0,0,0-2.8,1.172c-1.406,1.05-1.77,3.411-2.055,5.021a28.874,28.874,0,0,0-.44,4.037c-.036,1.046.481,1.193,1.356,1.509a25.335,25.335,0,0,0,3.366.929,33.931,33.931,0,0,0,6.725.837,27.035,27.035,0,0,0,3.28-.237,7.249,7.249,0,0,1,5.973-11.363Z" transform="translate(-36.121 -281.467)" fill="#403084"/><path d="M345.339,375.658a5.8,5.8,0,1,0,5.8,5.8A5.8,5.8,0,0,0,345.339,375.658Z" transform="translate(-324.637 -357.212)" fill="#403084"/><path d="M5,0H0" transform="translate(18.21 24.24)" fill="none" stroke="#fff" stroke-linecap="round" stroke-linejoin="round" stroke-miterlimit="10" stroke-width="2"/></g></g></svg>