<svg xmlns="http://www.w3.org/2000/svg" width="35" height="35" viewBox="0 0 35 35">
  <g id="private_profile" data-name="private profile" transform="translate(-6031 -4475)" opacity="0.59">
    <g id="Ellipse_504" data-name="Ellipse 504" transform="translate(6031 4475)" fill="none" stroke="#0d0d0d" stroke-miterlimit="10" stroke-width="1">
      <circle cx="17.5" cy="17.5" r="17.5" stroke="none"/>
      <circle cx="17.5" cy="17.5" r="17" fill="none"/>
    </g>
    <g id="Ellipse_505" data-name="Ellipse 505" transform="translate(6031 4475)" fill="none" stroke="#0d0d0d" stroke-miterlimit="10" stroke-width="1">
      <circle cx="17.5" cy="17.5" r="17.5" stroke="none"/>
      <circle cx="17.5" cy="17.5" r="17" fill="none"/>
    </g>
    <g id="Ellipse_506" data-name="Ellipse 506" transform="translate(6031 4475)" fill="none" stroke="#0d0d0d" stroke-miterlimit="10" stroke-width="1">
      <circle cx="17.5" cy="17.5" r="17.5" stroke="none"/>
      <circle cx="17.5" cy="17.5" r="17" fill="none"/>
    </g>
    <g id="locked" transform="translate(6036 4484)">
      <path id="Path_2075" data-name="Path 2075" d="M17.63,6.685V4.819A5.093,5.093,0,0,0,12.312,0,5.093,5.093,0,0,0,6.994,4.819V6.685A2.4,2.4,0,0,0,5,9.05v6.5a2.4,2.4,0,0,0,2.4,2.4h9.819a2.4,2.4,0,0,0,2.4-2.4V9.05A2.4,2.4,0,0,0,17.63,6.685ZM7.659,4.819A4.43,4.43,0,0,1,12.312.665a4.43,4.43,0,0,1,4.653,4.155V6.647H7.659Zm11.3,10.726a1.74,1.74,0,0,1-1.738,1.738H7.4a1.74,1.74,0,0,1-1.738-1.738V9.05A1.74,1.74,0,0,1,7.4,7.312h9.819A1.74,1.74,0,0,1,18.959,9.05Z" stroke="#000" stroke-width="0.2"/>
      <path id="Path_2076" data-name="Path 2076" d="M24.329,28A1.331,1.331,0,0,0,23,29.329v1.994a1.329,1.329,0,1,0,2.659,0V29.329A1.331,1.331,0,0,0,24.329,28Zm.665,3.324a.665.665,0,1,1-1.329,0V29.329a.665.665,0,1,1,1.329,0Z" transform="translate(-12.017 -18.694)" stroke="#000" stroke-width="0.2"/>
    </g>
  </g>
</svg>
