<svg xmlns="http://www.w3.org/2000/svg" width="21.274" height="21.274" viewBox="0 0 21.274 21.274">
  <g id="Settings" transform="translate(-0.003)">
    <g id="Group_2776" data-name="Group 2776" transform="translate(0.003 0)">
      <path id="Path_2361" data-name="Path 2361" d="M21.21,9.456a.693.693,0,0,0-.684-.524,2.349,2.349,0,0,1-1.608-4.088.591.591,0,0,0,.065-.8,10.526,10.526,0,0,0-1.685-1.7.592.592,0,0,0-.808.065,2.452,2.452,0,0,1-2.653.6A2.363,2.363,0,0,1,12.4.692a.59.59,0,0,0-.522-.621A10.62,10.62,0,0,0,9.485.065a.592.592,0,0,0-.527.609A2.367,2.367,0,0,1,7.5,2.943a2.458,2.458,0,0,1-2.633-.6.593.593,0,0,0-.8-.068,10.566,10.566,0,0,0-1.721,1.7.592.592,0,0,0,.063.809A2.357,2.357,0,0,1,3,7.44,2.459,2.459,0,0,1,.688,8.878.578.578,0,0,0,.074,9.4a10.656,10.656,0,0,0,0,2.419.7.7,0,0,0,.7.523A2.333,2.333,0,0,1,2.956,13.8a2.365,2.365,0,0,1-.595,2.63.591.591,0,0,0-.065.8,10.564,10.564,0,0,0,1.683,1.7.592.592,0,0,0,.81-.064,2.448,2.448,0,0,1,2.652-.6,2.359,2.359,0,0,1,1.439,2.309A.591.591,0,0,0,9.4,21.2a10.587,10.587,0,0,0,2.393.006.592.592,0,0,0,.527-.609,2.364,2.364,0,0,1,1.455-2.268,2.455,2.455,0,0,1,2.634.6.594.594,0,0,0,.8.067,10.59,10.59,0,0,0,1.721-1.7.591.591,0,0,0-.064-.808,2.357,2.357,0,0,1-.6-2.654,2.381,2.381,0,0,1,2.176-1.442l.132,0a.592.592,0,0,0,.623-.521A10.647,10.647,0,0,0,21.21,9.456ZM10.657,14.208A3.548,3.548,0,1,1,14.2,10.66,3.552,3.552,0,0,1,10.657,14.208Z" transform="translate(-0.003 0)" fill="#fff" fill-rule="evenodd"/>
    </g>
  </g>
</svg>
