<svg xmlns="http://www.w3.org/2000/svg" width="35" height="35" viewBox="0 0 35 35">
  <g id="account_settings_-_cover_photo" data-name="account settings - cover photo" transform="translate(-31 -429)">
    <g id="Group_2535" data-name="Group 2535">
      <g id="Ellipse_468" data-name="Ellipse 468" transform="translate(31 429)" fill="transparent" stroke="#64bcff" stroke-miterlimit="10" stroke-width="1">
        <circle cx="17.5" cy="17.5" r="17.5" stroke="none" />
        <circle cx="17.5" cy="17.5" r="17" fill="none" />
      </g>
    </g>
    <g id="_x33_-Picture" transform="translate(39.971 440)">
      <path id="Path_1808" data-name="Path 1808" d="M14.981,12.9H1.908A1.88,1.88,0,0,1,.03,11.024V1.878A1.88,1.88,0,0,1,1.908,0H14.981a1.88,1.88,0,0,1,1.878,1.878v9.146A1.88,1.88,0,0,1,14.981,12.9ZM1.908.561A1.318,1.318,0,0,0,.591,1.878v9.146a1.318,1.318,0,0,0,1.317,1.317H14.981A1.318,1.318,0,0,0,16.3,11.024V1.878A1.318,1.318,0,0,0,14.981.561Z" transform="translate(-0.001 0)" fill="#64bcff" stroke="#64bcff" stroke-width="0.4" />
      <path id="Path_1809" data-name="Path 1809" d="M34.713,13.366A1.683,1.683,0,1,1,36.4,11.683,1.685,1.685,0,0,1,34.713,13.366Zm0-2.8a1.122,1.122,0,1,0,1.122,1.122A1.123,1.123,0,0,0,34.713,10.561Z" transform="translate(-23.745 -7.195)" fill="#64bcff" stroke="#64bcff" stroke-width="0.4" />
      <path id="Path_1810" data-name="Path 1810" d="M36.167,31.981H29.755a.28.28,0,0,1-.21-.467l4.363-4.908a.29.29,0,0,1,.419,0l3.512,3.951a.281.281,0,0,1,.047.3A1.878,1.878,0,0,1,36.167,31.981Zm-5.787-.561h5.787a1.317,1.317,0,0,0,1.126-.634l-3.174-3.571Z" transform="translate(-21.187 -19.079)" fill="#64bcff" stroke="#64bcff" stroke-width="0.4" />
      <path id="Path_1811" data-name="Path 1811" d="M8.568,22.266H1.907A1.88,1.88,0,0,1,.029,20.389V18.655A.281.281,0,0,1,.1,18.469L4.868,13.1a.29.29,0,0,1,.419,0l5.61,6.311a.28.28,0,0,1,0,.373L8.778,22.172A.279.279,0,0,1,8.568,22.266ZM.59,18.762v1.627a1.318,1.318,0,0,0,1.317,1.317H8.442l1.87-2.1L5.078,13.713Z" transform="translate(0 -9.364)" fill="#64bcff" stroke="#64bcff" stroke-width="0.4" />
    </g>
  </g>
</svg>
