<svg xmlns="http://www.w3.org/2000/svg" width="22.385" height="22.385" viewBox="0 0 22.385 22.385">
  <g id="cancel-_delete" data-name="cancel- delete" transform="translate(-7.5 -7.5)">
    <path id="Path_1842" data-name="Path 1842" d="M18.692,8A10.692,10.692,0,1,0,29.385,18.692,10.7,10.7,0,0,0,18.692,8Zm0,19.6a8.91,8.91,0,1,1,8.91-8.91A8.92,8.92,0,0,1,18.692,27.6Z" stroke="#fff" stroke-width="1"/>
    <path id="Path_1843" data-name="Path 1843" d="M30.867,24.261a.891.891,0,0,0-1.26,0L27.564,26.3l-2.043-2.043a.891.891,0,0,0-1.26,1.26L26.3,27.564l-2.043,2.043a.891.891,0,1,0,1.26,1.26l2.043-2.043,2.043,2.043a.891.891,0,1,0,1.26-1.26l-2.043-2.043,2.043-2.043A.891.891,0,0,0,30.867,24.261Z" transform="translate(-8.872 -8.872)" stroke="#fff" stroke-width="1"/>
  </g>
</svg>
