<svg xmlns="http://www.w3.org/2000/svg" width="35" height="35" viewBox="0 0 35 35">
  <g id="sound_" data-name="sound " transform="translate(-184 -136)" opacity="0.59">
    <g id="speaker" transform="translate(191 146)">
      <g id="Group_2682" data-name="Group 2682" transform="translate(0 0)">
        <path id="Path_2065" data-name="Path 2065" d="M11.732,55.15a7.77,7.77,0,0,0-6.57,3.609H2.189A2.189,2.189,0,0,0,0,60.947v3.966A2.189,2.189,0,0,0,2.189,67.1H5.162a7.77,7.77,0,0,0,6.57,3.609.558.558,0,0,0,.561-.561V55.711A.561.561,0,0,0,11.732,55.15ZM4.917,65.981H2.189a1.067,1.067,0,0,1-1.067-1.067V60.947A1.067,1.067,0,0,1,2.189,59.88H4.917v6.1Zm6.254,3.588a6.693,6.693,0,0,1-5.133-3.181v-6.91A6.693,6.693,0,0,1,11.171,56.3Z" transform="translate(0 -55.15)"/>
        <path id="Path_2066" data-name="Path 2066" d="M328.532,135.6a.561.561,0,0,0-.64.922,4.174,4.174,0,0,1,0,6.852.565.565,0,0,0-.141.781.562.562,0,0,0,.781.141,5.3,5.3,0,0,0,0-8.7Z" transform="translate(-314.043 -132.163)"/>
        <path id="Path_2067" data-name="Path 2067" d="M380.732,79.7a.561.561,0,0,0-.64.922,6.994,6.994,0,0,1,0,11.487.565.565,0,0,0-.141.781.562.562,0,0,0,.781.141,8.117,8.117,0,0,0,0-13.33Z" transform="translate(-364.075 -78.584)"/>
      </g>
    </g>
    <g id="Group_2686" data-name="Group 2686" transform="translate(-5624 -4292)">
      <g id="Ellipse_498" data-name="Ellipse 498" transform="translate(5808 4428)" fill="none" stroke="#0d0d0d" stroke-miterlimit="10" stroke-width="1">
        <circle cx="17.5" cy="17.5" r="17.5" stroke="none"/>
        <circle cx="17.5" cy="17.5" r="17" fill="none"/>
      </g>
    </g>
  </g>
</svg>
