<svg xmlns="http://www.w3.org/2000/svg" width="305" height="305" viewBox="0 0 305 305">
  <g transform="translate(-31 -378)">
    <g transform="translate(31 378)" fill="transparent" stroke="#ffce6f" stroke-miterlimit="10" stroke-width="1">
      <circle cx="152.5" cy="152.5" r="152.5" stroke="none" />
      <circle cx="152.5" cy="152.5" r="152" fill="none" />
    </g>
    <g transform="translate(118.187 456.471)">
      <g transform="translate(29.312 29.31)">
        <ellipse cx="14.774" cy="14.306" rx="14.774" ry="14.306" transform="translate(23.567 0)" stroke-width="0.7" stroke="#ffce6f" stroke-linecap="round" stroke-linejoin="round" stroke-miterlimit="10" fill="none" />
        <g transform="translate(0 41.303)" fill="none" stroke="#ffce6f" stroke-width="0.7">
          <rect width="78.423" height="39.909" rx="6" stroke="none" />
          <rect x="0.35" y="0.35" width="77.723" height="39.209" rx="5.65" fill="none" />
        </g>
      </g>
      <path d="M220.061,453.894a2.935,2.935,0,1,1,2.876-2.364A2.962,2.962,0,0,1,220.061,453.894Zm0,0" transform="translate(-153.377 -316.484)" fill="#ffce6f" />
      <path d="M88.778,453.872H52.936a2.936,2.936,0,0,1,0-5.872H88.778a2.936,2.936,0,0,1,0,5.872Zm0,0" transform="translate(-35.32 -316.462)" fill="#ffce6f" />
      <path d="M301.3,453.872H265.456a2.936,2.936,0,0,1,0-5.872H301.3a2.936,2.936,0,0,1,0,5.872Zm0,0" transform="translate(-185.441 -316.462)" fill="#ffce6f" />
      <path d="M122.974,150.328H10.5A10.512,10.512,0,0,1,0,139.828V10.5A10.512,10.512,0,0,1,10.5,0H122.974a10.512,10.512,0,0,1,10.5,10.5V139.828A10.512,10.512,0,0,1,122.974,150.328ZM10.5,5.872A4.633,4.633,0,0,0,5.873,10.5V139.829a4.633,4.633,0,0,0,4.628,4.628H122.974a4.633,4.633,0,0,0,4.628-4.628V10.5a4.633,4.633,0,0,0-4.628-4.628Zm0,0" transform="translate(0 0)" fill="#ffce6f" />
    </g>
  </g>
</svg>
