<svg xmlns="http://www.w3.org/2000/svg" width="35" height="35" viewBox="0 0 35 35">
  <g id="account_settings" data-name="account settings" transform="translate(-5860 -4475)" opacity="0.59">
    <g id="settings" transform="translate(5866.912 4482)">
      <path id="Path_2068" data-name="Path 2068" d="M108.426,114.572a6.149,6.149,0,1,0,6.149-6.15A6.144,6.144,0,0,0,108.426,114.572Zm3.617-.682a.431.431,0,0,1,.268-.376v.77A.424.424,0,0,1,112.043,113.89Zm.234-1.022v-.449a2.274,2.274,0,1,1,4.548,0v.438l-.035-.006a.582.582,0,0,0-.2-.355c-.1-.11-.234-.25-.536-.575a.488.488,0,0,0-.625-.076,4.288,4.288,0,0,1-2.593.7.491.491,0,0,0-.492.312Zm4.515.627a.424.424,0,0,1,0,.789Zm-3.856,1.08v-1.4a4.943,4.943,0,0,0,2.738-.745c.272.292.424.451.493.53v1.617a1.616,1.616,0,0,1-3.231,0Zm1.643,2.213a2.242,2.242,0,0,0,.764-.136v.218a.574.574,0,0,0,.307.505,1.51,1.51,0,0,1-2.182.015.588.588,0,0,0,.339-.529v-.2A2.447,2.447,0,0,0,114.579,116.788Zm-1.741.848.142.151a2.137,2.137,0,0,0,3.141,0l.155-.165,2.119.821h0c.009,0,.036.017.076.039a5.515,5.515,0,0,1-7.795,0c.038-.021.064-.033.073-.037h0Zm6.059.372a1.8,1.8,0,0,0-.264-.143l-.006,0-2.66-1.03V116.3a2.213,2.213,0,0,0,.795-1.363,1.051,1.051,0,0,0,.688-1.7v-.81a2.9,2.9,0,1,0-5.8,0v.831a.993.993,0,0,0-.234.64,1.052,1.052,0,0,0,.924,1.044,2.24,2.24,0,0,0,.839,1.4v.5l-.372.144-2.285.886-.006,0a1.773,1.773,0,0,0-.264.143,5.523,5.523,0,1,1,8.643,0Zm0,0" transform="translate(-103.908 -103.904)"/>
      <path id="Path_2069" data-name="Path 2069" d="M274.718,8.22h-1.38a0,0,0,0,1,0,0,8.64,8.64,0,0,0-.7-1.694,0,0,0,0,1,0-.005l.977-.977a.97.97,0,0,0,0-1.373l-2.087-2.087a.971.971,0,0,0-1.374,0l-.977.977a0,0,0,0,1,0,0,8.628,8.628,0,0,0-1.694-.7,0,0,0,0,1,0,0V.971A.972.972,0,0,0,266.5,0h-.771a.313.313,0,1,0,0,.625h.771a.347.347,0,0,1,.346.346v1.38a.633.633,0,0,0,.452.6,8,8,0,0,1,1.571.653.633.633,0,0,0,.747-.107l.977-.977a.346.346,0,0,1,.49,0l2.087,2.087a.346.346,0,0,1,0,.49l-.977.977a.632.632,0,0,0-.107.746,8.011,8.011,0,0,1,.653,1.572.633.633,0,0,0,.6.451h1.38a.347.347,0,0,1,.346.346v.746a.313.313,0,1,0,.625,0V9.192a.972.972,0,0,0-.971-.971Zm0,0" transform="translate(-254.354 0)"/>
      <path id="Path_2070" data-name="Path 2070" d="M21.022,11.084a.312.312,0,0,0-.313.313v.746a.347.347,0,0,1-.346.346h-1.38a.633.633,0,0,0-.6.451,8.008,8.008,0,0,1-.653,1.571.633.633,0,0,0,.107.747l.977.977a.346.346,0,0,1,0,.49l-2.087,2.087a.347.347,0,0,1-.49,0l-.977-.977a.633.633,0,0,0-.747-.107,8,8,0,0,1-1.571.653.633.633,0,0,0-.451.6v1.38a.347.347,0,0,1-.346.346H9.192a.347.347,0,0,1-.346-.346v-1.38a.632.632,0,0,0-.452-.6,8,8,0,0,1-1.571-.653.633.633,0,0,0-.747.107l-.977.977a.346.346,0,0,1-.489,0L2.523,16.725a.346.346,0,0,1,0-.489l.977-.977a.633.633,0,0,0,.107-.747,8,8,0,0,1-.653-1.571.633.633,0,0,0-.6-.452H.971a.347.347,0,0,1-.346-.346V9.192a.347.347,0,0,1,.346-.346h1.38a.633.633,0,0,0,.6-.452,8,8,0,0,1,.653-1.571A.633.633,0,0,0,3.5,6.076L2.523,5.1a.346.346,0,0,1,0-.489L4.61,2.523a.346.346,0,0,1,.49,0l.977.977a.632.632,0,0,0,.747.107,8.007,8.007,0,0,1,1.571-.653.632.632,0,0,0,.452-.6V.971A.347.347,0,0,1,9.192.625h.722a.313.313,0,0,0,0-.625H9.192a.972.972,0,0,0-.971.971v1.38a0,0,0,0,1,0,0,8.635,8.635,0,0,0-1.694.7,0,0,0,0,1,0,0l-.977-.977a.971.971,0,0,0-1.374,0L2.081,4.168a.97.97,0,0,0,0,1.373l.977.977a0,0,0,0,1,0,.005,8.632,8.632,0,0,0-.7,1.694,0,0,0,0,1,0,0H.971A.972.972,0,0,0,0,9.192v2.951a.972.972,0,0,0,.971.971h1.38a0,0,0,0,1,0,0,8.623,8.623,0,0,0,.7,1.694,0,0,0,0,1,0,.005l-.977.977a.971.971,0,0,0,0,1.374l2.087,2.087a.972.972,0,0,0,1.373,0l.977-.977a0,0,0,0,1,0,0,8.635,8.635,0,0,0,1.694.7,0,0,0,0,1,0,0v1.38a.972.972,0,0,0,.971.971h2.951a.972.972,0,0,0,.971-.971v-1.38a0,0,0,0,1,0,0,8.634,8.634,0,0,0,1.694-.7,0,0,0,0,1,.005,0l.977.977a.973.973,0,0,0,1.374,0l2.087-2.087a.97.97,0,0,0,0-1.373l-.977-.977a0,0,0,0,1,0-.005,8.635,8.635,0,0,0,.7-1.694,0,0,0,0,1,0,0h1.38a.972.972,0,0,0,.971-.971V11.4a.312.312,0,0,0-.312-.313Zm0,0" transform="translate(0 0)"/>
    </g>
    <g id="Ellipse_499" data-name="Ellipse 499" transform="translate(5860 4475)" fill="none" stroke="#0d0d0d" stroke-miterlimit="10" stroke-width="1">
      <circle cx="17.5" cy="17.5" r="17.5" stroke="none"/>
      <circle cx="17.5" cy="17.5" r="17" fill="none"/>
    </g>
  </g>
</svg>
