<svg width="50" height="50" viewBox="0 0 50 50" fill="none" xmlns="http://www.w3.org/2000/svg">
<path d="M25.8064 3.2258H24.1935V4.8387H25.8064V3.2258Z" fill="#ABABAB"/>
<path d="M10.173 11.3139L11.3134 10.1734L10.173 9.03292L9.03248 10.1734L10.173 11.3139Z" fill="#ABABAB"/>
<path d="M4.8387 24.1935H3.2258V25.8064H4.8387V24.1935Z" fill="#ABABAB"/>
<path d="M10.1703 40.9645L11.3108 39.824L10.1703 38.6835L9.02985 39.824L10.1703 40.9645Z" fill="#ABABAB"/>
<path d="M25.8064 45.1612H24.1935V46.7741H25.8064V45.1612Z" fill="#ABABAB"/>
<path d="M39.8211 40.9631L40.9616 39.8226L39.8211 38.6821L38.6806 39.8226L39.8211 40.9631Z" fill="#ABABAB"/>
<path d="M46.7742 24.1935H45.1613V25.8064H46.7742V24.1935Z" fill="#ABABAB"/>
<path d="M39.8236 11.3164L40.9641 10.176L39.8236 9.03548L38.6831 10.176L39.8236 11.3164Z" fill="#ABABAB"/>
<path d="M36.7581 20.8258H29.0308C29.0558 20.549 29.0682 20.2804 29.0682 20.0022C29.0673 18.4114 28.6481 16.8487 27.8526 15.4712C27.0571 14.0936 25.9133 12.9495 24.536 12.1537C23.1587 11.358 21.5963 10.9385 20.0057 10.9375C18.4151 10.9365 16.8522 11.3539 15.4739 12.1478C15.4026 12.1793 15.3387 12.2254 15.2864 12.2832C15.2342 12.341 15.1947 12.4092 15.1706 12.4834C15.1465 12.5575 15.1383 12.6359 15.1466 12.7134C15.1549 12.7909 15.1795 12.8658 15.2187 12.9331C15.2579 13.0005 15.3109 13.0588 15.3742 13.1043C15.4375 13.1498 15.5097 13.1813 15.586 13.197C15.6624 13.2126 15.7412 13.212 15.8172 13.195C15.8933 13.1781 15.965 13.1453 16.0275 13.0988C17.0863 12.4876 18.2714 12.1282 19.4913 12.0485C20.7112 11.9688 21.933 12.1709 23.0623 12.6391C24.1915 13.1073 25.198 13.8291 26.0036 14.7486C26.8093 15.6682 27.3926 16.7608 27.7084 17.9419C28.0243 19.1231 28.0641 20.361 27.8249 21.5601C27.5858 22.7591 27.0739 23.887 26.3291 24.8564C25.5842 25.8259 24.6263 26.611 23.5295 27.1509C22.4327 27.6908 21.2264 27.9711 20.0039 27.9701C18.1852 27.9776 16.4198 27.3554 15.0075 26.2093C14.9372 26.1532 14.8544 26.1151 14.7661 26.0982C14.6779 26.0813 14.5868 26.0862 14.5009 26.1124L13.0421 26.4944L13.6137 25.2389C13.6541 25.1499 13.6703 25.0518 13.6606 24.9546C13.6509 24.8573 13.6156 24.7644 13.5583 24.6852C12.6525 23.4379 12.1276 21.9548 12.0472 20.4153C11.9669 18.8758 12.3346 17.3461 13.1057 16.0113C13.1606 15.8868 13.1677 15.7464 13.1256 15.6169C13.0836 15.4875 12.9953 15.3781 12.8777 15.3096C12.7601 15.2411 12.6214 15.2183 12.488 15.2456C12.3547 15.2729 12.2361 15.3484 12.1549 15.4576C11.3046 16.9291 10.8847 18.6098 10.9429 20.3083C11.0012 22.0068 11.5352 23.6547 12.4843 25.0645L11.5639 27.0855C11.5228 27.1801 11.5089 27.2843 11.5238 27.3864C11.5387 27.4884 11.5819 27.5843 11.6483 27.6632C11.7148 27.742 11.802 27.8008 11.9001 27.8327C11.9981 27.8647 12.1032 27.8686 12.2033 27.8441L14.5369 27.2378C15.4883 27.9565 16.5723 28.4805 17.7265 28.7795C18.8808 29.0786 20.0827 29.1469 21.2635 28.9806V33.7923C21.2642 34.4041 21.5075 34.9906 21.94 35.4232C22.3726 35.8558 22.959 36.0991 23.5707 36.0999H31.3409L34.8149 38.9432C34.8958 39.0072 34.9931 39.0473 35.0956 39.059C35.1982 39.0706 35.302 39.0534 35.3952 39.0092C35.4885 38.965 35.5676 38.8956 35.6235 38.8088C35.6794 38.7221 35.71 38.6214 35.7118 38.5182V36.0999H36.7553C37.367 36.0991 37.9535 35.8558 38.386 35.4232C38.8185 34.9906 39.0619 34.4041 39.0626 33.7923V23.1334C39.0619 22.5216 38.8185 21.9351 38.386 21.5025C37.9535 21.0699 37.367 20.8266 36.7553 20.8258H36.7581ZM37.9664 33.7923C37.966 34.1127 37.8386 34.4199 37.6121 34.6464C37.3856 34.873 37.0785 35.0004 36.7581 35.0008H35.1595C35.0127 35.0008 34.8719 35.0591 34.768 35.1629C34.6642 35.2668 34.6059 35.4076 34.6059 35.5545V37.3623L31.8931 35.1475C31.7436 35.0091 31.6163 35.0091 31.3187 35.0091H23.5679C23.2476 35.0087 22.9405 34.8813 22.7139 34.6547C22.4874 34.4282 22.36 34.121 22.3596 33.8006V28.7563C23.9649 28.3211 25.4201 27.4539 26.567 26.2493C27.714 25.0446 28.5087 23.5484 28.8648 21.9236H36.754C37.0743 21.9239 37.3814 22.0514 37.608 22.2779C37.8345 22.5045 37.9619 22.8116 37.9623 23.132L37.9664 33.7923Z" fill="#FFC72E"/>
<path d="M32.8998 30.0893C33.0091 30.0334 33.0968 29.9428 33.149 29.8317C33.2012 29.7206 33.215 29.5952 33.1882 29.4754C33.1614 29.3556 33.0956 29.2481 33.001 29.1697C32.9065 29.0914 32.7886 29.0468 32.6659 29.0428H32.4417L30.67 25.0049C30.6258 24.9086 30.5549 24.827 30.4658 24.7698C30.3766 24.7126 30.2729 24.6823 30.1669 24.6823C30.061 24.6823 29.9573 24.7126 29.8681 24.7698C29.779 24.827 29.708 24.9086 29.6638 25.0049L27.8922 29.0428H27.6666C27.5439 29.0468 27.426 29.0914 27.3315 29.1697C27.2369 29.2481 27.1711 29.3556 27.1443 29.4754C27.1175 29.5952 27.1313 29.7206 27.1835 29.8317C27.2357 29.9428 27.3234 30.0334 27.4327 30.0893L26.7725 31.594C26.7324 31.6614 26.707 31.7366 26.6981 31.8146C26.6893 31.8926 26.697 31.9715 26.721 32.0462C26.7449 32.121 26.7845 32.1898 26.8371 32.248C26.8896 32.3063 26.9539 32.3528 27.0258 32.3843C27.0976 32.4158 27.1753 32.4317 27.2538 32.4309C27.3322 32.4301 27.4097 32.4127 27.4809 32.3797C27.5521 32.3467 27.6154 32.299 27.6668 32.2397C27.7181 32.1804 27.7563 32.1108 27.7787 32.0356L28.6092 30.1433H31.7289L32.5593 32.0356C32.5818 32.1108 32.6199 32.1804 32.6712 32.2397C32.7226 32.299 32.786 32.3467 32.8572 32.3797C32.9284 32.4127 33.0058 32.4301 33.0843 32.4309C33.1627 32.4317 33.2404 32.4158 33.3123 32.3843C33.3841 32.3528 33.4484 32.3063 33.501 32.248C33.5535 32.1898 33.5931 32.121 33.617 32.0462C33.641 31.9715 33.6488 31.8926 33.6399 31.8146C33.631 31.7366 33.6057 31.6614 33.5655 31.594L32.8998 30.0893ZM29.0908 29.0428L30.1663 26.5926L31.2417 29.0428H29.0908Z" fill="#FFC72E"/>
<path d="M13.9836 14.5288C14.1118 14.529 14.2361 14.4847 14.3353 14.4034C14.4345 14.3222 14.5024 14.209 14.5275 14.0832C14.5525 13.9575 14.5331 13.8269 14.4726 13.7138C14.4121 13.6007 14.3143 13.5122 14.1958 13.4633C14.0772 13.4143 13.9454 13.408 13.8228 13.4455C13.7001 13.483 13.5943 13.5618 13.5234 13.6687C13.4524 13.7755 13.4207 13.9036 13.4337 14.0312C13.4467 14.1588 13.5036 14.2779 13.5946 14.3682C13.6981 14.4708 13.8378 14.5285 13.9836 14.5288Z" fill="#FFC72E"/>
<path d="M16.7237 23.3465C16.6539 23.3777 16.5913 23.4229 16.5399 23.4794C16.4884 23.536 16.4493 23.6025 16.4248 23.675C16.4003 23.7474 16.3911 23.8241 16.3977 23.9002C16.4044 23.9764 16.4267 24.0503 16.4633 24.1174C16.4999 24.1845 16.55 24.2433 16.6105 24.2901C16.6709 24.3369 16.7404 24.3706 16.8145 24.3892C16.8886 24.4078 16.9658 24.4109 17.0412 24.3982C17.1166 24.3855 17.1885 24.3574 17.2524 24.3155C18.4561 23.6552 19.4108 22.6192 19.9707 21.3656C20.5308 22.6192 21.4855 23.6551 22.6891 24.3155C22.753 24.3574 22.8249 24.3855 22.9003 24.3982C22.9757 24.4109 23.0528 24.4078 23.127 24.3892C23.2011 24.3706 23.2706 24.3369 23.331 24.2901C23.3915 24.2433 23.4416 24.1845 23.4782 24.1174C23.5148 24.0503 23.5371 23.9764 23.5437 23.9002C23.5504 23.8241 23.5412 23.7474 23.5167 23.675C23.4922 23.6025 23.4531 23.536 23.4016 23.4794C23.3502 23.4229 23.2876 23.3777 23.2178 23.3465C22.5166 22.962 21.9137 22.4208 21.4559 21.7651C20.9981 21.1094 20.6978 20.3568 20.5784 19.5661H23.0171C23.0949 19.5756 23.1739 19.5686 23.2488 19.5454C23.3237 19.5221 23.3928 19.4832 23.4515 19.4313C23.5103 19.3793 23.5573 19.3155 23.5895 19.244C23.6217 19.1725 23.6384 19.0949 23.6384 19.0165C23.6384 18.9381 23.6217 18.8605 23.5895 18.789C23.5573 18.7175 23.5103 18.6537 23.4515 18.6017C23.3928 18.5498 23.3237 18.5109 23.2488 18.4877C23.1739 18.4644 23.0949 18.4574 23.0171 18.467H20.5258V16.1774C20.5353 16.0995 20.5283 16.0205 20.5051 15.9456C20.4818 15.8707 20.4429 15.8016 20.391 15.7429C20.339 15.6841 20.2752 15.6371 20.2037 15.6048C20.1322 15.5726 20.0547 15.556 19.9763 15.556C19.8979 15.556 19.8203 15.5726 19.7489 15.6048C19.6774 15.6371 19.6135 15.6841 19.5616 15.7429C19.5096 15.8016 19.4707 15.8707 19.4475 15.9456C19.4243 16.0205 19.4172 16.0995 19.4268 16.1774V18.467H17.4421C17.3642 18.4574 17.2852 18.4644 17.2104 18.4877C17.1355 18.5109 17.0663 18.5498 17.0076 18.6017C16.9489 18.6537 16.9018 18.7175 16.8696 18.789C16.8374 18.8605 16.8207 18.9381 16.8207 19.0165C16.8207 19.0949 16.8374 19.1725 16.8696 19.244C16.9018 19.3155 16.9489 19.3793 17.0076 19.4313C17.0663 19.4832 17.1355 19.5221 17.2104 19.5454C17.2852 19.5686 17.3642 19.5756 17.4421 19.5661H19.3673C19.2479 20.3568 18.9476 21.1094 18.4898 21.7651C18.032 22.4208 17.429 22.962 16.7279 23.3465H16.7237Z" fill="#FFC72E"/>
<path fill-rule="evenodd" clip-rule="evenodd" d="M0 18.5484V19.5484V30.4516V31.4516H1H4.20403C4.59919 32.7258 5.1121 33.9629 5.73306 35.1427L3.46678 37.409L2.75968 38.1161L3.46678 38.8232L11.176 46.5324L11.8831 47.2395L12.5902 46.5324L14.8565 44.2661C16.0363 44.8879 17.2734 45.4 18.5476 45.7952V49V50H19.5476H30.4508H31.4508V49V45.796C32.725 45.4008 33.9621 44.8879 35.1419 44.2669L37.4082 46.5332L38.1153 47.2403L38.8224 46.5332L46.5316 38.824L47.2387 38.1169L46.5316 37.4098L44.2653 35.1435C44.8871 33.9637 45.3992 32.7266 45.7944 31.4524L50 31.4516V19.5484V18.5484H49H45.796C45.4008 17.2742 44.8879 16.0371 44.2669 14.8573L46.5332 12.591L47.2403 11.8839L46.5332 11.1768L38.8232 3.46759L38.1161 2.76048L37.4091 3.46762L35.1427 5.73387C33.9629 5.1121 32.7258 4.59919 31.4516 4.20403V1V0H30.4516H19.5484H18.5484V1V4.20403C17.2742 4.59919 16.0371 5.1121 14.8573 5.73306L12.591 3.46678L11.8839 2.75968L11.8785 2.76505L11.1768 3.46682L2.76048 11.8839L2.76721 11.8906L5.73387 14.8573C5.1121 16.0371 4.59919 17.2742 4.20403 18.5484H1H0ZM44.8408 18.8446L45.0591 19.5484H45.796H49V30.4518L45.7942 30.4524L45.0574 30.4526L44.8392 31.1562C44.4622 32.3719 43.9736 33.5521 43.3807 34.6773L43.037 35.3294L43.5582 35.8507L45.8245 38.1169L38.1153 45.8261L35.849 43.5598L35.3281 43.0389L34.6762 43.382C33.5504 43.9746 32.37 44.4639 31.1546 44.8408L30.4508 45.0591V45.796V49H19.5476V45.7952V45.0583L18.8438 44.84C17.628 44.463 16.4479 43.9744 15.3227 43.3815L14.6706 43.0378L14.1493 43.559L11.8831 45.8253L4.17389 38.1161L6.44017 35.8498L6.9611 35.3289L6.61798 34.677C6.02544 33.5512 5.53608 32.3708 5.15915 31.1554L4.94089 30.4516H4.20403H1V19.5484H4.20403H4.94089L5.15915 18.8446C5.53608 17.6292 6.02538 16.449 6.61854 15.3235L6.9622 14.6714L6.44098 14.1502L4.17467 11.8838L11.8839 4.17392L14.1502 6.44017L14.6711 6.9611L15.323 6.61798C16.4488 6.02544 17.6292 5.53608 18.8446 5.15915L19.5484 4.94089V4.20403V1H30.4516V4.20403V4.94089L31.1554 5.15915C32.3708 5.53608 33.551 6.02538 34.6765 6.61854L35.3286 6.9622L35.8498 6.44098L38.1162 4.17467L45.8261 11.8839L43.5598 14.1502L43.0389 14.6711L43.382 15.323C43.9746 16.4488 44.4639 17.6292 44.8408 18.8446Z" fill="#ABABAB"/>
</svg>
