<svg width="50" height="50" viewBox="0 0 50 50" fill="none" xmlns="http://www.w3.org/2000/svg">
<g filter="url(#filter0_i)">
<path d="M44.7292 25.3431C44.729 30.4653 42.7023 35.3794 39.0918 39.0123C35.4812 42.6453 30.58 44.702 25.4584 44.7334C20.3367 44.7648 15.4107 42.7683 11.7558 39.18C8.10097 35.5916 6.01422 30.7027 5.9512 25.5809C5.9512 25.5017 5.9512 25.4224 5.9512 25.3431C5.9512 20.2005 7.99384 15.2684 11.6298 11.6319C15.2658 7.9953 20.1972 5.95211 25.3395 5.95172H25.5787C29.4964 5.99357 33.3086 7.22688 36.5086 9.48771C38.6535 11.003 40.4705 12.9356 41.851 15.1697C43.7387 18.2267 44.7355 21.7501 44.7292 25.3431Z" fill="#FAA300"/>
</g>
<path d="M25.0441 49.9299C38.8232 49.9299 49.9934 38.7587 49.9934 24.9783C49.9934 11.198 38.8232 0.0267944 25.0441 0.0267944C11.2649 0.0267944 0.0947113 11.198 0.0947113 24.9783C0.0947113 38.7587 11.2649 49.9299 25.0441 49.9299Z" fill="white"/>
<path d="M49.9956 24.9796C50.0003 30.7206 48.0291 36.2884 44.4131 40.7473C40.7972 45.2063 35.7569 48.2848 30.139 49.4655C24.5212 50.6463 18.6682 49.8573 13.5634 47.2313C8.4586 44.6052 4.41309 40.3021 2.10657 35.0448C-0.199944 29.7876 -0.626914 23.8966 0.897401 18.3616C2.42172 12.8267 5.80443 7.98505 10.4772 4.65021C15.15 1.31538 20.828 -0.309453 26.5574 0.0487243C32.2868 0.406901 37.7183 2.72626 41.9394 6.6171C44.4791 8.95418 46.5063 11.7928 47.893 14.9534C49.2797 18.1141 49.9956 21.5281 49.9956 24.9796Z" fill="#F0CD00"/>
<path d="M50 24.9829C50.0007 31.4409 47.4977 37.6477 43.0174 42.2984C38.5371 46.9491 32.4283 49.6815 25.9753 49.9212C19.5137 49.694 13.3927 46.9671 8.90188 42.3153C4.41109 37.6634 1.90127 31.4497 1.90127 24.9836C1.90127 18.5175 4.41109 12.3039 8.90188 7.65197C13.3927 3.00009 19.5137 0.273248 25.9753 0.0460205C32.428 0.285718 38.5366 3.01793 43.0169 7.66832C47.4972 12.3187 50.0003 18.5251 50 24.9829Z" fill="#FFDE50"/>
<path d="M41.9394 6.61567L6.68243 41.8757C5.48159 40.5726 4.42234 39.1457 3.52248 37.619L37.6787 3.45544C39.2072 4.35444 40.6355 5.41384 41.9394 6.61567Z" fill="#FFEA94"/>
<path d="M48.2798 15.8659L15.923 48.2167C13.653 47.3223 11.5266 46.0992 9.61193 44.5868L44.6502 9.53955C46.1643 11.4585 47.3874 13.5902 48.2798 15.8659Z" fill="#FFEA94"/>
<g filter="url(#filter1_i)">
<path d="M44.436 24.981C44.4357 30.1032 42.4091 35.0173 38.7985 38.6502C35.1879 42.2832 30.2868 44.3399 25.1651 44.3713C20.0435 44.4027 15.1174 42.4062 11.4626 38.8178C7.80774 35.2294 5.72098 30.3406 5.65797 25.2188C5.65797 25.1395 5.65797 25.0603 5.65797 24.981C5.65797 19.8384 7.70061 14.9063 11.3366 11.2697C14.9725 7.63318 19.904 5.58999 25.0462 5.5896H25.2855C29.2032 5.63145 33.0154 6.86476 36.2154 9.12559C38.3602 10.6409 40.1773 12.5735 41.5578 14.8075C43.4455 17.8646 44.4423 21.388 44.436 24.981Z" fill="#FAA300"/>
</g>
<path d="M31.6172 26.0458C30.6559 25.8531 29.7235 26.4931 29.5348 27.4753C28.8874 30.8451 26.4311 33.4378 23.3976 34.1771V25.8658L30.6632 22.7642C31.5671 22.3783 31.9938 21.3167 31.6162 20.393C31.2386 19.4694 30.1993 19.0335 29.2955 19.4193L23.3976 21.9371V18.8837L30.6632 15.782C31.5671 15.3961 31.9938 14.3345 31.6162 13.4108C31.2386 12.4871 30.1993 12.0513 29.2955 12.4371L23.3976 14.9549V13.4074C23.3976 12.4063 22.6034 11.5948 21.6237 11.5948C20.644 11.5948 19.8498 12.4063 19.8498 13.4074V16.4695L16.5279 17.8875C15.624 18.2734 15.1973 19.3351 15.5749 20.2588C15.8592 20.9542 16.5183 21.3731 17.2124 21.3731C17.4403 21.3731 17.6722 21.3278 17.8956 21.2325L19.8498 20.3983V23.4517L16.5279 24.8697C15.624 25.2556 15.1973 26.3173 15.5749 27.241C15.8592 27.9364 16.5183 28.3552 17.2124 28.3552C17.4403 28.3552 17.6722 28.31 17.8956 28.2147L19.8498 27.3804V36.203C19.8498 37.2041 20.644 38.0156 21.6237 38.0156C24.3312 38.0156 26.9677 37.0089 29.0473 35.181C31.0821 33.3923 32.4917 30.9038 33.0161 28.1737C33.205 27.1913 32.5786 26.2386 31.6172 26.0458Z" fill="#F68E00"/>
<path d="M33.085 26.0458C32.1236 25.8531 31.1912 26.4931 31.0026 27.4753C30.3551 30.8451 27.8988 33.4378 24.8653 34.1771V25.8658L32.1309 22.7642C33.0348 22.3783 33.4616 21.3167 33.0839 20.393C32.7063 19.4694 31.667 19.0335 30.7633 19.4193L24.8653 21.9371V18.8837L32.1309 15.782C33.0348 15.3961 33.4616 14.3345 33.0839 13.4108C32.7063 12.4871 31.667 12.0513 30.7633 12.4371L24.8653 14.9549V13.4074C24.8653 12.4063 24.0712 11.5948 23.0914 11.5948C22.1117 11.5948 21.3175 12.4063 21.3175 13.4074V16.4695L17.9956 17.8875C17.0917 18.2734 16.665 19.3351 17.0426 20.2588C17.3269 20.9542 17.986 21.3731 18.6801 21.3731C18.908 21.3731 19.1399 21.3278 19.3633 21.2325L21.3175 20.3983V23.4517L17.9956 24.8697C17.0917 25.2556 16.665 26.3173 17.0426 27.241C17.3269 27.9364 17.986 28.3552 18.6801 28.3552C18.908 28.3552 19.1399 28.31 19.3633 28.2147L21.3175 27.3804V36.203C21.3175 37.2041 22.1117 38.0156 23.0914 38.0156C25.799 38.0156 28.4354 37.0089 30.515 35.181C32.5499 33.3923 33.9594 30.9038 34.4839 28.1737C34.6726 27.1913 34.0463 26.2386 33.085 26.0458Z" fill="#FFEA94"/>
<path d="M44.433 24.981C44.4326 30.1238 42.3897 35.0559 38.7535 38.6924C35.1173 42.3289 30.1857 44.3721 25.0433 44.3724C24.6754 44.3724 24.3104 44.3622 23.9484 44.3416C28.8918 44.0592 33.5399 41.8964 36.9398 38.2964C40.3397 34.6964 42.2338 29.9322 42.2338 24.9803C42.2338 20.0284 40.3397 15.2641 36.9398 11.6642C33.5399 8.06423 28.8918 5.90134 23.9484 5.61896C24.3114 5.59841 24.6764 5.58813 25.0433 5.58813C30.1859 5.58852 35.1178 7.63187 38.754 11.2687C42.3902 14.9055 44.433 19.838 44.433 24.981Z" fill="#F68E00"/>
<defs>
<filter id="filter0_i" x="5.9512" y="5.95172" width="44.778" height="44.782" filterUnits="userSpaceOnUse" color-interpolation-filters="sRGB">
<feFlood flood-opacity="0" result="BackgroundImageFix"/>
<feBlend mode="normal" in="SourceGraphic" in2="BackgroundImageFix" result="shape"/>
<feColorMatrix in="SourceAlpha" type="matrix" values="0 0 0 0 0 0 0 0 0 0 0 0 0 0 0 0 0 0 127 0" result="hardAlpha"/>
<feOffset dx="6" dy="6"/>
<feGaussianBlur stdDeviation="3.5"/>
<feComposite in2="hardAlpha" operator="arithmetic" k2="-1" k3="1"/>
<feColorMatrix type="matrix" values="0 0 0 0 1 0 0 0 0 0.807843 0 0 0 0 0.305882 0 0 0 1 0"/>
<feBlend mode="normal" in2="shape" result="effect1_innerShadow"/>
</filter>
<filter id="filter1_i" x="5.65797" y="5.5896" width="44.778" height="44.782" filterUnits="userSpaceOnUse" color-interpolation-filters="sRGB">
<feFlood flood-opacity="0" result="BackgroundImageFix"/>
<feBlend mode="normal" in="SourceGraphic" in2="BackgroundImageFix" result="shape"/>
<feColorMatrix in="SourceAlpha" type="matrix" values="0 0 0 0 0 0 0 0 0 0 0 0 0 0 0 0 0 0 127 0" result="hardAlpha"/>
<feOffset dx="6" dy="6"/>
<feGaussianBlur stdDeviation="3.5"/>
<feComposite in2="hardAlpha" operator="arithmetic" k2="-1" k3="1"/>
<feColorMatrix type="matrix" values="0 0 0 0 1 0 0 0 0 0.807843 0 0 0 0 0.305882 0 0 0 1 0"/>
<feBlend mode="normal" in2="shape" result="effect1_innerShadow"/>
</filter>
</defs>
</svg>
