<svg xmlns="http://www.w3.org/2000/svg" width="26.393" height="21.444" viewBox="0 0 26.393 21.444">
  <g id="twitter" transform="translate(0 -48)">
    <g id="Group_2778" data-name="Group 2778" transform="translate(0 48)">
      <path id="Path_2364" data-name="Path 2364" d="M26.393,50.539a11.281,11.281,0,0,1-3.118.854,5.38,5.38,0,0,0,2.38-2.991,10.813,10.813,0,0,1-3.431,1.31,5.41,5.41,0,0,0-9.359,3.7,5.571,5.571,0,0,0,.125,1.234,15.315,15.315,0,0,1-11.153-5.66A5.412,5.412,0,0,0,3.5,56.218a5.343,5.343,0,0,1-2.445-.666v.059a5.436,5.436,0,0,0,4.335,5.316,5.4,5.4,0,0,1-1.419.178,4.784,4.784,0,0,1-1.024-.092A5.462,5.462,0,0,0,8,64.782,10.872,10.872,0,0,1,1.295,67.09,10.136,10.136,0,0,1,0,67.016a15.233,15.233,0,0,0,8.3,2.428,15.294,15.294,0,0,0,15.4-15.4c0-.239-.008-.47-.02-.7A10.794,10.794,0,0,0,26.393,50.539Z" transform="translate(0 -48)" fill="#fff"/>
    </g>
  </g>
</svg>
