<svg xmlns="http://www.w3.org/2000/svg" width="22" height="22" viewBox="0 0 22 22">
  <g id="refer" transform="translate(0)">
    <path id="Path_12550" data-name="Path 12550" d="M17.349,6.359A6.356,6.356,0,1,0,7.4,11.6,11.016,11.016,0,0,0,0,22H1.717a9.289,9.289,0,0,1,9.276-9.281,6.365,6.365,0,0,0,6.356-6.359ZM10.994,11a4.641,4.641,0,1,1,4.638-4.641A4.645,4.645,0,0,1,10.994,11ZM22,15.812l-4.043,4.045-1.215-1.215,2.012-2.013h-1.49a3.742,3.742,0,0,0-3.736,3.735l0,1.637H11.809V20.362a5.462,5.462,0,0,1,5.454-5.452h1.4l-1.926-1.927,1.215-1.215Zm0,0" fill="#fff"/>
  </g>
</svg>
