<svg id="DolarSingleCoin" xmlns="http://www.w3.org/2000/svg" width="490" height="620" viewBox="0 0 490 620">
  <g id="Group_3013" data-name="Group 3013">
    <path id="Path_12550" data-name="Path 12550" d="M490,245c0,135.31-109.69,245-245,245A244.886,244.886,0,0,1,0,245C0,109.69,109.69,0,245,0A245.036,245.036,0,0,1,490,245Z" fill="#f0cd00"/>
    <path id="Path_12551" data-name="Path 12551" d="M490,245c0,132.26-104.79,240.04-235.88,244.83C123.03,485.04,18.24,377.26,18.24,245S123.03,4.96,254.12.17C385.21,4.96,490,112.74,490,245Z" fill="#ffde50"/>
    <path id="Path_12552" data-name="Path 12552" d="M410.86,64.7,64.69,410.87a246.05,246.05,0,0,1-31.03-41.85L369.02,33.67A244.913,244.913,0,0,1,410.86,64.7Z" fill="#ffea94"/>
    <path id="Path_12553" data-name="Path 12553" d="M473.1,155.43,155.42,473.11a244.669,244.669,0,0,1-62.03-35.64L437.47,93.39A244.227,244.227,0,0,1,473.1,155.43Z" fill="#ffea94"/>
    <path id="Path_12554" data-name="Path 12554" d="M435.38,245c0,105.14-85.24,190.38-190.38,190.38A190.191,190.191,0,0,1,54.64,247.34c-.02-.78-.02-1.56-.02-2.34C54.62,139.86,139.85,54.62,245,54.62c.78,0,1.57,0,2.35.02A189.493,189.493,0,0,1,354.67,89.36a191.646,191.646,0,0,1,52.45,55.79A189.46,189.46,0,0,1,435.38,245Z" fill="#faa300"/>
    <path id="Path_12555" data-name="Path 12555" d="M379.61,110.38,110.38,379.61A189.689,189.689,0,0,1,54.64,247.34c-.02-.78-.02-1.56-.02-2.34C54.62,139.86,139.85,54.62,245,54.62c.78,0,1.57,0,2.35.02A189.493,189.493,0,0,1,354.67,89.36,192.127,192.127,0,0,1,379.61,110.38Z" fill="#ffbd00"/>
    <path id="Path_12556" data-name="Path 12556" d="M435.375,245c0,105.14-85.24,190.38-190.38,190.38q-5.415,0-10.75-.3c100.14-5.57,179.62-88.55,179.62-190.08S334.385,60.49,234.245,54.92q5.34-.3,10.75-.3C350.135,54.62,435.375,139.86,435.375,245Z" fill="#f68e00"/>
  </g>
  <g id="Group_3014" data-name="Group 3014" transform="translate(-19 -1)">
    <g id="Component_405_2" data-name="Component 405 – 2" transform="translate(169 42)">
      <text id="_" data-name="$
" transform="translate(0 293)" fill="#f68e00" font-size="302" font-family="SofiaPro-Medium, Sofia Pro" font-weight="500"><tspan x="0" y="0">$</tspan><tspan x="0" y="95"></tspan></text>
    </g>
    <g id="Component_405_3" data-name="Component 405 – 3" transform="translate(179 41)">
      <text id="_2" data-name="$
" transform="translate(0 293)" fill="#ffea94" font-size="302" font-family="SofiaPro-Medium, Sofia Pro" font-weight="500"><tspan x="0" y="0">$</tspan><tspan x="0" y="95"></tspan></text>
    </g>
  </g>
</svg>
