<svg width="250" height="250" viewBox="0 0 250 250" fill="none" xmlns="http://www.w3.org/2000/svg">
<path d="M52.4194 213.864C52.4194 211.652 50.6129 209.849 48.3871 209.849H40.3226C33.6532 209.849 28.2258 204.445 28.2258 197.804C28.2258 191.163 33.6532 185.758 40.3226 185.758V177.728H48.3871V185.758C55.0564 185.758 60.4839 191.163 60.4839 197.804H52.4194C52.4194 195.591 50.6129 193.789 48.3871 193.789H40.3226C38.0968 193.789 36.2903 195.591 36.2903 197.804C36.2903 200.016 38.0968 201.819 40.3226 201.819H48.3871C55.0564 201.819 60.4839 207.223 60.4839 213.864C60.4839 220.505 55.0564 225.909 48.3871 225.909V233.94H40.3226V225.909C33.6532 225.909 28.2258 220.505 28.2258 213.864H36.2903C36.2903 216.076 38.0968 217.879 40.3226 217.879H48.3871C50.6129 217.879 52.4194 216.076 52.4194 213.864ZM21.6573 167.951L10.254 153.758C8.83871 152 8.06452 149.791 8.06452 147.535C8.06452 142.046 12.5484 137.577 18.0645 137.577H18.75C20.2944 137.577 21.8427 137.939 23.2218 138.629L27.4274 140.721L27.7339 140.416C32.1129 136.06 38.1694 133.562 44.3548 133.562C50.5403 133.562 56.5968 136.06 60.9718 140.416L61.2782 140.721L65.4839 138.629C66.8669 137.939 68.4153 137.577 69.9597 137.577H70.6452C76.1613 137.577 80.6452 142.046 80.6452 147.535C80.6452 149.787 79.871 151.995 78.4557 153.758L67.0524 167.951C72.4919 171.184 77.0968 175.496 80.6452 180.539V147.535V129.547H92.7419V127.411L69.121 107.809L51.1129 54.0231L17.6613 66.5141L2.96371 22.617L71.0968 0L85.7419 43.7525L74.2298 47.5749L95.8629 90.6609L106.06 97.4263H107.02C103.169 93.1583 100.806 87.5412 100.806 81.3659V69.3206V65.3055V61.2905C100.806 52.4331 108.04 45.2301 116.935 45.2301H145.161C147.387 45.2301 149.194 43.4273 149.194 41.215H157.258V57.2754C157.258 62.503 153.875 66.9196 149.194 68.5819V81.3659C149.194 87.5412 146.831 93.1583 142.984 97.4263H143.944L154.133 90.6609L175.766 47.5749L164.254 43.7525L178.899 0L247.032 22.617L232.339 66.5141L198.887 54.0231L180.879 107.809L157.258 127.411V129.547H250V250H80.6452V231.149C72.6129 242.528 59.3548 250 44.3548 250C19.8992 250 0 230.185 0 205.834C0 190.211 8.36693 175.857 21.6573 167.951ZM88.7097 157.291V190.139C98.8186 191.837 106.798 199.787 108.508 209.853H222.137C223.843 199.787 231.827 191.841 241.935 190.139V157.291C231.827 155.593 223.847 147.643 222.137 137.577H108.508C106.798 147.643 98.8186 155.589 88.7097 157.291ZM230.411 209.849H241.935V198.374C236.294 199.835 231.879 204.232 230.411 209.849ZM88.7097 205.834C88.7097 207.191 88.625 208.524 88.504 209.849H88.7097H100.234C98.7056 203.995 93.9879 199.41 88.004 198.153C88.4516 200.667 88.7097 203.228 88.7097 205.834ZM241.935 241.97V233.94H209.677V225.909H241.935V217.879H88.7097V225.909H201.613V233.94H88.7097V241.97H241.935ZM241.935 137.577H230.411C231.879 143.194 236.294 147.591 241.935 149.052V137.577ZM179.407 40.3196L179.96 39.2235C181.827 35.5015 185.585 33.1848 189.77 33.1848H190.641C196.69 33.1848 201.613 38.0872 201.613 44.1099C201.613 44.8687 201.504 45.6195 201.347 46.3623L227.339 56.0668L236.835 27.6921L184.004 10.1582L174.456 38.6774L179.407 40.3196ZM120.024 105.457L125 113.712L129.976 105.457H120.024ZM108.871 61.2905H145.161C147.387 61.2905 149.194 59.4877 149.194 57.2754V52.5737C147.931 53.0153 146.577 53.2603 145.161 53.2603H116.935C112.488 53.2603 108.871 56.8618 108.871 61.2905ZM125 97.4263C133.895 97.4263 141.129 90.2232 141.129 81.3659V69.3206H108.871V81.3659C108.871 90.2232 116.105 97.4263 125 97.4263ZM22.6613 56.0668L48.6532 46.3623C48.496 45.6155 48.3871 44.8647 48.3871 44.1099C48.3871 38.0872 53.3105 33.1848 59.3589 33.1848H60.2298C64.4153 33.1848 68.1774 35.5015 70.0444 39.2235L70.5927 40.3196L75.5484 38.6774L66 10.1582L13.1653 27.6921L22.6613 56.0668ZM100.806 123.653V129.547H149.194V123.653L173.96 103.104L193.403 45.0253C193.496 44.7322 193.548 44.419 193.548 44.1099C193.548 42.5118 192.246 41.215 190.641 41.215H189.77C188.677 41.215 187.661 41.8413 187.169 42.813L160.379 96.1616L146.383 105.457H139.379L125 129.322L110.621 105.457H103.617L89.6129 96.1616L62.8226 42.817C62.3387 41.8413 61.3186 41.215 60.2298 41.215H59.3589C57.754 41.215 56.4516 42.5118 56.4516 44.1099C56.4516 44.419 56.504 44.7362 56.6048 45.0454L76.0403 103.104L100.806 123.653ZM88.7097 137.577V149.052C94.3508 147.591 98.7661 143.194 100.234 137.577H88.7097ZM16.5524 148.743L30.1613 165.683H58.5444L72.1532 148.743C72.4314 148.402 72.5806 147.972 72.5806 147.535C72.5806 146.471 71.7097 145.607 70.6452 145.607H69.9597C69.6613 145.607 69.3629 145.68 69.0927 145.812L59.6895 150.494L55.2702 146.093C52.3952 143.235 48.4194 141.592 44.3548 141.592C40.2903 141.592 36.3145 143.235 33.4395 146.093L29.0202 150.494L19.6169 145.812C19.3508 145.68 19.0524 145.607 18.75 145.607H18.0645C17 145.607 16.129 146.471 16.129 147.535C16.129 147.972 16.2782 148.402 16.5524 148.743ZM8.06452 205.834C8.06452 225.757 24.3427 241.97 44.3548 241.97C64.3669 241.97 80.6452 225.757 80.6452 205.834C80.6452 192.235 72.8548 179.856 60.7379 173.713H27.9718C15.8548 179.856 8.06452 192.235 8.06452 205.834ZM161.29 185.758C159.065 185.758 157.258 183.956 157.258 181.743H149.194C149.194 186.971 152.577 191.388 157.258 193.05V201.819H165.323V193.05C170.004 191.388 173.387 186.971 173.387 181.743C173.387 175.102 167.96 169.698 161.29 169.698C159.065 169.698 157.258 167.895 157.258 165.683C157.258 163.471 159.065 161.668 161.29 161.668C163.516 161.668 165.323 163.471 165.323 165.683H173.387C173.387 160.455 170.004 156.039 165.323 154.376V145.607H157.258V154.376C152.577 156.039 149.194 160.455 149.194 165.683C149.194 172.324 154.621 177.728 161.29 177.728C163.516 177.728 165.323 179.531 165.323 181.743C165.323 183.956 163.516 185.758 161.29 185.758Z" fill="url(#paint0_linear)"/>
<defs>
<linearGradient id="paint0_linear" x1="125" y1="250" x2="125" y2="0" gradientUnits="userSpaceOnUse">
<stop stop-color="#424E5C"/>
<stop offset="1" stop-color="#2E3742"/>
</linearGradient>
</defs>
</svg>
