<svg xmlns="http://www.w3.org/2000/svg" xmlns:xlink="http://www.w3.org/1999/xlink" width="1404.789" height="894.062" viewBox="0 0 1404.789 894.062"><defs><linearGradient id="a" x1="0.5" x2="0.5" y2="1" gradientUnits="objectBoundingBox"><stop offset="0" stop-color="#ff6480"/><stop offset="1" stop-color="#f22e63"/></linearGradient></defs><g transform="translate(551 -320)"><g transform="translate(-516 33)"><g transform="translate(-35 287)"><path d="M1357.246,511.325c-39.58-92.3-94.433-161.3-139.736-175.779-33.718-10.771-106.415-19.774-214.556,40.834A109.212,109.212,0,0,0,989,385.672,2441.1,2441.1,0,0,0,613.112,218.316a109.181,109.181,0,0,0-2.433-16.6C583.338,80.777,528,32.795,497.447,14.95c-36.183-21.114-107.594-19.8-191.031,3.526A20.581,20.581,0,1,0,317.488,58.12C397.945,35.635,455.434,38.089,476.7,50.5c40.813,23.825,74.155,79.321,92.1,152.9q-20.8-6.8-41.734-13.2c-.665-.193-1.329-.386-1.994-.568-.064-.021-.118-.032-.182-.054-.279-.075-.557-.139-.836-.214-.118-.032-.236-.064-.364-.1-.161-.032-.322-.075-.493-.118-.257-.054-.525-.118-.782-.182l-.161-.032a63.085,63.085,0,0,0-29.752.611c-.332.086-.664.193-1,.289a63.189,63.189,0,0,0-33.246,22.582,899.375,899.375,0,0,0-68.5,104.422,173.231,173.231,0,0,1-32.678-19,337.291,337.291,0,0,0,38.348-35.915,20.58,20.58,0,1,0-30.235-27.93q-26.606,28.809-51.937,44.446c-.268.15-.536.311-.793.461-32.6,19.956-63.695,23.364-92.772,10.257a375.65,375.65,0,0,0,122.449-97.873A20.581,20.581,0,0,0,310.21,165.3a329.712,329.712,0,0,1-138.664,100.22,17.6,17.6,0,0,0-1.8.579q-8.971,3.36-17.491,5.98c-27.9,8.467-81.079,18.434-105.611,2.765-6.913-4.641-6.495-9.507-3.247-17.706,27.437-67.06,100.145-129.972,199.54-172.65a20.582,20.582,0,0,0-16.248-37.822C162.4,74.272,48.133,136.337,5.144,241.906c-.632,1.543-1.19,3.087-1.7,4.619l-.021.054c-.064.2-.129.4-.193.6-8.542,26.28.064,49.858,23.632,63.813,8.392,4.973,18.616,8.542,30.224,10.707,27.909,5.273,63.748,2.4,102.085-8.735a1.3,1.3,0,0,1,.193-.054c.289-.086.579-.172.879-.257q5.836-1.72,11.725-3.676c.322-.107.632-.2.943-.311a161.979,161.979,0,0,0,15.165,10.321c18.241,10.975,40.92,19.517,67.339,19.517,19.753,0,41.606-4.78,65.238-16.912a224,224,0,0,0,49.783,31.692,886.674,886.674,0,0,0-77.96,231.447,63.261,63.261,0,0,0,5.337,39.527,21.3,21.3,0,0,0,1.243,2.411,62.93,62.93,0,0,0,22.957,24.05,2439.66,2439.66,0,0,0,540.4,240.6,62.923,62.923,0,0,0,33.235.965,20.266,20.266,0,0,0,2.6-.686,63.152,63.152,0,0,0,32.957-22.5c15.412-20.278,30.041-41.3,43.492-62.451a20.582,20.582,0,1,0-34.736-22.089c-12.732,20.031-26.58,39.934-41.156,59.161L832.029,731.4a20.581,20.581,0,0,0-35.379,21.039l54.928,92.386A2398.65,2398.65,0,0,1,363.81,627.654l105.408-21a20.584,20.584,0,0,0-8.049-40.373l-128.15,25.529A843.435,843.435,0,0,1,490.653,237.78c64.145,176.54,391.664,322.364,565.783,251.906A846.406,846.406,0,0,1,979.793,714.81a20.584,20.584,0,1,0,36.686,18.681q19.131-37.619,34.629-77.167a224.248,224.248,0,0,0,56.8,15.776c15.562,58.8,53.481,84.862,88.495,96.1.011.011.032.011.043.021l.321.1a158.989,158.989,0,0,0,19.613,4.919c.129.3.257.611.386.911q3.842,8.81,8.06,17.116c.107.225.225.439.332.665.054.1.107.2.15.3,51.5,101.217,124.731,119.169,152.94,60.994,41.734-86.095,33.878-213.913-21.007-341.9ZM537.894,236.686a2398.68,2398.68,0,0,1,487.768,217.171C870.643,466.933,631.909,360.646,537.894,236.686Zm527.359,380.893A905.254,905.254,0,0,0,1097,496.792a63.193,63.193,0,0,0-5.359-39.6,19.685,19.685,0,0,0-1.2-2.315,62.921,62.921,0,0,0-22.979-24.082q-18.761-11.254-37.715-22.175c66.642-35.893,130.208-48.251,175.233-33.868,28.166,9,76.524,64.381,114.432,152.8,39.548,92.225,65.442,217.4,21.8,307.734-2.5,5.155-5.766,9.935-11.457,9.721-8.5-.322-19-8.006-25.379-13.59-45.485-40.052-90.778-144.077-73.309-256.14a20.576,20.576,0,1,0-40.662-6.334,375.765,375.765,0,0,0,9.2,156.51q-39.259-17.218-51.905-64.435-1.447-5.5-2.54-11.393-.1-.531-.225-1.029-5.273-29.243-1.693-68.207a20.574,20.574,0,1,0-40.974-3.783,338.306,338.306,0,0,0-1.05,52.516,173.953,173.953,0,0,1-35.958-11.543Zm0,0" transform="translate(0 0)" fill="url(#a)"/><path d="M157.216,166.785H64.445a20.578,20.578,0,0,0,0,41.155h92.772a20.578,20.578,0,1,0,0-41.155Zm0,0" transform="translate(76.491 290.824)" fill="url(#a)"/><path d="M189.693,220.938H45.831a20.578,20.578,0,1,0,0,41.155H189.693a20.578,20.578,0,1,0,0-41.155Zm0,0" transform="translate(44.015 385.25)" fill="url(#a)"/><path d="M217.232,275.086H30.038a20.583,20.583,0,1,0,0,41.166H217.232a20.583,20.583,0,0,0,0-41.166Zm0,0" transform="translate(16.476 479.669)" fill="url(#a)"/></g></g><g transform="translate(-521.505 724.117)"><path d="M100.141.249c-5.515.727-19.667,4.672-22.06,6.128-1.873,1.142-2.393,2.6-2.6,7.893l-.312,6.543-4.683.521c-5.2.725-11.862,2.906-21.748,7.478-18.106,8.2-34.963,26.17-38.709,40.919-1.249,4.674.312,14.955,2.185,14.955.52,0,.937-2.493.937-5.5a35.1,35.1,0,0,1,2.5-11.944C18.456,60.382,24.18,51.45,25.74,51.45c.624,0,1.041-.728,1.041-1.559,0-2.492,14.152-12.461,26.43-18.485,2.6-1.246,20.187-6.958,21.436-6.958.624,0,1.041,2.8,1.041,6.127,0,5.712-.312,6.439-4.058,10.385S54.98,52.489,52.067,52.489c-1.353,0-13.735,5.818-20.083,9.347-5.931,3.323-6.972,5.3-7.18,13.813-.416,16.3-2.914,20.46-12.591,20.46A17.123,17.123,0,0,0,4.3,98.081C1.5,99.744.871,100.989.247,105.249c-1.457,10.49,3.538,18.174,15.088,23.367,8.429,3.843,21.956,12.358,23.309,14.746,3.33,5.818,12.383,9.037,26.951,9.348,9.573.208,10.51.416,16.129,3.947a37.782,37.782,0,0,1,7.908,6.231c1.665,2.285,1.769,3.012.52,5.817-1.457,3.323-4.266,4.57-8.012,3.532-1.769-.417-2.289-.1-2.289,1.557,0,3.529,6.035,4.051,11.862,1.142,7.388-3.636,9.261-6.128,8.845-11.736l-.416-4.674,2.914,2.8c4.162,3.946,13.839,16.929,14.672,19.63.416,1.348,1.249,2.389,1.769,2.389s.832.311.728.728c-.208,1.036,1.041,4.256,2.809,7.58a76.274,76.274,0,0,1,3.538,11.528c5.307,21.914.624,36.868-12.7,40.192-4.995,1.35-8.012,3.531-8.012,6.024,0,2.388-4.058,9.97-7.076,13.085-1.457,1.559-2.393,3.116-2.081,3.429s4.37,1.349,9.157,2.181c6.972,1.349,14.464,1.558,40.478,1.142,28.511-.415,38.917-1.247,41.623-3.428.208-.208-.936-1.454-2.6-2.8-1.873-1.557-3.85-4.985-5.1-8.619-2.6-7.79-4.162-9.45-10.718-11.32-9.053-2.7-12.591-8.206-13.423-21.29-1.353-19.213,6.556-39.674,22.06-56.914l4.162-4.674.728,4.361c.728,4.571,3.018,7.063,9.573,10.7,5.2,3.012,11.03,1.766,11.03-2.283,0-1.768-.312-1.87-2.6-.832-2.185,1.039-3.122.832-5.411-.832-3.122-2.387-3.746-5.713-1.665-8.723.832-1.143,4.579-3.74,8.429-5.921,6.556-3.739,7.492-3.947,16.337-3.947,12.383-.1,19.251-2.388,25.7-8.516a60.91,60.91,0,0,1,8.845-7.166c11.966-7.063,16.753-9.659,19.25-10.283,1.457-.415,4.475-2.6,6.764-4.984,4.891-5.089,6.347-11.424,4.474-18.383-.936-3.428-1.873-4.57-4.683-5.817a22.092,22.092,0,0,0-7.18-1.453c-4.994,0-8.637-1.559-10.093-4.362-.728-1.351-1.665-6.959-1.977-12.463-.521-8-1.145-10.8-2.81-12.983-2.185-3.011-15.608-10.282-28.3-15.267-7.908-3.115-14.776-7.684-17.9-12.047-1.873-2.595-3.33-13.19-1.873-14.124.833-.415,17.378,4.569,19.146,5.816a24.191,24.191,0,0,0,4.995,1.973c3.85,1.35,14.464,8,15.088,9.659a2.222,2.222,0,0,0,1.769.832c1.873,0,14.048,14.226,15.3,17.862.625,1.558,1.457,2.909,1.977,2.909s.936.83.936,1.868a4.885,4.885,0,0,0,1.041,2.908c.625.623,1.353,4.155,1.769,8,1.04,11.424,4.058,7.374,3.226-4.258-.312-4.57-1.353-7.582-4.37-12.669-5.723-9.659-20.187-23.367-29.864-28.354-9.885-5.192-19.979-9.035-25.91-9.867l-4.682-.727-.312-6.543c-.416-7.789-1.041-8.308-13.735-11.735C186.924.353,184.531.249,144.885.04,121.993-.062,101.91.04,100.141.249ZM95.354,5.338c-3.018,3.635,6.556,6.75,24.557,7.789,12.9.832,48.907,0,55.566-1.142,6.972-1.35,12.591-3.532,12.591-4.986a3.578,3.578,0,0,0-1.145-1.973c-.832-.831,0-1.039,3.33-.623,6.035.727,14.464,4.362,14.464,6.232,0,2.7-9.573,5.712-24.974,7.789-19.25,2.6-62.538,2.181-80.124-.623C87.446,15.827,79.85,13.023,79.85,10.427c0-1.87,5.723-4.675,11.967-5.713,2.289-.415,4.37-.83,4.579-.934C96.6,3.781,96.083,4.4,95.354,5.338Zm54.734,35.726c2.393.623,1.353.831-4.266.936-12.9.207-23.309,4.465-32.986,13.5-4.682,4.364-5.1,4.571-6.764,2.807s-1.561-2.079,2.81-5.921C119.079,43.247,138.122,38.052,150.088,41.064Zm7.284,5.713a43.774,43.774,0,0,1,20.915,12.046c4.162,4.155,4.891,5.5,3.954,6.856-1.873,3.012-3.018,2.6-6.659-2.388a48.05,48.05,0,0,0-9.781-8.829c-8.221-5.5-15.5-7.477-25.6-6.957-8.637.311-9.573.1-3.954-1.248C141.972,44.907,150.817,45.115,157.372,46.777ZM142.7,97.148c.52,0,8.429-5.5,17.69-12.151,9.157-6.647,18.418-13.3,20.4-14.749,2.809-1.972,3.226-2.181,1.977-.623C151.025,109.09,141.868,120,141.347,119.268c-.416-.415-11.03-15.579-23.517-33.546S93.9,51.347,92.441,49.374c-1.353-1.974,9.157,7.893,23.413,22.017C130.109,85.619,142.18,97.148,142.7,97.148Zm.624-46.737a1.042,1.042,0,0,1-1.041,1.04,1.118,1.118,0,0,1-1.041-1.04,1.042,1.042,0,0,1,1.041-1.037A.982.982,0,0,1,143.324,50.411ZM102.846,69.523c-2.706,3.323-4.474,13.6-4.058,23.991.312,9.761.624,11.216,4.37,18.588,9.053,18.383,26.847,28.767,46.93,27.418l7.284-.52-5.2,1.248c-7.6,1.972-13.735,1.868-22.893-.52-9.885-2.492-15.817-5.816-23.725-13.4-15.4-14.54-19.355-37.285-10.094-57.017l3.226-6.958,2.6,3.012C103.055,67.34,103.575,68.691,102.846,69.523Zm86.575,6.957a43.993,43.993,0,0,1-11.55,46.839c-10.094,9.555-21.852,14.021-34.547,12.983-6.868-.624-16.337-3.22-18.21-5.089-.624-.518.208-.518,1.873.1,10.3,3.945,24.037,3.012,34.235-2.079,18-9.035,27.055-28.976,22.684-49.747-1.041-4.985-1.041-6.543,0-7.789C185.988,69.21,187.34,70.352,189.422,76.48ZM151.753,74.2c2.185,2.284,3.018,4.05,3.018,6.854,0,4.88-4.578,9.866-9.157,9.866-3.642,0-8.325-3.427-9.677-7.061s.624-9.245,4.058-11.113C144.469,70.352,148.319,70.872,151.753,74.2ZM79.746,83.75c-.624,2.494-1.249,4.985-1.353,5.609a15.151,15.151,0,0,1-1.457,3.322c-1.873,3.324-1.665,30.638.208,36.87,1.561,4.881,3.538,9.242,4.683,10.178.312.311,1.873,2.181,3.434,4.258l2.809,3.739-8.949-.311c-9.781-.415-12.8-1.039-12.8-2.7,0-.624-1.665-3.116-3.642-5.608a27.036,27.036,0,0,1-3.642-5.089c.1-.935-10.3-9.555-16.441-13.71a45.628,45.628,0,0,0-12.8-5.4c-6.972-1.662-8.533-3.219-3.33-3.219,4.058,0,13.111-5.089,15.921-8.828,3.226-4.362,4.787-4.674,2.6-.521a16.063,16.063,0,0,0-1.561,3.947c0,1.351,9.157-.311,14.776-2.8,8.22-3.531,19.458-15.371,21.228-22.536.416-1.455.832-2.389,1.145-2.078C80.786,79.076,80.474,81.361,79.746,83.75Zm130.071,6.542a51.445,51.445,0,0,0,7.6,8.31c5.411,4.049,14.464,7.893,18.938,7.893,3.642,0,3.954-.208,3.33-2.388a35.048,35.048,0,0,1-1.145-5.4c-.52-3.115-.52-3.115.52.208.624,1.869,1.561,3.426,2.081,3.426.624,0,1.04.623,1.04,1.455,0,1.972,11.654,7.893,15.5,7.893,5.307,0,3.642,1.557-3.226,3.01-11.758,2.493-26.43,13.814-34.859,26.794L216.06,147h-6.451a53.286,53.286,0,0,0-10.2.935l-3.85.831,4.058-5.3c2.185-2.908,4.058-5.711,4.058-6.128a36.947,36.947,0,0,1,2.289-5.712c1.977-4.258,2.393-6.958,2.706-20.252.312-11.943,0-15.889-1.145-17.656-1.561-2.6-4.891-12.359-4.891-14.435.1-.728.728.1,1.561,1.973A55.6,55.6,0,0,0,209.817,90.292ZM103.263,88.839c.312.519-.1,1.039-.937,1.039-.936,0-1.665-.519-1.665-1.039a.96.96,0,0,1,.936-1.04A1.979,1.979,0,0,1,103.263,88.839Zm79.6,0a1.042,1.042,0,0,1-1.041,1.039,1.118,1.118,0,0,1-1.041-1.039,1.042,1.042,0,0,1,1.041-1.04A.983.983,0,0,1,182.866,88.839ZM143.324,131c0,.831-.52,1.247-1.041.935a1.26,1.26,0,0,1-.52-1.661C142.7,128.825,143.324,129.135,143.324,131Z" transform="matrix(0.914, 0.407, -0.407, 0.914, 552.136, 16.096)" fill="url(#a)"/></g></g></svg>