<svg xmlns="http://www.w3.org/2000/svg" xmlns:xlink="http://www.w3.org/1999/xlink" width="73" height="73" viewBox="0 0 73 73"><defs><filter id="a" x="0" y="0" width="73" height="73" filterUnits="userSpaceOnUse"><feOffset dy="3" input="SourceAlpha"/><feGaussianBlur stdDeviation="3" result="b"/><feFlood flood-opacity="0.161"/><feComposite operator="in" in2="b"/><feComposite in="SourceGraphic"/></filter></defs><g transform="translate(-282 -266)"><g transform="matrix(1, 0, 0, 1, 282, 266)" filter="url(#a)"><rect width="55" height="55" rx="27.5" transform="translate(9 6)" fill="#fff"/></g><g transform="translate(307.075 291.075)"><path d="M0,1.529A1.542,1.542,0,0,0,1.556,3.058,1.542,1.542,0,0,0,3.111,1.529,1.542,1.542,0,0,0,1.556,0,1.542,1.542,0,0,0,0,1.529Z" transform="translate(4.163 6.63)" fill="#403084"/><path d="M0,1.529A1.542,1.542,0,0,0,1.556,3.058,1.542,1.542,0,0,0,3.111,1.529,1.542,1.542,0,0,0,1.556,0,1.542,1.542,0,0,0,0,1.529Z" transform="translate(9.869 6.63)" fill="#403084"/><path d="M0,1.529A1.542,1.542,0,0,0,1.556,3.058,1.542,1.542,0,0,0,3.111,1.529,1.542,1.542,0,0,0,1.556,0,1.542,1.542,0,0,0,0,1.529Z" transform="translate(15.574 6.63)" fill="#403084"/><path d="M6.715,22.126a.837.837,0,0,1-.837-.837V18.616H2.9a2.9,2.9,0,0,1-2.9-2.9V2.9A2.9,2.9,0,0,1,2.9,0H21.175a2.9,2.9,0,0,1,2.9,2.9V15.715a2.9,2.9,0,0,1-2.9,2.9h-10.5L7.3,21.89A.833.833,0,0,1,6.715,22.126ZM2.9,1.531A1.372,1.372,0,0,0,1.531,2.9V15.715a1.372,1.372,0,0,0,1.37,1.37H7.408V19.65l2.647-2.565H21.175a1.372,1.372,0,0,0,1.37-1.37V2.9a1.372,1.372,0,0,0-1.37-1.37Z" transform="translate(-1.075 -0.075)" fill="#403084"/></g></g></svg>