<svg width="250" height="250" viewBox="0 0 250 250" fill="none" xmlns="http://www.w3.org/2000/svg">
<path d="M0 233.387L3.31046 240.681L122.103 192.462L142.798 194.894L150.248 217.179L140.314 226.5C136.59 229.74 135.349 235.007 137.418 239.87L141.557 250L210.264 223.663L206.54 213.938C204.884 209.075 200.331 206.24 194.951 206.24H181.291L173.841 188.816L192.053 179.903C197.847 177.066 200.331 170.582 198.262 164.91L174.67 102.916C172.186 96.4328 165.149 93.5957 158.526 95.6217C158.526 95.6217 158.114 95.6217 158.114 96.0273L140.729 103.32L138.245 97.242L147.766 86.3031C154.387 79.0084 158.526 70.0954 159.769 60.3712L171.772 46.1895C179.636 37.2745 177.98 23.904 168.874 16.2037C167.218 14.989 165.563 13.7742 163.908 12.963C159.355 10.937 154.801 10.5315 149.836 11.7482L148.593 8.09991C146.523 1.61843 139.074 -1.62429 132.865 0.807256L45.5299 31.6022C38.907 34.0337 35.5965 40.9208 38.0803 46.9987V47.4043L40.1499 52.671C29.3879 57.5341 24.4202 69.6898 28.1449 80.2252C31.0431 88.329 38.4926 94.0013 47.1851 95.2161L66.6396 97.242C74.5034 102.916 84.0225 106.563 93.5436 107.372L107.202 108.589L109.686 114.666C106.787 116.287 104.718 119.124 103.891 122.77L100.993 136.546L0 176.66L2.89816 184.358L60.8453 161.669L74.9178 202.997L0 233.387ZM198.262 216.37L199.09 218.799L146.109 239.465L144.868 237.033C144.454 235.413 144.868 233.792 145.696 232.578L159.769 219.611L177.566 213.938H194.122C196.192 213.938 197.435 214.748 198.262 216.37ZM172.186 206.644L157.285 211.507L151.905 196.11C154.387 196.514 156.456 196.11 158.526 194.894L165.563 191.653L172.186 206.644ZM161.01 102.105C163.079 101.294 165.563 102.105 166.392 104.131L169.702 112.64L149.421 119.124L151.905 126.822L172.186 120.339L177.152 133.306L157.699 139.787L160.183 147.487L180.05 141.004L185.018 153.969L165.978 160.047L168.461 167.747L187.914 161.263L189.983 166.53C190.812 168.556 189.983 170.582 187.914 171.393L155.216 187.195C154.387 187.601 153.56 187.601 152.732 187.601L124.587 184.358L109.271 139.384L112.169 124.391C112.584 123.176 113.41 121.959 114.653 121.554L161.01 102.105ZM160.596 20.2557C167.218 23.0928 170.531 30.791 167.633 37.6801C167.218 38.8949 166.392 39.706 165.563 40.9208L160.596 46.9987C160.183 42.9468 159.355 39.3004 158.114 35.2485L152.732 19.4465C155.63 19.0409 158.114 19.4465 160.596 20.2557ZM36.4231 78.1992C33.9413 71.3102 36.8374 64.0175 43.4603 60.7748L49.2547 74.5529C51.3242 79.414 54.2224 84.2771 57.5328 88.329L48.8403 87.5178C43.046 87.1123 38.0803 83.4659 36.4231 78.1992ZM95.1989 99.6736C78.2282 98.0532 63.3271 87.5178 57.1185 71.7158L46.3585 44.9727C45.5299 42.9468 46.3585 40.5152 48.4281 39.706L135.761 8.91109C137.004 8.5055 137.831 8.5055 139.074 8.91109C139.9 9.31667 140.729 10.1259 141.143 11.3426L150.248 38.0857C155.216 53.0766 151.905 69.2842 141.557 81.0344L128.726 95.6217L132.451 105.346L117.549 111.424L113.41 101.294L95.1989 99.6736ZM68.7091 158.426L78.2282 154.78L88.5759 185.575L96.4398 183.143L85.6798 151.539L102.236 145.056L116.309 185.981L82.7816 199.757L68.7091 158.426Z" fill="#0BB1D3"/>
<path d="M204.471 70.9046V74.9565H212.749V70.9046C212.749 59.5601 221.856 50.6451 233.444 50.6451V42.5412C221.856 42.5412 212.749 33.6282 212.749 22.2817V18.2297H204.471V22.2817C204.471 33.6282 195.366 42.5412 183.775 42.5412V50.6451C195.366 50.6451 204.471 59.5601 204.471 70.9046ZM208.61 36.8689C211.094 40.9209 214.404 44.1636 218.543 46.5931C214.404 49.0247 211.094 52.2674 208.61 56.3193C206.126 52.2674 202.816 49.0247 198.676 46.5931C202.816 44.1636 206.126 40.9209 208.61 36.8689Z" fill="#0BB1D3"/>
<path d="M22.3507 151.943V155.995H30.6288V151.943C30.6288 140.598 39.7356 131.683 51.3242 131.683V123.579C39.7356 123.579 30.6288 114.666 30.6288 103.32V99.268H22.3507V103.32C22.3507 114.666 13.2459 123.579 1.65527 123.579V131.683C13.2459 131.683 22.3507 140.598 22.3507 151.943ZM26.4898 117.907C28.9736 121.959 32.2841 125.202 36.4231 127.631C32.2841 130.063 28.9736 133.306 26.4898 137.358C24.0059 133.306 20.6954 130.063 16.5564 127.631C20.6954 125.202 24.0059 121.959 26.4898 117.907Z" fill="#0BB1D3"/>
<path d="M229.305 103.32V99.268H221.026V103.32C221.026 114.666 211.922 123.579 200.331 123.579V131.683C211.922 131.683 221.026 140.598 221.026 151.943V155.995H229.305V151.943C229.305 140.598 238.411 131.683 250 131.683V123.579C238.411 123.579 229.305 114.666 229.305 103.32ZM225.166 137.358C222.682 133.306 219.371 130.063 215.232 127.631C219.371 125.202 222.682 121.959 225.166 117.907C227.649 121.959 230.96 125.202 235.099 127.631C230.96 130.063 227.649 133.306 225.166 137.358Z" fill="#0BB1D3"/>
<path d="M122.931 72.1214L128.725 77.7937C151.49 55.5081 130.381 21.4724 129.14 20.2557L122.103 24.7132C122.517 24.7132 141.143 54.2933 122.931 72.1214Z" fill="#0BB1D3"/>
</svg>
