<svg width="250" height="250" viewBox="0 0 250 250" fill="none" xmlns="http://www.w3.org/2000/svg">
<path d="M164.798 238.72H134.673C132.583 238.713 134.673 238.72 128.583 238.705C123.426 238.705 128.583 238.705 123.426 238.705H103.452C101.107 238.705 103.452 238.705 101.107 238.705C98.3412 238.705 99.6038 238.705 98.3412 238.705C97.3919 238.705 98.3412 238.705 95.575 238.705C94.5201 238.705 95.575 238.705 93.2305 238.705H73.2387C72.5 238.705 70 238.705 68.0822 238.705C66.0963 238.686 64.0814 238.678 61.9916 238.686H50.5942C39.4799 238.671 28.8241 232.977 20.9651 222.853C13.1061 212.729 8.68575 199.002 8.67405 184.684V147.096C8.67405 145.614 8.21711 144.193 7.40376 143.145C6.59041 142.097 5.48727 141.509 4.33702 141.509C3.18677 141.509 2.08364 142.097 1.27029 143.145C0.456936 144.193 7.77808e-07 145.614 7.77808e-07 147.096V184.684C-0.00235031 201.978 5.32536 218.566 14.8123 230.802C24.2993 243.038 37.1694 249.922 50.5942 249.94H61.9827C62.932 249.936 63.5742 249.935 64.7497 249.935C65.646 249.935 67.6172 249.935 67.0934 249.935H87.0853C90 250.082 94.1124 249.935 98.3279 249.935C102.543 249.935 105 250.082 109.571 249.935H129.562C131.906 249.935 129.562 249.935 131.906 249.935C134.525 249.935 133.724 249.936 134.673 249.94H164.798C165.948 249.94 167.051 249.351 167.865 248.304C168.678 247.256 169.135 245.835 169.135 244.353C169.135 242.871 168.678 241.45 167.865 240.403C167.051 239.355 165.948 238.766 164.798 238.766V238.72Z" fill="url(#paint0_linear)"/>
<path fill-rule="evenodd" clip-rule="evenodd" d="M130 5V39.1321C130 39.2006 129.999 39.2689 129.996 39.3367L199.176 39.2285C212.59 39.2466 225.451 46.1191 234.936 58.3381C244.421 70.5571 249.756 87.1243 249.77 104.405L249.991 163.988C249.991 163.988 249.92 171.665 249.894 171.938C249.88 172.221 249.893 172.155 249.913 172.046C249.946 171.869 250 171.579 250 172.474C250 173.92 249.894 177.725 249.894 177.725L249.779 184.73C249.765 202.01 244.43 218.577 234.945 230.796C225.46 243.015 212.599 249.888 199.185 249.906H185.037C183.887 249.906 182.784 249.317 181.971 248.27C181.157 247.222 180.7 245.801 180.7 244.319C180.7 242.837 181.157 241.416 181.971 240.368C182.784 239.32 183.887 238.732 185.037 238.732H199.185C210.299 238.717 220.955 233.023 228.814 222.898C236.673 212.774 241.093 199.047 241.105 184.73V104.405C241.093 90.0869 236.673 76.3602 228.814 66.2361C220.955 56.112 210.299 50.4176 199.185 50.4025H50.5942C39.4799 50.4176 28.8241 56.112 20.9651 66.2361C13.1061 76.3602 8.68575 90.0869 8.67405 104.405V121.023C8.67405 122.505 8.21711 123.926 7.40376 124.974C6.59041 126.022 5.48727 126.61 4.33702 126.61C3.18677 126.61 2.08363 126.022 1.27028 124.974C0.456935 123.926 0 122.505 0 121.023V104.405C0.0129809 88.101 4.76298 72.3943 13.315 60.3761C21.867 48.358 33.6015 40.8993 46.2085 39.4678C46.8103 39.466 47.3978 39.4651 47.9714 39.4651L120.005 39.3524C120.002 39.2793 120 39.2059 120 39.1321V5C120 2.23857 122.239 0 125 0C127.761 0 130 2.23858 130 5Z" fill="url(#paint1_linear)"/>
<path fill-rule="evenodd" clip-rule="evenodd" d="M140 127.589C140 124.828 137.762 122.589 135 122.589H120C117.239 122.589 115 124.828 115 127.589V142.107C115 144.868 117.239 147.107 120 147.107H135C137.762 147.107 140 144.868 140 142.107V127.589ZM136.427 134.848C136.427 139.684 132.429 143.604 127.498 143.604C122.567 143.604 118.57 139.684 118.57 134.848C118.57 130.012 122.567 126.091 127.498 126.091C132.429 126.091 136.427 130.012 136.427 134.848Z" fill="url(#paint2_linear)"/>
<path fill-rule="evenodd" clip-rule="evenodd" d="M90 127.589C90 124.828 87.7614 122.589 85 122.589H70C67.2386 122.589 65 124.828 65 127.589V142.107C65 144.868 67.2386 147.107 70 147.107H85C87.7614 147.107 90 144.868 90 142.107V127.589ZM86.4265 134.848C86.4265 139.684 82.429 143.604 77.4979 143.604C72.5668 143.604 68.5693 139.684 68.5693 134.848C68.5693 130.012 72.5668 126.091 77.4979 126.091C82.429 126.091 86.4265 130.012 86.4265 134.848Z" fill="url(#paint3_linear)"/>
<path fill-rule="evenodd" clip-rule="evenodd" d="M190 127.589C190 124.828 187.761 122.589 185 122.589H170C167.238 122.589 165 124.828 165 127.589V142.107C165 144.868 167.238 147.107 170 147.107H185C187.761 147.107 190 144.868 190 142.107V127.589ZM186.426 134.848C186.426 139.684 182.429 143.604 177.498 143.604C172.567 143.604 168.569 139.684 168.569 134.848C168.569 130.012 172.567 126.091 177.498 126.091C182.429 126.091 186.426 130.012 186.426 134.848Z" fill="url(#paint4_linear)"/>
<defs>
<linearGradient id="paint0_linear" x1="84.5675" y1="141.509" x2="84.5675" y2="250" gradientUnits="userSpaceOnUse">
<stop stop-color="#4048EF"/>
<stop offset="1" stop-color="#5A7BEF"/>
</linearGradient>
<linearGradient id="paint1_linear" x1="2.5" y1="19.5" x2="233" y2="250" gradientUnits="userSpaceOnUse">
<stop stop-color="#4048EF"/>
<stop offset="1" stop-color="#5A7BEF"/>
</linearGradient>
<linearGradient id="paint2_linear" x1="127.5" y1="122.589" x2="127.5" y2="147.107" gradientUnits="userSpaceOnUse">
<stop stop-color="#4048EF"/>
<stop offset="1" stop-color="#5A7BEF"/>
</linearGradient>
<linearGradient id="paint3_linear" x1="77.5" y1="122.589" x2="77.5" y2="147.107" gradientUnits="userSpaceOnUse">
<stop stop-color="#4048EF"/>
<stop offset="1" stop-color="#5A7BEF"/>
</linearGradient>
<linearGradient id="paint4_linear" x1="177.5" y1="122.589" x2="177.5" y2="147.107" gradientUnits="userSpaceOnUse">
<stop stop-color="#4048EF"/>
<stop offset="1" stop-color="#5A7BEF"/>
</linearGradient>
</defs>
</svg>
