<svg xmlns="http://www.w3.org/2000/svg" width="35" height="35" viewBox="0 0 35 35">
  <g id="log_out" data-name="log out" transform="translate(-5973 -4475)" opacity="0.59">
    <path id="Path_2073" data-name="Path 2073" d="M51.461,50.215h9.507a9.913,9.913,0,1,0-.007,1.844h-9.5l.731.732a.922.922,0,1,1-1.3,1.3l-2.3-2.3h0l-.651-.651.651-.651h0l2.151-2.151a.922.922,0,0,1,1.3,1.3Z" transform="translate(6041.399 4543.444) rotate(180)"/>
    <g id="Ellipse_501" data-name="Ellipse 501" transform="translate(5973 4475)" fill="none" stroke="#0d0d0d" stroke-miterlimit="10" stroke-width="1">
      <circle cx="17.5" cy="17.5" r="17.5" stroke="none"/>
      <circle cx="17.5" cy="17.5" r="17" fill="none"/>
    </g>
    <g id="Ellipse_502" data-name="Ellipse 502" transform="translate(5973 4475)" fill="none" stroke="#0d0d0d" stroke-miterlimit="10" stroke-width="1">
      <circle cx="17.5" cy="17.5" r="17.5" stroke="none"/>
      <circle cx="17.5" cy="17.5" r="17" fill="none"/>
    </g>
    <g id="Ellipse_503" data-name="Ellipse 503" transform="translate(5973 4475)" fill="none" stroke="#0d0d0d" stroke-miterlimit="10" stroke-width="1">
      <circle cx="17.5" cy="17.5" r="17.5" stroke="none"/>
      <circle cx="17.5" cy="17.5" r="17" fill="none"/>
    </g>
  </g>
</svg>
