<svg width="57" height="57" viewBox="0 0 57 57" fill="none" xmlns="http://www.w3.org/2000/svg">
<g filter="url(#filter0_d)">
<path d="M26.2486 53.3347C40.1408 53.3347 51.4026 42.0729 51.4026 28.1807C51.4026 14.2886 40.1408 3.02679 26.2486 3.02679C12.3565 3.02679 1.0947 14.2886 1.0947 28.1807C1.0947 42.0729 12.3565 53.3347 26.2486 53.3347Z" fill="white"/>
</g>
<path d="M51.4055 28.1822C51.4103 33.9698 49.4229 39.5827 45.7773 44.0779C42.1317 48.573 37.0501 51.6764 31.3862 52.8668C25.7223 54.0571 19.8213 53.2618 14.6746 50.6144C9.52796 47.9671 5.44928 43.629 3.12385 38.3291C0.798416 33.0292 0.367945 27.0904 1.90476 21.5106C3.44157 15.9307 6.85202 11.0498 11.5631 7.68794C16.2742 4.32605 21.9988 2.68804 27.7752 3.04912C33.5515 3.4102 39.0276 5.74837 43.2833 9.67078C45.8438 12.0268 47.8877 14.8884 49.2857 18.0747C50.6838 21.261 51.4056 24.7027 51.4055 28.1822Z" fill="#F0CD00"/>
<path d="M51.41 28.1852C51.4106 34.6956 48.8872 40.9527 44.3701 45.6411C39.8531 50.3296 33.6942 53.0841 27.1883 53.3258C20.6737 53.0967 14.5025 50.3478 9.97487 45.6581C5.44725 40.9685 2.91685 34.7045 2.91685 28.1859C2.91685 21.6673 5.44725 15.4033 9.97487 10.7137C14.5025 6.02405 20.6737 3.27509 27.1883 3.04602C33.6939 3.28766 39.8526 6.04204 44.3696 10.7302C48.8866 15.4183 51.4103 21.675 51.41 28.1852Z" fill="#FFDE50"/>
<path d="M43.2833 9.66932L7.73721 45.2154C6.52653 43.9017 5.4586 42.4632 4.55135 40.9242L38.9876 6.48346C40.5287 7.38975 41.9687 8.45774 43.2833 9.66932Z" fill="#FFEA94"/>
<path d="M49.6757 18.9946L17.0536 51.6078C14.7649 50.7061 12.6211 49.4732 10.6908 47.9485L46.0164 12.6169C47.5429 14.5515 48.7759 16.7004 49.6757 18.9946Z" fill="#FFEA94"/>
<path d="M45.8003 28.1837C45.8001 33.3474 43.7569 38.3013 40.1167 41.9637C36.4765 45.6262 31.5351 47.6996 26.3715 47.7312C21.2078 47.7629 16.2414 45.7502 12.5566 42.1327C8.87177 38.5152 6.7679 33.5867 6.70437 28.4234C6.70437 28.3435 6.70437 28.2636 6.70437 28.1837C6.70437 22.9993 8.76376 18.0272 12.4295 14.3612C16.0953 10.6951 21.0672 8.63534 26.2516 8.63495H26.4928C30.4427 8.67714 34.2861 9.92045 37.5124 12.1996C39.6748 13.7272 41.5067 15.6755 42.8986 17.9277C44.8018 21.0095 45.8067 24.5615 45.8003 28.1837Z" fill="url(#paint0_linear)"/>
<path d="M32.8765 29.2571C31.9072 29.0629 30.9672 29.708 30.777 30.6982C30.1242 34.0953 27.6478 36.7091 24.5895 37.4543V29.0757L31.9147 25.9489C32.826 25.5599 33.2562 24.4896 32.8754 23.5584C32.4947 22.6273 31.4469 22.1879 30.5358 22.5768L24.5895 25.115V22.0368L31.9147 18.9101C32.826 18.521 33.2562 17.4508 32.8754 16.5196C32.4947 15.5884 31.4469 15.149 30.5358 15.538L24.5895 18.0762V16.5161C24.5895 15.5069 23.7888 14.6888 22.801 14.6888C21.8133 14.6888 21.0126 15.5069 21.0126 16.5161V19.6031L17.6634 21.0327C16.7521 21.4217 16.3219 22.4919 16.7027 23.4231C16.9893 24.1242 17.6538 24.5464 18.3536 24.5464C18.5833 24.5464 18.8171 24.5009 19.0423 24.4047L21.0126 23.5637V26.6419L17.6634 28.0715C16.7521 28.4605 16.3219 29.5307 16.7027 30.4619C16.9893 31.163 17.6538 31.5853 18.3536 31.5853C18.5833 31.5853 18.8171 31.5397 19.0423 31.4436L21.0126 30.6025V39.4967C21.0126 40.5059 21.8133 41.324 22.801 41.324C25.5307 41.324 28.1888 40.3091 30.2855 38.4664C32.337 36.6632 33.7581 34.1545 34.2869 31.4023C34.4772 30.4119 33.8457 29.4514 32.8765 29.2571Z" fill="#F68E00"/>
<path d="M34.3562 29.2571C33.387 29.0629 32.447 29.708 32.2568 30.6982C31.604 34.0953 29.1276 36.7091 26.0692 37.4543V29.0757L33.3944 25.9489C34.3057 25.5599 34.7359 24.4896 34.3552 23.5584C33.9745 22.6273 32.9266 22.1879 32.0155 22.5768L26.0692 25.115V22.0368L33.3944 18.9101C34.3057 18.521 34.7359 17.4508 34.3552 16.5196C33.9745 15.5884 32.9266 15.149 32.0155 15.538L26.0692 18.0762V16.5161C26.0692 15.5069 25.2685 14.6888 24.2808 14.6888C23.293 14.6888 22.4923 15.5069 22.4923 16.5161V19.6031L19.1431 21.0327C18.2318 21.4217 17.8016 22.4919 18.1824 23.4231C18.469 24.1242 19.1335 24.5464 19.8333 24.5464C20.063 24.5464 20.2969 24.5009 20.522 24.4047L22.4923 23.5637V26.6419L19.1431 28.0715C18.2318 28.4605 17.8016 29.5307 18.1824 30.4619C18.469 31.163 19.1335 31.5853 19.8333 31.5853C20.063 31.5853 20.2969 31.5397 20.522 31.4436L22.4923 30.6025V39.4967C22.4923 40.5059 23.293 41.324 24.2808 41.324C27.0105 41.324 29.6686 40.3091 31.7652 38.4664C33.8168 36.6632 35.2379 34.1545 35.7666 31.4023C35.9569 30.4119 35.3255 29.4514 34.3562 29.2571Z" fill="#FFEA94"/>
<path d="M45.7974 28.1837C45.797 33.3682 43.7373 38.3403 40.0712 42.0063C36.4052 45.6723 31.4332 47.732 26.2487 47.7324C25.8777 47.7324 25.5098 47.7221 25.1448 47.7013C30.1287 47.4167 34.8149 45.2362 38.2427 41.6071C41.6705 37.9779 43.5801 33.175 43.5801 28.1829C43.5801 23.1909 41.6705 18.388 38.2427 14.7588C34.8149 11.1297 30.1287 8.94923 25.1448 8.66456C25.5108 8.64384 25.8787 8.63348 26.2487 8.63348C31.4334 8.63388 36.4057 10.6938 40.0718 14.3601C43.7378 18.0265 45.7974 22.9989 45.7974 28.1837Z" fill="#F68E00"/>
<defs>
<filter id="filter0_d" x="0.0947037" y="0.0267944" width="56.3079" height="56.3079" filterUnits="userSpaceOnUse" color-interpolation-filters="sRGB">
<feFlood flood-opacity="0" result="BackgroundImageFix"/>
<feColorMatrix in="SourceAlpha" type="matrix" values="0 0 0 0 0 0 0 0 0 0 0 0 0 0 0 0 0 0 127 0"/>
<feOffset dx="2"/>
<feGaussianBlur stdDeviation="1.5"/>
<feColorMatrix type="matrix" values="0 0 0 0 0 0 0 0 0 0 0 0 0 0 0 0 0 0 0.102 0"/>
<feBlend mode="normal" in2="BackgroundImageFix" result="effect1_dropShadow"/>
<feBlend mode="normal" in="SourceGraphic" in2="effect1_dropShadow" result="shape"/>
</filter>
<linearGradient id="paint0_linear" x1="11.0049" y1="8.63495" x2="44.1589" y2="44.7206" gradientUnits="userSpaceOnUse">
<stop stop-color="#FFD45A"/>
<stop offset="1" stop-color="#FAA300"/>
</linearGradient>
</defs>
</svg>
